M48
;Layer_Color=9474304
;FILE_FORMAT=4:4
METRIC,LZ
;TYPE=PLATED
T01F00S00C0.2000
T02F00S00C0.3000
T05F00S00C0.8500
T06F00S00C1.0000
T07F00S00C1.0160
T08F00S00C1.2000
T09F00S00C1.4986
T11F00S00C2.5000
T12F00S00C3.5000
;TYPE=NON_PLATED
T13F00S00C1.0000
T14F00S00C1.7018
T15F00S00C3.9878
%
T01
X004275Y0051525
X004385
Y0052625
Y0053725
X004275
Y0052625
X004495
Y0053725
Y0051525
T02
X0119025Y001795
X012595Y0017
Y001295
X0003975Y0023225
X000365Y00459
X00028
X00095Y00541
X00174
X0021775Y00507
X00219356Y00499553
X0023425Y005055
X0023775Y00519
X0025175Y0051725
X0026575Y00519
X002805Y0051725
X00292Y00519
Y00539
X002805
X00311Y00532
X0031875Y00539
X003525Y00534
X00396Y00532
X00384Y00516
X00405Y00554
X00411Y0056
X00431Y0055925
Y005665
X00431Y00578
X00441Y005775
X00451Y00578
X00446Y0058475
X00436
X00463Y00589
X004605Y0056475
X00485Y00555
Y00538
X00477
X00471494Y00523373
X00473259Y00514891
X00427Y00487
X0041Y00479
X0039025Y0043675
X0043075
X0047125
Y0037525
X0043075
X0039025
X0034975
X0030925
Y0043675
X0034975
X0026725Y004995
X0025175
X0024875Y0037875
X0024Y003785
X002015Y003965
Y004035
X0010325Y003185
Y0031
X00241Y00224
X0033Y00254
X00461Y00224
X00458Y0032075
Y00328
X00438Y0032
X0043075
X0052475Y00328
X00532
X0055
Y0033525
X00547Y0037325
X005875
X0058425Y0041275
X0062475
X0060375Y0045075
Y0047575
X0057525
X00568
X005585
X0054925
Y0045075
X005585
X00568
X0057525
X0058425Y00495
X0062475
X0066525
X00708625Y00475625
X0072325Y0045075
X0071475Y0041275
X0075075Y0039325
X0076825Y003755
X0081Y003795
X007925Y0039725
X00775Y00415
X007575Y0043275
X0083Y0045075
X0083725
X0083Y0047575
X0082275
X00792Y00489
X0075625Y005245
X0073675Y00544
X0075325Y005665
X007605
X007055Y0056125
X00665
X006245
X00584
X0050325Y005595
Y0056675
X00518Y00515
X00529
X004915Y004545
X006645Y0037325
X0074825Y0034275
X0078125Y00326
X0082275Y00328
X0083
X0086075Y00328
Y003635
X008605Y00425
X0087675Y0056975
X0088275Y0056475
X0086625Y0059
X0083Y00254
X00741Y00224
X0055Y00254
X0090125Y00328
Y003635
X00901Y00425
X009415
X0094225Y0045075
X00935
Y0047575
X0094225
X0100625
X0101475
Y0045075
X0100625
X010225Y00425
X01063
X01073Y00407
X011035Y00425
X0115125Y00422
X0116
X0119925Y004035
Y003965
X01194Y0028525
X0121175Y0026775
X012295Y0025025
X0124725Y0023275
X012595Y002105
X01214Y0020975
X011965Y002275
X0117275Y0019725
X0115125Y0021025
X0111075
X0107025
X0102975
X0100775Y0022425
X0099025Y00242
X009715Y0025975
X00954Y002775
X00935Y003015
X0092775
X00963Y0032075
X0098225Y00361
X0102275
X0106325
X0106Y00328
X010685
X0111375Y003185
X0112325Y00329
X011325Y003395
X011585Y0032025
X0117625Y0030275
X0116225Y0025
X0112175
X0106Y00254
X00971Y00224
X00982Y00425
X0100625Y00551
X01083Y004945
X01113Y0051
X011545Y00503
X01227Y00541
X01306
X01169117Y00628398
X01157117
X01145117
X01133117
X01121117
X01109117
X01097117
Y00640398
X01109117
X01121117
X01133117
X01145117
X01157117
X01169117
X01191Y00757
X01083Y00778
Y0079
Y00802
X01071
X01059
Y0079
X01071
Y00778
X01059
X01052Y00756
X0103
X01033Y00738
Y00726
X01021
X01009
Y00738
X01021
Y00714
X01009
X01033
X01054Y00716
X01066
X01078
Y00704
Y00692
X01066
Y0068
X01054
Y00692
Y00704
X01066
X010065Y0059225
X00939Y0079
X00927
X00915
Y00802
X00927
X00939
Y00814
Y00826
Y00838
Y0085
X00927
X00915
Y00838
X00927
Y00826
X00915
Y00814
X00927
X00962Y0085
X01068Y0087525
X011
X01134
X0084525Y0072475
X00826Y00696
X00803Y00743
X00774
X007485Y0072
X00754Y00702
X00745Y00673
X00776
X0076775Y00637
X007605Y0063175
X007555Y0062575
X007545Y0060575
X007605Y0060075
X0077375Y005935
X0087125Y00596
X0069775Y0064275
X007Y00679
X00712Y00673
X00686
X00667Y00675
Y00683
X007Y00702
X0071175Y00702895
X007Y0080475
Y00812
X0066975Y00789
X006075Y00772
X00595Y00806
X0059Y00837
X0059Y008675
X00526
X0051575Y0081025
X00515959Y00782242
X00516Y00774
X00529Y0078
X00509706Y0078729
X00503458Y00792404
X00499Y0082575
X004885Y0082275
X0049325Y007355
X00533871Y00681383
X0052325Y0066775
X00523295Y00622837
X00516Y00626
X0050975Y0062
X00503458Y00626
X00496163Y00622837
X0049275Y0059775
Y005905
X0050975Y0059275
X00516Y00599
X00523295Y00602163
X005405Y0059925
Y00624
X00555Y00699
X00625Y00672
X0063275Y0064275
X007Y008855
X0046252Y0086752
X00458517Y00848869
X004355Y0084775
X00442Y00827
X00418
X004
X0039025Y00815
X004165Y007975
X00411642Y0076745
X00402Y00753
X00414Y00737
X00418Y00716
X00426
X00433Y00721
X0043825Y00726
X004435Y0073125
X0044875Y0073675
X00464Y00736
Y00727
X00459Y00721
X00454Y00715
X00461Y00709
X00468Y00705
Y00697
Y00689
X00461Y00684
X00458Y00676
X0045
X00442
X00434
X00426
X00418
X00415Y00684
X00408Y00689
Y00697
Y00705
X00415Y00709
X0047925Y00712
X0047925Y00688
X0048675Y00672
X0047425Y00649
X0047425Y00627895
X00475Y006185
X00463Y00613
X00413Y0061375
X003845Y0062725
X0037575Y0062675
X00376Y0065
X0033902Y0063473
Y0061927
X0033Y00627
Y00605
X003215Y00605
X0036Y0059925
X00384Y00599
X00349Y00687
Y007285
X00343Y00736
X00355
X003605Y0077225
X00281Y0076725
X002725
X003105Y007245
X002115Y006985
X0047525Y0073525
X004785Y0082275
X004735Y0082925
X00478Y00842
X00411Y00861
X004125Y00877
T05
X003945Y00849
Y00899
T06
X0015Y0038725
Y0041275
X00159Y0056
X00134
X00109
X01241
X01266
X0125Y0041275
Y0038725
X01291Y0056
Y00705
X01241
X00159
X00109
T07
X01189Y001435
X012145
X0124
T08
X01289Y00879
Y00903
T09
X010219Y001654
X010854Y001908
X008554
X007919Y001654
X005754Y001908
X005119Y001654
X003554Y001908
X002919Y001654
T11
X002925Y0027
X003675
X005125
X005875
X007925
X008675
X010225
X010975
X007375Y0087
X006625
T12
X0135Y0005
X0005
X007Y0035
X0135Y0087
X0005Y0078
T13
X01022Y0008925
X01098
X00868
X00792
X00588
X00512
X00368
X00292
T14
X010092Y0014
X011108
X008808
X007792
X006008
X004992
X003808
X002792
T15
X0106Y0014
X0083
X0055
X0033
M30
