G04*
G04 #@! TF.GenerationSoftware,Altium Limited,Altium Designer,24.5.2 (23)*
G04*
G04 Layer_Physical_Order=4*
G04 Layer_Color=16711680*
%FSLAX44Y44*%
%MOMM*%
G71*
G04*
G04 #@! TF.SameCoordinates,4DB407A0-4691-4D8C-B920-06E893975E0B*
G04*
G04*
G04 #@! TF.FilePolarity,Positive*
G04*
G01*
G75*
%ADD12C,0.2000*%
%ADD13C,0.2540*%
%ADD30C,1.0000*%
G04:AMPARAMS|DCode=98|XSize=2.6mm|YSize=4.7mm|CornerRadius=1.3mm|HoleSize=0mm|Usage=FLASHONLY|Rotation=0.000|XOffset=0mm|YOffset=0mm|HoleType=Round|Shape=RoundedRectangle|*
%AMROUNDEDRECTD98*
21,1,2.6000,2.1000,0,0,0.0*
21,1,0.0000,4.7000,0,0,0.0*
1,1,2.6000,0.0000,-1.0500*
1,1,2.6000,0.0000,-1.0500*
1,1,2.6000,0.0000,1.0500*
1,1,2.6000,0.0000,1.0500*
%
%ADD98ROUNDEDRECTD98*%
%ADD99C,1.5500*%
%ADD100R,1.5500X1.5500*%
%ADD115C,0.6000*%
%ADD116C,0.8000*%
%ADD118C,1.5240*%
%ADD119C,1.4500*%
G04:AMPARAMS|DCode=120|XSize=4mm|YSize=1.8mm|CornerRadius=0.45mm|HoleSize=0mm|Usage=FLASHONLY|Rotation=90.000|XOffset=0mm|YOffset=0mm|HoleType=Round|Shape=RoundedRectangle|*
%AMROUNDEDRECTD120*
21,1,4.0000,0.9000,0,0,90.0*
21,1,3.1000,1.8000,0,0,90.0*
1,1,0.9000,0.4500,1.5500*
1,1,0.9000,0.4500,-1.5500*
1,1,0.9000,-0.4500,-1.5500*
1,1,0.9000,-0.4500,1.5500*
%
%ADD120ROUNDEDRECTD120*%
G04:AMPARAMS|DCode=121|XSize=4mm|YSize=1.8mm|CornerRadius=0.45mm|HoleSize=0mm|Usage=FLASHONLY|Rotation=0.000|XOffset=0mm|YOffset=0mm|HoleType=Round|Shape=RoundedRectangle|*
%AMROUNDEDRECTD121*
21,1,4.0000,0.9000,0,0,0.0*
21,1,3.1000,1.8000,0,0,0.0*
1,1,0.9000,1.5500,-0.4500*
1,1,0.9000,-1.5500,-0.4500*
1,1,0.9000,-1.5500,0.4500*
1,1,0.9000,1.5500,0.4500*
%
%ADD121ROUNDEDRECTD121*%
%ADD122C,1.7000*%
%ADD123R,1.7000X1.7000*%
%ADD124C,2.0000*%
%ADD125R,2.0000X2.0000*%
%ADD126C,0.5000*%
%ADD127C,2.5000*%
%ADD128C,5.5000*%
G36*
X1400000Y0D02*
X0D01*
Y814000D01*
X352500D01*
Y920000D01*
X1400000D01*
Y0D01*
D02*
G37*
%LPC*%
G36*
X372250Y917590D02*
X369020D01*
Y910270D01*
X379840D01*
Y910492D01*
X379790Y910743D01*
Y910998D01*
X379598Y911964D01*
X379500Y912199D01*
X379450Y912449D01*
X379074Y913360D01*
X378932Y913572D01*
X378834Y913807D01*
X378287Y914626D01*
X378107Y914807D01*
X377965Y915019D01*
X377268Y915715D01*
X377057Y915857D01*
X376876Y916037D01*
X376057Y916584D01*
X375822Y916682D01*
X375609Y916824D01*
X374700Y917200D01*
X374449Y917250D01*
X374214Y917348D01*
X373248Y917540D01*
X372993D01*
X372742Y917590D01*
X372250Y917590D01*
X372250Y917590D01*
D02*
G37*
G36*
X366480D02*
X362532D01*
X362282Y917540D01*
X362027D01*
X361109Y917357D01*
X360873Y917260D01*
X360623Y917210D01*
X359759Y916852D01*
X359547Y916710D01*
X359311Y916613D01*
X358533Y916093D01*
X358353Y915912D01*
X358141Y915771D01*
X357479Y915109D01*
X357337Y914897D01*
X357157Y914717D01*
X356637Y913939D01*
X356540Y913703D01*
X356398Y913491D01*
X356040Y912627D01*
X355990Y912376D01*
X355892Y912141D01*
X355710Y911223D01*
Y910968D01*
X355660Y910718D01*
Y910270D01*
X366480D01*
Y917590D01*
D02*
G37*
G36*
X395789Y908790D02*
X395770D01*
Y900270D01*
X404290D01*
Y900289D01*
X403623Y902779D01*
X402334Y905011D01*
X400511Y906834D01*
X398279Y908123D01*
X395789Y908790D01*
D02*
G37*
G36*
X393230D02*
X393211D01*
X390721Y908123D01*
X388489Y906834D01*
X386666Y905011D01*
X385377Y902779D01*
X384710Y900289D01*
Y900270D01*
X393230D01*
Y908790D01*
D02*
G37*
G36*
X379840Y907730D02*
X369020D01*
Y894410D01*
X377250D01*
X378241Y894607D01*
X379081Y895169D01*
X379643Y896009D01*
X379840Y897000D01*
X379840Y907730D01*
D02*
G37*
G36*
X366480D02*
X355660D01*
Y897000D01*
X355857Y896009D01*
X356419Y895169D01*
X357259Y894607D01*
X358250Y894410D01*
X366480D01*
Y907730D01*
D02*
G37*
G36*
X1299500Y913500D02*
X1278500D01*
Y892500D01*
X1299500D01*
Y913500D01*
D02*
G37*
G36*
X404290Y897730D02*
X395770D01*
Y889210D01*
X395789D01*
X398279Y889877D01*
X400511Y891166D01*
X402334Y892989D01*
X403623Y895221D01*
X404290Y897711D01*
Y897730D01*
D02*
G37*
G36*
X393230D02*
X384710D01*
Y897711D01*
X385377Y895221D01*
X386666Y892989D01*
X388489Y891166D01*
X390721Y889877D01*
X393211Y889210D01*
X393230D01*
Y897730D01*
D02*
G37*
G36*
X701270Y890429D02*
Y886770D01*
X704929D01*
X704273Y888355D01*
X702855Y889773D01*
X701270Y890429D01*
D02*
G37*
G36*
X698730D02*
X697145Y889773D01*
X695727Y888355D01*
X695071Y886770D01*
X698730D01*
Y890429D01*
D02*
G37*
G36*
X1233500Y891101D02*
X1219270D01*
Y880770D01*
X1240601D01*
Y884000D01*
X1240359Y885838D01*
X1239649Y887550D01*
X1238521Y889021D01*
X1237050Y890149D01*
X1235338Y890859D01*
X1233500Y891101D01*
D02*
G37*
G36*
X1216730D02*
X1202500D01*
X1200662Y890859D01*
X1198950Y890149D01*
X1197479Y889021D01*
X1196351Y887550D01*
X1195641Y885838D01*
X1195399Y884000D01*
Y880770D01*
X1216730D01*
Y891101D01*
D02*
G37*
G36*
X704929Y884230D02*
X701270D01*
Y880571D01*
X702855Y881227D01*
X704273Y882645D01*
X704929Y884230D01*
D02*
G37*
G36*
X698730D02*
X695071D01*
X695727Y882645D01*
X697145Y881227D01*
X698730Y880571D01*
Y884230D01*
D02*
G37*
G36*
X413770Y881929D02*
Y878270D01*
X417429D01*
X416773Y879855D01*
X415355Y881273D01*
X413770Y881929D01*
D02*
G37*
G36*
X411230D02*
X409645Y881273D01*
X408227Y879855D01*
X407571Y878270D01*
X411230D01*
Y881929D01*
D02*
G37*
G36*
X1135270Y880179D02*
Y876520D01*
X1138929D01*
X1138273Y878105D01*
X1136855Y879523D01*
X1135270Y880179D01*
D02*
G37*
G36*
X1132730D02*
X1131145Y879523D01*
X1129727Y878105D01*
X1129071Y876520D01*
X1132730D01*
Y880179D01*
D02*
G37*
G36*
X1101270D02*
Y876520D01*
X1104929D01*
X1104273Y878105D01*
X1102855Y879523D01*
X1101270Y880179D01*
D02*
G37*
G36*
X1098730D02*
X1097145Y879523D01*
X1095727Y878105D01*
X1095071Y876520D01*
X1098730D01*
Y880179D01*
D02*
G37*
G36*
X1069270D02*
Y876520D01*
X1072929D01*
X1072273Y878105D01*
X1070855Y879523D01*
X1069270Y880179D01*
D02*
G37*
G36*
X1066730D02*
X1065145Y879523D01*
X1063727Y878105D01*
X1063071Y876520D01*
X1066730D01*
Y880179D01*
D02*
G37*
G36*
X417429Y875730D02*
X413770D01*
Y872071D01*
X415355Y872727D01*
X416773Y874145D01*
X417429Y875730D01*
D02*
G37*
G36*
X411230D02*
X407571D01*
X408227Y874145D01*
X409645Y872727D01*
X411230Y872071D01*
Y875730D01*
D02*
G37*
G36*
X1138929Y873980D02*
X1135270D01*
Y870321D01*
X1136855Y870977D01*
X1138273Y872395D01*
X1138929Y873980D01*
D02*
G37*
G36*
X1132730D02*
X1129071D01*
X1129727Y872395D01*
X1131145Y870977D01*
X1132730Y870321D01*
Y873980D01*
D02*
G37*
G36*
X1104929D02*
X1101270D01*
Y870321D01*
X1102855Y870977D01*
X1104273Y872395D01*
X1104929Y873980D01*
D02*
G37*
G36*
X1098730D02*
X1095071D01*
X1095727Y872395D01*
X1097145Y870977D01*
X1098730Y870321D01*
Y873980D01*
D02*
G37*
G36*
X1072929D02*
X1069270D01*
Y870321D01*
X1070855Y870977D01*
X1072273Y872395D01*
X1072929Y873980D01*
D02*
G37*
G36*
X1066730D02*
X1063071D01*
X1063727Y872395D01*
X1065145Y870977D01*
X1066730Y870321D01*
Y873980D01*
D02*
G37*
G36*
X463790Y872449D02*
Y868790D01*
X467449D01*
X466793Y870375D01*
X465375Y871793D01*
X463790Y872449D01*
D02*
G37*
G36*
X461250D02*
X459665Y871793D01*
X458247Y870375D01*
X457591Y868790D01*
X461250D01*
Y872449D01*
D02*
G37*
G36*
X527270Y872429D02*
Y868770D01*
X530929D01*
X530273Y870355D01*
X528855Y871773D01*
X527270Y872429D01*
D02*
G37*
G36*
X524730D02*
X523145Y871773D01*
X521727Y870355D01*
X521071Y868770D01*
X524730D01*
Y872429D01*
D02*
G37*
G36*
X1290382Y889500D02*
X1287618D01*
X1284947Y888784D01*
X1282553Y887402D01*
X1280598Y885447D01*
X1279216Y883053D01*
X1278500Y880382D01*
Y877618D01*
X1279216Y874947D01*
X1280598Y872553D01*
X1282553Y870598D01*
X1284947Y869216D01*
X1287618Y868500D01*
X1290382D01*
X1293053Y869216D01*
X1295447Y870598D01*
X1297402Y872553D01*
X1298784Y874947D01*
X1299500Y877618D01*
Y880382D01*
X1298784Y883053D01*
X1297402Y885447D01*
X1295447Y887402D01*
X1293053Y888784D01*
X1290382Y889500D01*
D02*
G37*
G36*
X1240601Y878230D02*
X1219270D01*
Y867899D01*
X1233500D01*
X1235338Y868141D01*
X1237050Y868851D01*
X1238521Y869979D01*
X1239649Y871450D01*
X1240359Y873162D01*
X1240601Y875000D01*
Y878230D01*
D02*
G37*
G36*
X1216730D02*
X1195399D01*
Y875000D01*
X1195641Y873162D01*
X1196351Y871450D01*
X1197479Y869979D01*
X1198950Y868851D01*
X1200662Y868141D01*
X1202500Y867899D01*
X1216730D01*
Y878230D01*
D02*
G37*
G36*
X590895Y872000D02*
X589105D01*
X587451Y871315D01*
X586185Y870049D01*
X585500Y868395D01*
Y866605D01*
X586185Y864951D01*
X587451Y863685D01*
X589105Y863000D01*
X590895D01*
X592549Y863685D01*
X593815Y864951D01*
X594500Y866605D01*
Y868395D01*
X593815Y870049D01*
X592549Y871315D01*
X590895Y872000D01*
D02*
G37*
G36*
X467449Y866250D02*
X463790D01*
Y862591D01*
X465375Y863247D01*
X466793Y864665D01*
X467449Y866250D01*
D02*
G37*
G36*
X461250D02*
X457591D01*
X458247Y864665D01*
X459665Y863247D01*
X461250Y862591D01*
Y866250D01*
D02*
G37*
G36*
X530929Y866230D02*
X527270D01*
Y862571D01*
X528855Y863227D01*
X530273Y864645D01*
X530929Y866230D01*
D02*
G37*
G36*
X524730D02*
X521071D01*
X521727Y864645D01*
X523145Y863227D01*
X524730Y862571D01*
Y866230D01*
D02*
G37*
G36*
X412270Y865929D02*
Y862270D01*
X415929D01*
X415273Y863855D01*
X413855Y865273D01*
X412270Y865929D01*
D02*
G37*
G36*
X409730D02*
X408145Y865273D01*
X406727Y863855D01*
X406071Y862270D01*
X409730D01*
Y865929D01*
D02*
G37*
G36*
X415929Y859730D02*
X412270D01*
Y856071D01*
X413855Y856727D01*
X415273Y858145D01*
X415929Y859730D01*
D02*
G37*
G36*
X409730D02*
X406071D01*
X406727Y858145D01*
X408145Y856727D01*
X409730Y856071D01*
Y859730D01*
D02*
G37*
G36*
X739409Y884500D02*
X735591D01*
X731903Y883512D01*
X728597Y881603D01*
X725897Y878903D01*
X723988Y875597D01*
X723000Y871909D01*
Y868091D01*
X723988Y864403D01*
X725897Y861097D01*
X728597Y858397D01*
X731903Y856488D01*
X735591Y855500D01*
X739409D01*
X743097Y856488D01*
X746403Y858397D01*
X749103Y861097D01*
X751012Y864403D01*
X752000Y868091D01*
Y871909D01*
X751012Y875597D01*
X749103Y878903D01*
X746403Y881603D01*
X743097Y883512D01*
X739409Y884500D01*
D02*
G37*
G36*
X664409D02*
X660591D01*
X656903Y883512D01*
X653597Y881603D01*
X650897Y878903D01*
X648988Y875597D01*
X648000Y871909D01*
Y868091D01*
X648988Y864403D01*
X650897Y861097D01*
X653597Y858397D01*
X656903Y856488D01*
X660591Y855500D01*
X664409D01*
X668097Y856488D01*
X671403Y858397D01*
X674103Y861097D01*
X676012Y864403D01*
X677000Y868091D01*
Y871909D01*
X676012Y875597D01*
X674103Y878903D01*
X671403Y881603D01*
X668097Y883512D01*
X664409Y884500D01*
D02*
G37*
G36*
X1174500Y874101D02*
X1171270D01*
Y852770D01*
X1181601D01*
Y867000D01*
X1181359Y868838D01*
X1180649Y870550D01*
X1179521Y872021D01*
X1178050Y873149D01*
X1176338Y873859D01*
X1174500Y874101D01*
D02*
G37*
G36*
X1168730D02*
X1165500D01*
X1163662Y873859D01*
X1161950Y873149D01*
X1160479Y872021D01*
X1159351Y870550D01*
X1158641Y868838D01*
X1158399Y867000D01*
Y852770D01*
X1168730D01*
Y874101D01*
D02*
G37*
G36*
X963270Y854929D02*
Y851270D01*
X966929D01*
X966273Y852855D01*
X964855Y854273D01*
X963270Y854929D01*
D02*
G37*
G36*
X960730D02*
X959145Y854273D01*
X957727Y852855D01*
X957071Y851270D01*
X960730D01*
Y854929D01*
D02*
G37*
G36*
X395789Y858790D02*
X395770D01*
Y850270D01*
X404290D01*
Y850289D01*
X403623Y852779D01*
X402334Y855011D01*
X400511Y856834D01*
X398279Y858123D01*
X395789Y858790D01*
D02*
G37*
G36*
X393230D02*
X393211D01*
X390721Y858123D01*
X388489Y856834D01*
X386666Y855011D01*
X385377Y852779D01*
X384710Y850289D01*
Y850270D01*
X393230D01*
Y858790D01*
D02*
G37*
G36*
X436770Y852679D02*
Y849020D01*
X440429D01*
X439773Y850605D01*
X438355Y852023D01*
X436770Y852679D01*
D02*
G37*
G36*
X434230D02*
X432645Y852023D01*
X431227Y850605D01*
X430571Y849020D01*
X434230D01*
Y852679D01*
D02*
G37*
G36*
X939895Y854500D02*
X938105D01*
X936451Y853815D01*
X935185Y852549D01*
X934500Y850895D01*
Y849105D01*
X935185Y847451D01*
X936451Y846185D01*
X938105Y845500D01*
X939895D01*
X941549Y846185D01*
X942815Y847451D01*
X943500Y849105D01*
Y850895D01*
X942815Y852549D01*
X941549Y853815D01*
X939895Y854500D01*
D02*
G37*
G36*
X927895D02*
X926105D01*
X924451Y853815D01*
X923185Y852549D01*
X922500Y850895D01*
Y849105D01*
X923185Y847451D01*
X924451Y846185D01*
X926105Y845500D01*
X927895D01*
X929549Y846185D01*
X930815Y847451D01*
X931500Y849105D01*
Y850895D01*
X930815Y852549D01*
X929549Y853815D01*
X927895Y854500D01*
D02*
G37*
G36*
X915895D02*
X914105D01*
X912451Y853815D01*
X911185Y852549D01*
X910500Y850895D01*
Y849105D01*
X911185Y847451D01*
X912451Y846185D01*
X914105Y845500D01*
X915895D01*
X917549Y846185D01*
X918815Y847451D01*
X919500Y849105D01*
Y850895D01*
X918815Y852549D01*
X917549Y853815D01*
X915895Y854500D01*
D02*
G37*
G36*
X966929Y848730D02*
X963270D01*
Y845071D01*
X964855Y845727D01*
X966273Y847145D01*
X966929Y848730D01*
D02*
G37*
G36*
X960730D02*
X957071D01*
X957727Y847145D01*
X959145Y845727D01*
X960730Y845071D01*
Y848730D01*
D02*
G37*
G36*
X440429Y846480D02*
X436770D01*
Y842821D01*
X438355Y843477D01*
X439773Y844895D01*
X440429Y846480D01*
D02*
G37*
G36*
X434230D02*
X430571D01*
X431227Y844895D01*
X432645Y843477D01*
X434230Y842821D01*
Y846480D01*
D02*
G37*
G36*
X1352322Y899500D02*
X1347678D01*
X1343092Y898774D01*
X1338676Y897339D01*
X1334539Y895231D01*
X1330782Y892501D01*
X1327499Y889218D01*
X1324769Y885461D01*
X1322661Y881324D01*
X1321226Y876908D01*
X1320500Y872322D01*
Y867678D01*
X1321226Y863092D01*
X1322661Y858676D01*
X1324769Y854539D01*
X1327499Y850782D01*
X1330782Y847499D01*
X1334539Y844769D01*
X1338676Y842661D01*
X1343092Y841226D01*
X1347678Y840500D01*
X1352322D01*
X1356908Y841226D01*
X1361324Y842661D01*
X1365461Y844769D01*
X1369218Y847499D01*
X1372501Y850782D01*
X1375231Y854539D01*
X1377339Y858676D01*
X1378774Y863092D01*
X1379500Y867678D01*
Y872322D01*
X1378774Y876908D01*
X1377339Y881324D01*
X1375231Y885461D01*
X1372501Y889218D01*
X1369218Y892501D01*
X1365461Y895231D01*
X1361324Y897339D01*
X1356908Y898774D01*
X1352322Y899500D01*
D02*
G37*
G36*
X377000Y853590D02*
X368770D01*
Y840270D01*
X379590D01*
Y851000D01*
X379393Y851991D01*
X378831Y852831D01*
X377991Y853393D01*
X377000Y853590D01*
D02*
G37*
G36*
X366230D02*
X358000D01*
X357009Y853393D01*
X356169Y852831D01*
X355607Y851991D01*
X355410Y851000D01*
X355410Y840270D01*
X366230D01*
Y853590D01*
D02*
G37*
G36*
X404290Y847730D02*
X395770D01*
Y839210D01*
X395789D01*
X398279Y839877D01*
X400511Y841166D01*
X402334Y842989D01*
X403623Y845221D01*
X404290Y847711D01*
Y847730D01*
D02*
G37*
G36*
X393230D02*
X384710D01*
Y847711D01*
X385377Y845221D01*
X386666Y842989D01*
X388489Y841166D01*
X390721Y839877D01*
X393211Y839210D01*
X393230D01*
Y847730D01*
D02*
G37*
G36*
X591270Y841929D02*
Y838270D01*
X594929D01*
X594273Y839855D01*
X592855Y841273D01*
X591270Y841929D01*
D02*
G37*
G36*
X588730D02*
X587145Y841273D01*
X585727Y839855D01*
X585071Y838270D01*
X588730D01*
Y841929D01*
D02*
G37*
G36*
X939895Y842500D02*
X938105D01*
X936451Y841815D01*
X935185Y840549D01*
X934500Y838895D01*
Y837105D01*
X935185Y835451D01*
X936451Y834185D01*
X938105Y833500D01*
X939895D01*
X941549Y834185D01*
X942815Y835451D01*
X943500Y837105D01*
Y838895D01*
X942815Y840549D01*
X941549Y841815D01*
X939895Y842500D01*
D02*
G37*
G36*
X927895D02*
X926105D01*
X924451Y841815D01*
X923185Y840549D01*
X922500Y838895D01*
Y837105D01*
X923185Y835451D01*
X924451Y834185D01*
X926105Y833500D01*
X927895D01*
X929549Y834185D01*
X930815Y835451D01*
X931500Y837105D01*
Y838895D01*
X930815Y840549D01*
X929549Y841815D01*
X927895Y842500D01*
D02*
G37*
G36*
X915895D02*
X914105D01*
X912451Y841815D01*
X911185Y840549D01*
X910500Y838895D01*
Y837105D01*
X911185Y835451D01*
X912451Y834185D01*
X914105Y833500D01*
X915895D01*
X917549Y834185D01*
X918815Y835451D01*
X919500Y837105D01*
Y838895D01*
X918815Y840549D01*
X917549Y841815D01*
X915895Y842500D01*
D02*
G37*
G36*
X594929Y835730D02*
X591270D01*
Y832071D01*
X592855Y832727D01*
X594273Y834145D01*
X594929Y835730D01*
D02*
G37*
G36*
X588730D02*
X585071D01*
X585727Y834145D01*
X587145Y832727D01*
X588730Y832071D01*
Y835730D01*
D02*
G37*
G36*
X379590Y837730D02*
X368770D01*
Y830410D01*
X372718D01*
X372968Y830460D01*
X373223D01*
X374141Y830643D01*
X374376Y830740D01*
X374627Y830790D01*
X375491Y831148D01*
X375703Y831290D01*
X375939Y831387D01*
X376717Y831907D01*
X376897Y832087D01*
X377109Y832229D01*
X377771Y832891D01*
X377912Y833103D01*
X378093Y833283D01*
X378613Y834061D01*
X378710Y834297D01*
X378852Y834509D01*
X379210Y835373D01*
X379260Y835624D01*
X379357Y835859D01*
X379540Y836777D01*
Y837032D01*
X379590Y837282D01*
Y837730D01*
D02*
G37*
G36*
X366230D02*
X355410D01*
Y837507D01*
X355460Y837257D01*
Y837002D01*
X355652Y836036D01*
X355750Y835801D01*
X355799Y835551D01*
X356176Y834641D01*
X356318Y834428D01*
X356416Y834193D01*
X356963Y833374D01*
X357143Y833194D01*
X357285Y832981D01*
X357981Y832285D01*
X358194Y832143D01*
X358374Y831963D01*
X359193Y831416D01*
X359428Y831318D01*
X359641Y831177D01*
X360550Y830800D01*
X360801Y830750D01*
X361036Y830652D01*
X362002Y830460D01*
X362257D01*
X362508Y830410D01*
X363000Y830410D01*
X363000Y830410D01*
X366230D01*
Y837730D01*
D02*
G37*
G36*
X1181601Y850230D02*
X1171270D01*
Y828899D01*
X1174500D01*
X1176338Y829141D01*
X1178050Y829851D01*
X1179521Y830979D01*
X1180649Y832450D01*
X1181359Y834162D01*
X1181601Y836000D01*
Y850230D01*
D02*
G37*
G36*
X1168730D02*
X1158399D01*
Y836000D01*
X1158641Y834162D01*
X1159351Y832450D01*
X1160479Y830979D01*
X1161950Y829851D01*
X1163662Y829141D01*
X1165500Y828899D01*
X1168730D01*
Y850230D01*
D02*
G37*
G36*
X443270Y831929D02*
Y828270D01*
X446929D01*
X446273Y829855D01*
X444855Y831273D01*
X443270Y831929D01*
D02*
G37*
G36*
X440730D02*
X439145Y831273D01*
X437727Y829855D01*
X437071Y828270D01*
X440730D01*
Y831929D01*
D02*
G37*
G36*
X500270Y830679D02*
Y827020D01*
X503929D01*
X503273Y828605D01*
X501855Y830023D01*
X500270Y830679D01*
D02*
G37*
G36*
X497730D02*
X496145Y830023D01*
X494727Y828605D01*
X494071Y827020D01*
X497730D01*
Y830679D01*
D02*
G37*
G36*
X939895Y830500D02*
X938105D01*
X936451Y829815D01*
X935185Y828549D01*
X934500Y826895D01*
Y825105D01*
X935185Y823451D01*
X936451Y822185D01*
X938105Y821500D01*
X939895D01*
X941549Y822185D01*
X942815Y823451D01*
X943500Y825105D01*
Y826895D01*
X942815Y828549D01*
X941549Y829815D01*
X939895Y830500D01*
D02*
G37*
G36*
X927895D02*
X926105D01*
X924451Y829815D01*
X923185Y828549D01*
X922500Y826895D01*
Y825105D01*
X923185Y823451D01*
X924451Y822185D01*
X926105Y821500D01*
X927895D01*
X929549Y822185D01*
X930815Y823451D01*
X931500Y825105D01*
Y826895D01*
X930815Y828549D01*
X929549Y829815D01*
X927895Y830500D01*
D02*
G37*
G36*
X915895D02*
X914105D01*
X912451Y829815D01*
X911185Y828549D01*
X910500Y826895D01*
Y825105D01*
X911185Y823451D01*
X912451Y822185D01*
X914105Y821500D01*
X915895D01*
X917549Y822185D01*
X918815Y823451D01*
X919500Y825105D01*
Y826895D01*
X918815Y828549D01*
X917549Y829815D01*
X915895Y830500D01*
D02*
G37*
G36*
X503929Y824480D02*
X500270D01*
Y820821D01*
X501855Y821477D01*
X503273Y822895D01*
X503929Y824480D01*
D02*
G37*
G36*
X497730D02*
X494071D01*
X494727Y822895D01*
X496145Y821477D01*
X497730Y820821D01*
Y824480D01*
D02*
G37*
G36*
X391520Y819929D02*
Y816270D01*
X395179D01*
X394523Y817855D01*
X393105Y819273D01*
X391520Y819929D01*
D02*
G37*
G36*
X388980D02*
X387395Y819273D01*
X385977Y817855D01*
X385321Y816270D01*
X388980D01*
Y819929D01*
D02*
G37*
G36*
X1233500Y832556D02*
X1202500D01*
X1200803Y832333D01*
X1199222Y831678D01*
X1197864Y830636D01*
X1196822Y829278D01*
X1196167Y827697D01*
X1195944Y826000D01*
Y817000D01*
X1196167Y815303D01*
X1196822Y813722D01*
X1197864Y812364D01*
X1199222Y811322D01*
X1200803Y810667D01*
X1202500Y810444D01*
X1233500D01*
X1235197Y810667D01*
X1236778Y811322D01*
X1238136Y812364D01*
X1239178Y813722D01*
X1239833Y815303D01*
X1240056Y817000D01*
Y826000D01*
X1239833Y827697D01*
X1239178Y829278D01*
X1238136Y830636D01*
X1236778Y831678D01*
X1235197Y832333D01*
X1233500Y832556D01*
D02*
G37*
G36*
X395179Y813730D02*
X391520D01*
Y810071D01*
X393105Y810727D01*
X394523Y812145D01*
X395179Y813730D01*
D02*
G37*
G36*
X388980D02*
X385321D01*
X385977Y812145D01*
X387395Y810727D01*
X388980Y810071D01*
Y813730D01*
D02*
G37*
G36*
X939895Y818500D02*
X938105D01*
X936451Y817815D01*
X935185Y816549D01*
X934500Y814895D01*
Y813105D01*
X935185Y811451D01*
X936451Y810185D01*
X938105Y809500D01*
X939895D01*
X941549Y810185D01*
X942815Y811451D01*
X943500Y813105D01*
Y814895D01*
X942815Y816549D01*
X941549Y817815D01*
X939895Y818500D01*
D02*
G37*
G36*
X927895D02*
X926105D01*
X924451Y817815D01*
X923185Y816549D01*
X922500Y814895D01*
Y813105D01*
X923185Y811451D01*
X924451Y810185D01*
X926105Y809500D01*
X927895D01*
X929549Y810185D01*
X930815Y811451D01*
X931500Y813105D01*
Y814895D01*
X930815Y816549D01*
X929549Y817815D01*
X927895Y818500D01*
D02*
G37*
G36*
X915895D02*
X914105D01*
X912451Y817815D01*
X911185Y816549D01*
X910500Y814895D01*
Y813105D01*
X911185Y811451D01*
X912451Y810185D01*
X914105Y809500D01*
X915895D01*
X917549Y810185D01*
X918815Y811451D01*
X919500Y813105D01*
Y814895D01*
X918815Y816549D01*
X917549Y817815D01*
X915895Y818500D01*
D02*
G37*
G36*
X622250Y860809D02*
X622250Y860809D01*
X430750D01*
X429579Y860576D01*
X428587Y859913D01*
X428587Y859913D01*
X400174Y831500D01*
X399105D01*
X397451Y830815D01*
X396185Y829549D01*
X395500Y827895D01*
Y826105D01*
X396185Y824451D01*
X397451Y823185D01*
X399105Y822500D01*
X400895D01*
X402549Y823185D01*
X403815Y824451D01*
X404500Y826105D01*
Y827174D01*
X432017Y854691D01*
X620983D01*
X665837Y809837D01*
X665837Y809837D01*
X666830Y809174D01*
X668000Y808941D01*
X668000Y808941D01*
X695267D01*
X695794Y807671D01*
X695727Y807605D01*
X695071Y806020D01*
X704929D01*
X704273Y807605D01*
X703121Y808757D01*
X703815Y809451D01*
X704500Y811105D01*
Y812895D01*
X703815Y814549D01*
X702549Y815815D01*
X700895Y816500D01*
X699105D01*
X697451Y815815D01*
X696695Y815059D01*
X669267D01*
X624413Y859913D01*
X623420Y860576D01*
X622250Y860809D01*
D02*
G37*
G36*
X595895Y810500D02*
X594105D01*
X592451Y809815D01*
X591185Y808549D01*
X590500Y806895D01*
Y805105D01*
X591185Y803451D01*
X592451Y802185D01*
X594105Y801500D01*
X595895D01*
X597549Y802185D01*
X598815Y803451D01*
X599500Y805105D01*
Y806895D01*
X598815Y808549D01*
X597549Y809815D01*
X595895Y810500D01*
D02*
G37*
G36*
X704929Y803480D02*
X701270D01*
Y799821D01*
X702855Y800477D01*
X704273Y801895D01*
X704929Y803480D01*
D02*
G37*
G36*
X698730D02*
X695071D01*
X695727Y801895D01*
X697145Y800477D01*
X698730Y799821D01*
Y803480D01*
D02*
G37*
G36*
X1083895Y806500D02*
X1082105D01*
X1080451Y805815D01*
X1079185Y804549D01*
X1078500Y802895D01*
Y801105D01*
X1079185Y799451D01*
X1080451Y798185D01*
X1082105Y797500D01*
X1083895D01*
X1085549Y798185D01*
X1086815Y799451D01*
X1087500Y801105D01*
Y802895D01*
X1086815Y804549D01*
X1085549Y805815D01*
X1083895Y806500D01*
D02*
G37*
G36*
X1071895D02*
X1070105D01*
X1068451Y805815D01*
X1067185Y804549D01*
X1066500Y802895D01*
Y801105D01*
X1067185Y799451D01*
X1068451Y798185D01*
X1070105Y797500D01*
X1071895D01*
X1073549Y798185D01*
X1074815Y799451D01*
X1075500Y801105D01*
Y802895D01*
X1074815Y804549D01*
X1073549Y805815D01*
X1071895Y806500D01*
D02*
G37*
G36*
X1059895D02*
X1058105D01*
X1056451Y805815D01*
X1055185Y804549D01*
X1054500Y802895D01*
Y801105D01*
X1055185Y799451D01*
X1056451Y798185D01*
X1058105Y797500D01*
X1059895D01*
X1061549Y798185D01*
X1062815Y799451D01*
X1063500Y801105D01*
Y802895D01*
X1062815Y804549D01*
X1061549Y805815D01*
X1059895Y806500D01*
D02*
G37*
G36*
X939895D02*
X938105D01*
X936451Y805815D01*
X935185Y804549D01*
X934500Y802895D01*
Y801105D01*
X935185Y799451D01*
X936451Y798185D01*
X938105Y797500D01*
X939895D01*
X941549Y798185D01*
X942815Y799451D01*
X943500Y801105D01*
Y802895D01*
X942815Y804549D01*
X941549Y805815D01*
X939895Y806500D01*
D02*
G37*
G36*
X927895D02*
X926105D01*
X924451Y805815D01*
X923185Y804549D01*
X922500Y802895D01*
Y801105D01*
X923185Y799451D01*
X924451Y798185D01*
X926105Y797500D01*
X927895D01*
X929549Y798185D01*
X930815Y799451D01*
X931500Y801105D01*
Y802895D01*
X930815Y804549D01*
X929549Y805815D01*
X927895Y806500D01*
D02*
G37*
G36*
X915895D02*
X914105D01*
X912451Y805815D01*
X911185Y804549D01*
X910500Y802895D01*
Y801105D01*
X911185Y799451D01*
X912451Y798185D01*
X914105Y797500D01*
X915895D01*
X917549Y798185D01*
X918815Y799451D01*
X919500Y801105D01*
Y802895D01*
X918815Y804549D01*
X917549Y805815D01*
X915895Y806500D01*
D02*
G37*
G36*
X1083895Y794500D02*
X1082105D01*
X1080451Y793815D01*
X1079185Y792549D01*
X1078500Y790895D01*
Y789105D01*
X1079185Y787451D01*
X1080451Y786185D01*
X1082105Y785500D01*
X1083895D01*
X1085549Y786185D01*
X1086815Y787451D01*
X1087500Y789105D01*
Y790895D01*
X1086815Y792549D01*
X1085549Y793815D01*
X1083895Y794500D01*
D02*
G37*
G36*
X1071895D02*
X1070105D01*
X1068451Y793815D01*
X1067185Y792549D01*
X1066500Y790895D01*
Y789105D01*
X1067185Y787451D01*
X1068451Y786185D01*
X1070105Y785500D01*
X1071895D01*
X1073549Y786185D01*
X1074815Y787451D01*
X1075500Y789105D01*
Y790895D01*
X1074815Y792549D01*
X1073549Y793815D01*
X1071895Y794500D01*
D02*
G37*
G36*
X1059895D02*
X1058105D01*
X1056451Y793815D01*
X1055185Y792549D01*
X1054500Y790895D01*
Y789105D01*
X1055185Y787451D01*
X1056451Y786185D01*
X1058105Y785500D01*
X1059895D01*
X1061549Y786185D01*
X1062815Y787451D01*
X1063500Y789105D01*
Y790895D01*
X1062815Y792549D01*
X1061549Y793815D01*
X1059895Y794500D01*
D02*
G37*
G36*
X939895D02*
X938105D01*
X936451Y793815D01*
X935185Y792549D01*
X934500Y790895D01*
Y789105D01*
X935185Y787451D01*
X936451Y786185D01*
X938105Y785500D01*
X939895D01*
X941549Y786185D01*
X942815Y787451D01*
X943500Y789105D01*
Y790895D01*
X942815Y792549D01*
X941549Y793815D01*
X939895Y794500D01*
D02*
G37*
G36*
X927895D02*
X926105D01*
X924451Y793815D01*
X923185Y792549D01*
X922500Y790895D01*
Y789105D01*
X923185Y787451D01*
X924451Y786185D01*
X926105Y785500D01*
X927895D01*
X929549Y786185D01*
X930815Y787451D01*
X931500Y789105D01*
Y790895D01*
X930815Y792549D01*
X929549Y793815D01*
X927895Y794500D01*
D02*
G37*
G36*
X915895D02*
X914105D01*
X912451Y793815D01*
X911185Y792549D01*
X910500Y790895D01*
Y789105D01*
X911185Y787451D01*
X912451Y786185D01*
X914105Y785500D01*
X915895D01*
X917549Y786185D01*
X918815Y787451D01*
X919500Y789105D01*
Y790895D01*
X918815Y792549D01*
X917549Y793815D01*
X915895Y794500D01*
D02*
G37*
G36*
X530270Y784929D02*
Y781270D01*
X533929D01*
X533273Y782855D01*
X531855Y784273D01*
X530270Y784929D01*
D02*
G37*
G36*
X527730D02*
X526145Y784273D01*
X524727Y782855D01*
X524071Y781270D01*
X527730D01*
Y784929D01*
D02*
G37*
G36*
X533929Y778730D02*
X530270D01*
Y775071D01*
X531855Y775727D01*
X533273Y777145D01*
X533929Y778730D01*
D02*
G37*
G36*
X527730D02*
X524071D01*
X524727Y777145D01*
X526145Y775727D01*
X527730Y775071D01*
Y778730D01*
D02*
G37*
G36*
X1083895Y782500D02*
X1082105D01*
X1080451Y781815D01*
X1079185Y780549D01*
X1078500Y778895D01*
Y777105D01*
X1079185Y775451D01*
X1080451Y774185D01*
X1082105Y773500D01*
X1083895D01*
X1085549Y774185D01*
X1086815Y775451D01*
X1087500Y777105D01*
Y778895D01*
X1086815Y780549D01*
X1085549Y781815D01*
X1083895Y782500D01*
D02*
G37*
G36*
X1071895D02*
X1070105D01*
X1068451Y781815D01*
X1067185Y780549D01*
X1066500Y778895D01*
Y777105D01*
X1067185Y775451D01*
X1068451Y774185D01*
X1070105Y773500D01*
X1071895D01*
X1073549Y774185D01*
X1074815Y775451D01*
X1075500Y777105D01*
Y778895D01*
X1074815Y780549D01*
X1073549Y781815D01*
X1071895Y782500D01*
D02*
G37*
G36*
X1059895D02*
X1058105D01*
X1056451Y781815D01*
X1055185Y780549D01*
X1054500Y778895D01*
Y777105D01*
X1055185Y775451D01*
X1056451Y774185D01*
X1058105Y773500D01*
X1059895D01*
X1061549Y774185D01*
X1062815Y775451D01*
X1063500Y777105D01*
Y778895D01*
X1062815Y780549D01*
X1061549Y781815D01*
X1059895Y782500D01*
D02*
G37*
G36*
X271230Y772179D02*
X269645Y771523D01*
X268227Y770105D01*
X267571Y768520D01*
X271230D01*
Y772179D01*
D02*
G37*
G36*
X459412Y853369D02*
X457622D01*
X455968Y852684D01*
X454702Y851418D01*
X454017Y849764D01*
Y847974D01*
X454702Y846320D01*
X455968Y845054D01*
X457622Y844369D01*
X459412D01*
X461066Y845054D01*
X461547Y845535D01*
X472748D01*
X473483Y844265D01*
X473071Y843270D01*
X478000D01*
Y840730D01*
X473071D01*
X473237Y840329D01*
X472388Y839059D01*
X469000D01*
X467830Y838826D01*
X466837Y838163D01*
X466837Y838163D01*
X452733Y824059D01*
X447612D01*
X446763Y825329D01*
X446929Y825730D01*
X437071D01*
X437237Y825329D01*
X436388Y824059D01*
X423027D01*
X422178Y825329D01*
X422500Y826105D01*
Y827895D01*
X421815Y829549D01*
X420549Y830815D01*
X418895Y831500D01*
X417105D01*
X415451Y830815D01*
X414185Y829549D01*
X413500Y827895D01*
Y826105D01*
X413821Y825329D01*
X412973Y824059D01*
X412000D01*
X410830Y823826D01*
X409837Y823163D01*
X365837Y779163D01*
X365174Y778171D01*
X364941Y777000D01*
X364941Y777000D01*
Y775969D01*
X363671Y775443D01*
X363049Y776065D01*
X361395Y776750D01*
X359605D01*
X357951Y776065D01*
X356685Y774799D01*
X356603Y774602D01*
X355616Y773942D01*
X310674Y729000D01*
X309605D01*
X307951Y728315D01*
X306685Y727049D01*
X306000Y725395D01*
Y723605D01*
X306685Y721951D01*
X307951Y720685D01*
X309605Y720000D01*
X311395D01*
X313049Y720685D01*
X314315Y721951D01*
X315000Y723605D01*
Y724674D01*
X358524Y768198D01*
X359605Y767750D01*
X361395D01*
X363049Y768435D01*
X363671Y769057D01*
X364941Y768531D01*
Y668500D01*
X364941Y668500D01*
X365174Y667329D01*
X365837Y666337D01*
X376404Y655770D01*
X375878Y654500D01*
X375105D01*
X373451Y653815D01*
X372695Y653059D01*
X298750D01*
X297579Y652826D01*
X296587Y652163D01*
X296587Y652163D01*
X289837Y645413D01*
X289174Y644420D01*
X288941Y643250D01*
X288941Y643250D01*
Y542305D01*
X288185Y541549D01*
X287500Y539895D01*
Y538105D01*
X288185Y536451D01*
X289451Y535185D01*
X291105Y534500D01*
X292895D01*
X294549Y535185D01*
X295815Y536451D01*
X296500Y538105D01*
Y539895D01*
X295815Y541549D01*
X295059Y542305D01*
Y641983D01*
X300017Y646941D01*
X372695D01*
X373451Y646185D01*
X375105Y645500D01*
X376895D01*
X378549Y646185D01*
X379815Y647451D01*
X380500Y649105D01*
Y649878D01*
X381770Y650404D01*
X387337Y644837D01*
X388330Y644174D01*
X389500Y643941D01*
X389500Y643941D01*
X422233D01*
X432941Y633233D01*
Y588055D01*
X432185Y587299D01*
X431500Y585645D01*
Y583855D01*
X430956Y583040D01*
X429997D01*
X428145Y582273D01*
X426727Y580855D01*
X426071Y579270D01*
X431000D01*
Y578000D01*
X432270D01*
Y573071D01*
X433855Y573727D01*
X435273Y575145D01*
X435501Y575697D01*
X436876D01*
X437185Y574951D01*
X438451Y573685D01*
X440105Y573000D01*
X441895D01*
X443549Y573685D01*
X444815Y574951D01*
X445124Y575697D01*
X446499D01*
X446727Y575145D01*
X448145Y573727D01*
X449730Y573071D01*
Y578000D01*
X451000D01*
Y579270D01*
X455929D01*
X455273Y580855D01*
X453855Y582273D01*
X452002Y583040D01*
X451045D01*
X450500Y583855D01*
Y585645D01*
X449815Y587299D01*
X449059Y588055D01*
Y641500D01*
X448826Y642671D01*
X448163Y643663D01*
X448163Y643663D01*
X431155Y660671D01*
X431681Y661941D01*
X435878D01*
X469750Y628069D01*
Y627000D01*
X470435Y625346D01*
X471701Y624080D01*
X472547Y623730D01*
Y622355D01*
X472451Y622315D01*
X471185Y621049D01*
X470500Y619395D01*
Y617605D01*
X471185Y615951D01*
X472451Y614685D01*
X474105Y614000D01*
X475895D01*
X477549Y614685D01*
X478770Y615906D01*
X479828Y616613D01*
X499108Y635892D01*
X499129Y635925D01*
X500399Y635540D01*
Y629305D01*
X499643Y628549D01*
X499524Y628262D01*
X497869Y627585D01*
X497433Y627766D01*
Y622837D01*
Y617908D01*
X499018Y618564D01*
X500436Y619982D01*
X501203Y621835D01*
X501414Y621976D01*
X502563Y621500D01*
X504126D01*
X504564Y621264D01*
X505250Y620497D01*
Y619105D01*
X505935Y617451D01*
X507201Y616185D01*
X508855Y615500D01*
X510645D01*
X512299Y616185D01*
X513565Y617451D01*
X514250Y619105D01*
Y620480D01*
X514884Y621236D01*
X515374Y621500D01*
X516895D01*
X518044Y621976D01*
X518255Y621835D01*
X519022Y619982D01*
X520440Y618564D01*
X522025Y617908D01*
Y622837D01*
Y627766D01*
X521589Y627585D01*
X519934Y628262D01*
X519815Y628549D01*
X519059Y629305D01*
Y639525D01*
X519138Y639557D01*
X520329Y639736D01*
X520892Y638893D01*
X536000Y623785D01*
Y623105D01*
X536685Y621451D01*
X537951Y620185D01*
X539605Y619500D01*
X541395D01*
X543049Y620185D01*
X544315Y621451D01*
X545000Y623105D01*
Y624895D01*
X544315Y626549D01*
X543049Y627815D01*
X541395Y628500D01*
X540715D01*
X526584Y642631D01*
Y664720D01*
X527065Y665201D01*
X527750Y666855D01*
Y668645D01*
X527065Y670299D01*
X525799Y671565D01*
X524145Y672250D01*
X522355D01*
X520701Y671565D01*
X520329Y671193D01*
X519059Y671719D01*
Y770695D01*
X519815Y771451D01*
X520500Y773105D01*
Y774895D01*
X519815Y776549D01*
X519052Y777312D01*
X518671Y778094D01*
X519052Y778971D01*
X519774Y779693D01*
X520459Y781347D01*
Y782003D01*
X525398Y786941D01*
X551983D01*
X600587Y738337D01*
X600587Y738337D01*
X601580Y737674D01*
X602750Y737441D01*
X689483D01*
X725191Y701733D01*
Y664000D01*
X725191Y664000D01*
X725424Y662830D01*
X726087Y661837D01*
X755864Y632060D01*
X755672Y630790D01*
X754498D01*
X752645Y630023D01*
X751227Y628605D01*
X750571Y627020D01*
X761034D01*
X761663Y627361D01*
X763049Y627935D01*
X764315Y629201D01*
X765000Y630855D01*
Y631309D01*
X766270Y632158D01*
X766480Y632071D01*
Y637000D01*
Y641929D01*
X764895Y641273D01*
X763477Y639855D01*
X762710Y638003D01*
Y637080D01*
X761440Y636231D01*
X761395Y636250D01*
X760326D01*
X731309Y665267D01*
Y703000D01*
X731309Y703000D01*
X731076Y704171D01*
X730413Y705163D01*
X730413Y705163D01*
X692913Y742663D01*
X691920Y743326D01*
X690750Y743559D01*
X690750Y743559D01*
X604017D01*
X555413Y792163D01*
X554421Y792826D01*
X553250Y793059D01*
X553250Y793059D01*
X524131D01*
X524131Y793059D01*
X522960Y792826D01*
X521968Y792163D01*
X516547Y786742D01*
X515379D01*
X515064Y786742D01*
X514206Y787761D01*
Y788185D01*
X513521Y789839D01*
X512255Y791105D01*
X510601Y791790D01*
X509131D01*
X508811Y791790D01*
X507958Y792812D01*
Y793299D01*
X507273Y794953D01*
X506007Y796219D01*
X504353Y796904D01*
X502563D01*
X500909Y796219D01*
X499643Y794953D01*
X498958Y793299D01*
Y791509D01*
X499643Y789855D01*
X500399Y789099D01*
Y683710D01*
X499129Y683325D01*
X499108Y683357D01*
X496584Y685881D01*
Y732470D01*
X497065Y732951D01*
X497750Y734605D01*
Y736395D01*
X497065Y738049D01*
X495799Y739315D01*
X494145Y740000D01*
X492355D01*
X490701Y739315D01*
X489435Y738049D01*
X488750Y736395D01*
Y734605D01*
X489435Y732951D01*
X489916Y732470D01*
Y684500D01*
X490170Y683224D01*
X490892Y682142D01*
X493416Y679619D01*
Y639631D01*
X479658Y625873D01*
X478581Y626592D01*
X478750Y627000D01*
Y628790D01*
X478065Y630444D01*
X476799Y631710D01*
X475145Y632395D01*
X474076D01*
X439308Y667163D01*
X438316Y667826D01*
X437145Y668059D01*
X437145Y668059D01*
X398267D01*
X389059Y677267D01*
Y722733D01*
X413805Y747479D01*
X413805Y747479D01*
X414468Y748471D01*
X414701Y749642D01*
X414701Y749642D01*
Y764145D01*
X415457Y764901D01*
X416142Y766555D01*
Y768345D01*
X415457Y769999D01*
X414191Y771265D01*
X412537Y771950D01*
X410747D01*
X409093Y771265D01*
X407827Y769999D01*
X407142Y768345D01*
Y766555D01*
X407827Y764901D01*
X408583Y764145D01*
Y750909D01*
X407526Y749852D01*
X406449Y750571D01*
X406929Y751730D01*
X403270D01*
Y748071D01*
X404429Y748551D01*
X405149Y747474D01*
X384329Y726655D01*
X383059Y727181D01*
Y770733D01*
X410737Y798411D01*
X412000Y797878D01*
Y796605D01*
X412685Y794951D01*
X413951Y793685D01*
X415605Y793000D01*
X417395D01*
X419049Y793685D01*
X420315Y794951D01*
X421000Y796605D01*
Y797674D01*
X422517Y799191D01*
X559983D01*
X598837Y760337D01*
X599829Y759674D01*
X601000Y759441D01*
X643250D01*
X643250Y759441D01*
X644420Y759674D01*
X645413Y760337D01*
X669576Y784500D01*
X670645D01*
X672299Y785185D01*
X673565Y786451D01*
X674250Y788105D01*
Y789895D01*
X673565Y791549D01*
X672299Y792815D01*
X670645Y793500D01*
X668855D01*
X667201Y792815D01*
X665935Y791549D01*
X665250Y789895D01*
Y788826D01*
X641983Y765559D01*
X602267D01*
X563413Y804413D01*
X562421Y805076D01*
X561250Y805309D01*
X561250Y805309D01*
X518832D01*
X518551Y805903D01*
X518443Y806579D01*
X519565Y807701D01*
X520250Y809355D01*
Y811145D01*
X519565Y812799D01*
X518299Y814065D01*
X516645Y814750D01*
X514855D01*
X513201Y814065D01*
X511935Y812799D01*
X511250Y811145D01*
Y809355D01*
X511935Y807701D01*
X513057Y806579D01*
X512949Y805903D01*
X512668Y805309D01*
X466912D01*
X466526Y806579D01*
X466913Y806837D01*
X478326Y818250D01*
X479395D01*
X481049Y818935D01*
X482315Y820201D01*
X482827Y821436D01*
X484173D01*
X484685Y820201D01*
X485951Y818935D01*
X487605Y818250D01*
X489395D01*
X491049Y818935D01*
X492315Y820201D01*
X493000Y821855D01*
Y823645D01*
X492315Y825299D01*
X491641Y825973D01*
Y830026D01*
X492963Y830789D01*
X494266Y832092D01*
X495187Y833688D01*
X495664Y835468D01*
Y837311D01*
X495187Y839092D01*
X494266Y840688D01*
X492963Y841991D01*
X491367Y842913D01*
X489586Y843390D01*
X487743D01*
X485963Y842913D01*
X484366Y841991D01*
X484310Y841935D01*
X483040Y842461D01*
Y843002D01*
X482517Y844265D01*
X483252Y845535D01*
X591750D01*
X604166Y833119D01*
Y775030D01*
X603685Y774549D01*
X603000Y772895D01*
Y771105D01*
X603685Y769451D01*
X604951Y768185D01*
X606605Y767500D01*
X608395D01*
X610049Y768185D01*
X611315Y769451D01*
X612000Y771105D01*
Y772895D01*
X611315Y774549D01*
X610834Y775030D01*
Y834500D01*
X610580Y835776D01*
X609857Y836858D01*
X595488Y851227D01*
X594407Y851949D01*
X593131Y852203D01*
X461547D01*
X461066Y852684D01*
X459412Y853369D01*
D02*
G37*
G36*
X271230Y765980D02*
X267571D01*
X268227Y764395D01*
X269645Y762977D01*
X271230Y762321D01*
Y765980D01*
D02*
G37*
G36*
X1192270Y761929D02*
Y758270D01*
X1195929D01*
X1195273Y759855D01*
X1193855Y761273D01*
X1192270Y761929D01*
D02*
G37*
G36*
X1189730D02*
X1188145Y761273D01*
X1186727Y759855D01*
X1186071Y758270D01*
X1189730D01*
Y761929D01*
D02*
G37*
G36*
X1053270Y760929D02*
Y757270D01*
X1056929D01*
X1056273Y758855D01*
X1054855Y760273D01*
X1053270Y760929D01*
D02*
G37*
G36*
X1050730D02*
X1049145Y760273D01*
X1047727Y758855D01*
X1047071Y757270D01*
X1050730D01*
Y760929D01*
D02*
G37*
G36*
X1031270D02*
Y757270D01*
X1034929D01*
X1034273Y758855D01*
X1032855Y760273D01*
X1031270Y760929D01*
D02*
G37*
G36*
X1028730D02*
X1027145Y760273D01*
X1025727Y758855D01*
X1025071Y757270D01*
X1028730D01*
Y760929D01*
D02*
G37*
G36*
X403270Y757929D02*
Y754270D01*
X406929D01*
X406273Y755855D01*
X404855Y757273D01*
X403270Y757929D01*
D02*
G37*
G36*
X400730D02*
X399145Y757273D01*
X397727Y755855D01*
X397071Y754270D01*
X400730D01*
Y757929D01*
D02*
G37*
G36*
X1195929Y755730D02*
X1192270D01*
Y752071D01*
X1193855Y752727D01*
X1195273Y754145D01*
X1195929Y755730D01*
D02*
G37*
G36*
X1189730D02*
X1186071D01*
X1186727Y754145D01*
X1188145Y752727D01*
X1189730Y752071D01*
Y755730D01*
D02*
G37*
G36*
X1056929Y754730D02*
X1053270D01*
Y751071D01*
X1054855Y751727D01*
X1056273Y753145D01*
X1056929Y754730D01*
D02*
G37*
G36*
X1050730D02*
X1047071D01*
X1047727Y753145D01*
X1049145Y751727D01*
X1050730Y751071D01*
Y754730D01*
D02*
G37*
G36*
X1034929D02*
X1031270D01*
Y751071D01*
X1032855Y751727D01*
X1034273Y753145D01*
X1034929Y754730D01*
D02*
G37*
G36*
X1028730D02*
X1025071D01*
X1025727Y753145D01*
X1027145Y751727D01*
X1028730Y751071D01*
Y754730D01*
D02*
G37*
G36*
X52322Y809500D02*
X47678D01*
X43092Y808774D01*
X38676Y807339D01*
X34539Y805231D01*
X30782Y802501D01*
X27499Y799218D01*
X24769Y795461D01*
X22661Y791324D01*
X21226Y786908D01*
X20500Y782322D01*
Y777678D01*
X21226Y773092D01*
X22661Y768676D01*
X24769Y764539D01*
X27499Y760782D01*
X30782Y757499D01*
X34539Y754769D01*
X38676Y752661D01*
X43092Y751226D01*
X47678Y750500D01*
X52322D01*
X56908Y751226D01*
X61324Y752661D01*
X65461Y754769D01*
X69218Y757499D01*
X72501Y760782D01*
X75231Y764539D01*
X77339Y768676D01*
X78774Y773092D01*
X79500Y777678D01*
Y782322D01*
X78774Y786908D01*
X77339Y791324D01*
X75231Y795461D01*
X72501Y799218D01*
X69218Y802501D01*
X65461Y805231D01*
X61324Y807339D01*
X56908Y808774D01*
X52322Y809500D01*
D02*
G37*
G36*
X400730Y751730D02*
X397071D01*
X397727Y750145D01*
X399145Y748727D01*
X400730Y748071D01*
Y751730D01*
D02*
G37*
G36*
X804270Y747929D02*
Y744270D01*
X807929D01*
X807273Y745855D01*
X805855Y747273D01*
X804270Y747929D01*
D02*
G37*
G36*
X801730D02*
X800145Y747273D01*
X798727Y745855D01*
X798071Y744270D01*
X801730D01*
Y747929D01*
D02*
G37*
G36*
X775270D02*
Y744270D01*
X778929D01*
X778273Y745855D01*
X776855Y747273D01*
X775270Y747929D01*
D02*
G37*
G36*
X772730D02*
X771145Y747273D01*
X769727Y745855D01*
X769071Y744270D01*
X772730D01*
Y747929D01*
D02*
G37*
G36*
X807929Y741730D02*
X804270D01*
Y738071D01*
X805855Y738727D01*
X807273Y740145D01*
X807929Y741730D01*
D02*
G37*
G36*
X801730D02*
X798071D01*
X798727Y740145D01*
X800145Y738727D01*
X801730Y738071D01*
Y741730D01*
D02*
G37*
G36*
X778929D02*
X775270D01*
Y738071D01*
X776855Y738727D01*
X778273Y740145D01*
X778929Y741730D01*
D02*
G37*
G36*
X772730D02*
X769071D01*
X769727Y740145D01*
X771145Y738727D01*
X772730Y738071D01*
Y741730D01*
D02*
G37*
G36*
X450020Y741679D02*
Y738020D01*
X453679D01*
X453023Y739605D01*
X451605Y741023D01*
X450020Y741679D01*
D02*
G37*
G36*
X465270Y740929D02*
Y737270D01*
X468929D01*
X468273Y738855D01*
X466855Y740273D01*
X465270Y740929D01*
D02*
G37*
G36*
X462730D02*
X461145Y740273D01*
X459727Y738855D01*
X459071Y737270D01*
X462730D01*
Y740929D01*
D02*
G37*
G36*
X1033895Y742500D02*
X1032105D01*
X1030451Y741815D01*
X1029185Y740549D01*
X1028500Y738895D01*
Y737105D01*
X1029185Y735451D01*
X1030451Y734185D01*
X1032105Y733500D01*
X1033895D01*
X1035549Y734185D01*
X1036815Y735451D01*
X1037500Y737105D01*
Y738895D01*
X1036815Y740549D01*
X1035549Y741815D01*
X1033895Y742500D01*
D02*
G37*
G36*
X1021895D02*
X1020105D01*
X1018451Y741815D01*
X1017185Y740549D01*
X1016500Y738895D01*
Y737105D01*
X1017185Y735451D01*
X1018451Y734185D01*
X1020105Y733500D01*
X1021895D01*
X1023549Y734185D01*
X1024815Y735451D01*
X1025500Y737105D01*
Y738895D01*
X1024815Y740549D01*
X1023549Y741815D01*
X1021895Y742500D01*
D02*
G37*
G36*
X1009895D02*
X1008105D01*
X1006451Y741815D01*
X1005185Y740549D01*
X1004500Y738895D01*
Y737105D01*
X1005185Y735451D01*
X1006451Y734185D01*
X1008105Y733500D01*
X1009895D01*
X1011549Y734185D01*
X1012815Y735451D01*
X1013500Y737105D01*
Y738895D01*
X1012815Y740549D01*
X1011549Y741815D01*
X1009895Y742500D01*
D02*
G37*
G36*
X414895Y741500D02*
X413105D01*
X411451Y740815D01*
X410185Y739549D01*
X409500Y737895D01*
Y736105D01*
X410185Y734451D01*
X411451Y733185D01*
X413105Y732500D01*
X414895D01*
X416549Y733185D01*
X417815Y734451D01*
X418500Y736105D01*
Y737895D01*
X417815Y739549D01*
X416549Y740815D01*
X414895Y741500D01*
D02*
G37*
G36*
X476145Y739750D02*
X474355D01*
X472701Y739065D01*
X471435Y737799D01*
X470750Y736145D01*
Y734355D01*
X471435Y732701D01*
X472701Y731435D01*
X474355Y730750D01*
X476145D01*
X477799Y731435D01*
X479065Y732701D01*
X479750Y734355D01*
Y736145D01*
X479065Y737799D01*
X477799Y739065D01*
X476145Y739750D01*
D02*
G37*
G36*
X355895Y740500D02*
X354105D01*
X352451Y739815D01*
X351185Y738549D01*
X350500Y736895D01*
Y735105D01*
X350698Y734626D01*
X350391Y734147D01*
X350270Y734028D01*
Y729770D01*
X353929D01*
X353699Y730327D01*
X353774Y730544D01*
X354587Y731500D01*
X355895D01*
X357549Y732185D01*
X358815Y733451D01*
X359500Y735105D01*
Y736895D01*
X358815Y738549D01*
X357549Y739815D01*
X355895Y740500D01*
D02*
G37*
G36*
X343895D02*
X342105D01*
X340451Y739815D01*
X339185Y738549D01*
X338500Y736895D01*
Y735105D01*
X339185Y733451D01*
X340451Y732185D01*
X342105Y731500D01*
X343413D01*
X344226Y730544D01*
X344301Y730327D01*
X344071Y729770D01*
X347730D01*
Y734028D01*
X347609Y734147D01*
X347302Y734626D01*
X347500Y735105D01*
Y736895D01*
X346815Y738549D01*
X345549Y739815D01*
X343895Y740500D01*
D02*
G37*
G36*
X846520Y729679D02*
Y726020D01*
X850179D01*
X849523Y727605D01*
X848105Y729023D01*
X846520Y729679D01*
D02*
G37*
G36*
X843980D02*
X842395Y729023D01*
X840977Y727605D01*
X840321Y726020D01*
X843980D01*
Y729679D01*
D02*
G37*
G36*
X353929Y727230D02*
X350270D01*
Y723571D01*
X351855Y724227D01*
X353273Y725645D01*
X353929Y727230D01*
D02*
G37*
G36*
X347730D02*
X344071D01*
X344727Y725645D01*
X346145Y724227D01*
X347730Y723571D01*
Y727230D01*
D02*
G37*
G36*
X1033895Y730500D02*
X1032105D01*
X1030451Y729815D01*
X1029185Y728549D01*
X1028500Y726895D01*
Y725105D01*
X1029185Y723451D01*
X1030451Y722185D01*
X1032105Y721500D01*
X1033895D01*
X1035549Y722185D01*
X1036815Y723451D01*
X1037500Y725105D01*
Y726895D01*
X1036815Y728549D01*
X1035549Y729815D01*
X1033895Y730500D01*
D02*
G37*
G36*
X1021895D02*
X1020105D01*
X1018451Y729815D01*
X1017185Y728549D01*
X1016500Y726895D01*
Y725105D01*
X1017185Y723451D01*
X1018451Y722185D01*
X1020105Y721500D01*
X1021895D01*
X1023549Y722185D01*
X1024815Y723451D01*
X1025500Y725105D01*
Y726895D01*
X1024815Y728549D01*
X1023549Y729815D01*
X1021895Y730500D01*
D02*
G37*
G36*
X1009895D02*
X1008105D01*
X1006451Y729815D01*
X1005185Y728549D01*
X1004500Y726895D01*
Y725105D01*
X1005185Y723451D01*
X1006451Y722185D01*
X1008105Y721500D01*
X1009895D01*
X1011549Y722185D01*
X1012815Y723451D01*
X1013500Y725105D01*
Y726895D01*
X1012815Y728549D01*
X1011549Y729815D01*
X1009895Y730500D01*
D02*
G37*
G36*
X749770Y724929D02*
Y721270D01*
X753429D01*
X752773Y722855D01*
X751355Y724273D01*
X749770Y724929D01*
D02*
G37*
G36*
X747230D02*
X745645Y724273D01*
X744227Y722855D01*
X743571Y721270D01*
X747230D01*
Y724929D01*
D02*
G37*
G36*
X850179Y723480D02*
X846520D01*
Y719821D01*
X848105Y720477D01*
X849523Y721895D01*
X850179Y723480D01*
D02*
G37*
G36*
X843980D02*
X840321D01*
X840977Y721895D01*
X842395Y720477D01*
X843980Y719821D01*
Y723480D01*
D02*
G37*
G36*
X424730Y720929D02*
X423145Y720273D01*
X422000Y719128D01*
X420855Y720273D01*
X419270Y720929D01*
Y716000D01*
X418000D01*
Y714730D01*
X413071D01*
X413451Y713813D01*
X412145Y713273D01*
X410727Y711855D01*
X410319Y710869D01*
X409270Y710209D01*
Y705000D01*
X408000D01*
Y703730D01*
X403071D01*
X403727Y702145D01*
X404872Y701000D01*
X403727Y699855D01*
X403071Y698270D01*
X412929D01*
X412273Y699855D01*
X411128Y701000D01*
X412273Y702145D01*
X412681Y703131D01*
X413730Y703792D01*
Y709000D01*
X415000D01*
Y710270D01*
X419929D01*
X419549Y711187D01*
X420855Y711727D01*
X422000Y712872D01*
X423145Y711727D01*
X424730Y711071D01*
Y716000D01*
Y720929D01*
D02*
G37*
G36*
X416730D02*
X415145Y720273D01*
X413727Y718855D01*
X413071Y717270D01*
X416730D01*
Y720929D01*
D02*
G37*
G36*
X1079270Y720929D02*
Y717270D01*
X1082929D01*
X1082273Y718855D01*
X1080855Y720273D01*
X1079270Y720929D01*
D02*
G37*
G36*
X1076730D02*
X1075145Y720273D01*
X1073727Y718855D01*
X1073071Y717270D01*
X1076730D01*
Y720929D01*
D02*
G37*
G36*
X1067270D02*
Y717270D01*
X1070929D01*
X1070273Y718855D01*
X1068855Y720273D01*
X1067270Y720929D01*
D02*
G37*
G36*
X1064730D02*
X1063145Y720273D01*
X1061727Y718855D01*
X1061071Y717270D01*
X1064730D01*
Y720929D01*
D02*
G37*
G36*
X1055270D02*
Y717270D01*
X1058929D01*
X1058273Y718855D01*
X1056855Y720273D01*
X1055270Y720929D01*
D02*
G37*
G36*
X1052730D02*
X1051145Y720273D01*
X1049727Y718855D01*
X1049071Y717270D01*
X1052730D01*
Y720929D01*
D02*
G37*
G36*
X447480Y741679D02*
X445895Y741023D01*
X444477Y739605D01*
X443710Y737753D01*
Y736290D01*
X442497D01*
X440645Y735523D01*
X439227Y734105D01*
X438460Y732253D01*
Y731040D01*
X437248D01*
X435395Y730273D01*
X433977Y728855D01*
X433210Y727002D01*
Y726040D01*
X431997D01*
X430145Y725273D01*
X428727Y723855D01*
X427960Y722002D01*
Y721680D01*
X427270Y721219D01*
Y716000D01*
Y711071D01*
X428855Y711727D01*
X430273Y713145D01*
X431040Y714997D01*
Y715320D01*
X431730Y715781D01*
Y721000D01*
X434270D01*
Y716071D01*
X435855Y716727D01*
X437273Y718145D01*
X438040Y719997D01*
Y720960D01*
X439253D01*
X441105Y721727D01*
X442523Y723145D01*
X443290Y724997D01*
Y726210D01*
X444502D01*
X446355Y726977D01*
X447773Y728395D01*
X448540Y730247D01*
Y731710D01*
X449753D01*
X451605Y732477D01*
X453023Y733895D01*
X453679Y735480D01*
X448750D01*
Y736750D01*
X447480D01*
Y741679D01*
D02*
G37*
G36*
X753429Y718730D02*
X749770D01*
Y715071D01*
X751355Y715727D01*
X752773Y717145D01*
X753429Y718730D01*
D02*
G37*
G36*
X747230D02*
X743571D01*
X744227Y717145D01*
X745645Y715727D01*
X747230Y715071D01*
Y718730D01*
D02*
G37*
G36*
X480520Y716929D02*
Y713270D01*
X484179D01*
X483523Y714855D01*
X482105Y716273D01*
X480520Y716929D01*
D02*
G37*
G36*
X477980D02*
X476395Y716273D01*
X474977Y714855D01*
X474321Y713270D01*
X477980D01*
Y716929D01*
D02*
G37*
G36*
X1082929Y714730D02*
X1079270D01*
Y711071D01*
X1080855Y711727D01*
X1082273Y713145D01*
X1082929Y714730D01*
D02*
G37*
G36*
X1076730D02*
X1073071D01*
X1073727Y713145D01*
X1075145Y711727D01*
X1076730Y711071D01*
Y714730D01*
D02*
G37*
G36*
X1070929D02*
X1067270D01*
Y711071D01*
X1068855Y711727D01*
X1070273Y713145D01*
X1070929Y714730D01*
D02*
G37*
G36*
X1064730D02*
X1061071D01*
X1061727Y713145D01*
X1063145Y711727D01*
X1064730Y711071D01*
Y714730D01*
D02*
G37*
G36*
X1058929D02*
X1055270D01*
Y711071D01*
X1056855Y711727D01*
X1058273Y713145D01*
X1058929Y714730D01*
D02*
G37*
G36*
X1052730D02*
X1049071D01*
X1049727Y713145D01*
X1051145Y711727D01*
X1052730Y711071D01*
Y714730D01*
D02*
G37*
G36*
X452730Y713730D02*
X449071D01*
X449727Y712145D01*
X451145Y710727D01*
X452730Y710071D01*
Y713730D01*
D02*
G37*
G36*
X1033895Y718500D02*
X1032105D01*
X1030451Y717815D01*
X1029185Y716549D01*
X1028500Y714895D01*
Y713105D01*
X1029185Y711451D01*
X1030451Y710185D01*
X1032105Y709500D01*
X1033895D01*
X1035549Y710185D01*
X1036815Y711451D01*
X1037500Y713105D01*
Y714895D01*
X1036815Y716549D01*
X1035549Y717815D01*
X1033895Y718500D01*
D02*
G37*
G36*
X1021895D02*
X1020105D01*
X1018451Y717815D01*
X1017185Y716549D01*
X1016500Y714895D01*
Y713105D01*
X1017185Y711451D01*
X1018451Y710185D01*
X1020105Y709500D01*
X1021895D01*
X1023549Y710185D01*
X1024815Y711451D01*
X1025500Y713105D01*
Y714895D01*
X1024815Y716549D01*
X1023549Y717815D01*
X1021895Y718500D01*
D02*
G37*
G36*
X1009895D02*
X1008105D01*
X1006451Y717815D01*
X1005185Y716549D01*
X1004500Y714895D01*
Y713105D01*
X1005185Y711451D01*
X1006451Y710185D01*
X1008105Y709500D01*
X1009895D01*
X1011549Y710185D01*
X1012815Y711451D01*
X1013500Y713105D01*
Y714895D01*
X1012815Y716549D01*
X1011549Y717815D01*
X1009895Y718500D01*
D02*
G37*
G36*
X484179Y710730D02*
X480520D01*
Y707071D01*
X482105Y707727D01*
X483523Y709145D01*
X484179Y710730D01*
D02*
G37*
G36*
X477980D02*
X474321D01*
X474977Y709145D01*
X476395Y707727D01*
X477980Y707071D01*
Y710730D01*
D02*
G37*
G36*
X469270Y709929D02*
Y706270D01*
X472929D01*
X472273Y707855D01*
X470855Y709273D01*
X469270Y709929D01*
D02*
G37*
G36*
X406730D02*
X405145Y709273D01*
X403727Y707855D01*
X403071Y706270D01*
X406730D01*
Y709929D01*
D02*
G37*
G36*
X1079270Y708929D02*
Y705270D01*
X1082929D01*
X1082273Y706855D01*
X1080855Y708273D01*
X1079270Y708929D01*
D02*
G37*
G36*
X1076730D02*
X1075145Y708273D01*
X1073727Y706855D01*
X1073071Y705270D01*
X1076730D01*
Y708929D01*
D02*
G37*
G36*
X1067270D02*
Y705270D01*
X1070929D01*
X1070273Y706855D01*
X1068855Y708273D01*
X1067270Y708929D01*
D02*
G37*
G36*
X1064730D02*
X1063145Y708273D01*
X1061727Y706855D01*
X1061071Y705270D01*
X1064730D01*
Y708929D01*
D02*
G37*
G36*
X1055270D02*
Y705270D01*
X1058929D01*
X1058273Y706855D01*
X1056855Y708273D01*
X1055270Y708929D01*
D02*
G37*
G36*
X1052730D02*
X1051145Y708273D01*
X1049727Y706855D01*
X1049071Y705270D01*
X1052730D01*
Y708929D01*
D02*
G37*
G36*
X713020Y707824D02*
Y704165D01*
X716679D01*
X716023Y705750D01*
X714605Y707168D01*
X713020Y707824D01*
D02*
G37*
G36*
X710480D02*
X708895Y707168D01*
X707477Y705750D01*
X706821Y704165D01*
X710480D01*
Y707824D01*
D02*
G37*
G36*
X468929Y734730D02*
X459071D01*
X459727Y733145D01*
X460543Y732330D01*
X461016Y731500D01*
X460543Y730670D01*
X459727Y729855D01*
X458960Y728002D01*
Y726040D01*
X457998D01*
X456145Y725273D01*
X454727Y723855D01*
X453960Y722002D01*
Y720040D01*
X452998D01*
X451145Y719273D01*
X449727Y717855D01*
X449071Y716270D01*
X454000D01*
Y715000D01*
X455270D01*
Y709687D01*
X455960Y708982D01*
Y707998D01*
X456727Y706145D01*
X458145Y704727D01*
X459730Y704071D01*
Y709000D01*
Y714835D01*
X459513Y715109D01*
X459822Y715960D01*
X460003D01*
X461855Y716727D01*
X463273Y718145D01*
X464040Y719997D01*
Y721960D01*
X465003D01*
X466855Y722727D01*
X468273Y724145D01*
X468929Y725730D01*
X464000D01*
Y728270D01*
X468929D01*
X468273Y729855D01*
X467457Y730670D01*
X466984Y731500D01*
X467457Y732330D01*
X468273Y733145D01*
X468929Y734730D01*
D02*
G37*
G36*
X419929Y707730D02*
X416270D01*
Y704071D01*
X417855Y704727D01*
X419273Y706145D01*
X419929Y707730D01*
D02*
G37*
G36*
X755270Y706929D02*
Y703270D01*
X758929D01*
X758273Y704855D01*
X756855Y706273D01*
X755270Y706929D01*
D02*
G37*
G36*
X752730D02*
X751145Y706273D01*
X749727Y704855D01*
X749071Y703270D01*
X752730D01*
Y706929D01*
D02*
G37*
G36*
X556270Y703929D02*
Y700270D01*
X559929D01*
X559273Y701855D01*
X557855Y703273D01*
X556270Y703929D01*
D02*
G37*
G36*
X553730D02*
X552145Y703273D01*
X550727Y701855D01*
X550071Y700270D01*
X553730D01*
Y703929D01*
D02*
G37*
G36*
X212770Y703429D02*
Y699770D01*
X216429D01*
X215773Y701355D01*
X214355Y702773D01*
X212770Y703429D01*
D02*
G37*
G36*
X210230D02*
X208645Y702773D01*
X207227Y701355D01*
X206571Y699770D01*
X210230D01*
Y703429D01*
D02*
G37*
G36*
X1082929Y702730D02*
X1079270D01*
Y699071D01*
X1080855Y699727D01*
X1082273Y701145D01*
X1082929Y702730D01*
D02*
G37*
G36*
X1076730D02*
X1073071D01*
X1073727Y701145D01*
X1075145Y699727D01*
X1076730Y699071D01*
Y702730D01*
D02*
G37*
G36*
X1070929D02*
X1067270D01*
Y699071D01*
X1068855Y699727D01*
X1070273Y701145D01*
X1070929Y702730D01*
D02*
G37*
G36*
X1064730D02*
X1061071D01*
X1061727Y701145D01*
X1063145Y699727D01*
X1064730Y699071D01*
Y702730D01*
D02*
G37*
G36*
X1058929D02*
X1055270D01*
Y699071D01*
X1056855Y699727D01*
X1058273Y701145D01*
X1058929Y702730D01*
D02*
G37*
G36*
X1052730D02*
X1049071D01*
X1049727Y701145D01*
X1051145Y699727D01*
X1052730Y699071D01*
Y702730D01*
D02*
G37*
G36*
X462270Y713929D02*
Y709000D01*
Y703792D01*
X463319Y703131D01*
X463727Y702145D01*
X464872Y701000D01*
X463727Y699855D01*
X463071Y698270D01*
X472929D01*
X472273Y699855D01*
X471128Y701000D01*
X472273Y702145D01*
X472929Y703730D01*
X468000D01*
Y705000D01*
X466730D01*
Y710209D01*
X465681Y710869D01*
X465273Y711855D01*
X463855Y713273D01*
X462270Y713929D01*
D02*
G37*
G36*
X716679Y701625D02*
X713020D01*
Y697966D01*
X714605Y698622D01*
X716023Y700040D01*
X716679Y701625D01*
D02*
G37*
G36*
X710480D02*
X706821D01*
X707477Y700040D01*
X708895Y698622D01*
X710480Y697966D01*
Y701625D01*
D02*
G37*
G36*
X758929Y700730D02*
X755270D01*
Y697071D01*
X756855Y697727D01*
X758273Y699145D01*
X758929Y700730D01*
D02*
G37*
G36*
X752730D02*
X749071D01*
X749727Y699145D01*
X751145Y697727D01*
X752730Y697071D01*
Y700730D01*
D02*
G37*
G36*
X1292284Y714750D02*
X1289716D01*
X1287237Y714085D01*
X1285013Y712802D01*
X1283198Y710987D01*
X1281915Y708763D01*
X1281250Y706284D01*
Y703716D01*
X1281915Y701237D01*
X1283198Y699013D01*
X1285013Y697198D01*
X1287237Y695915D01*
X1289716Y695250D01*
X1292284D01*
X1294763Y695915D01*
X1296987Y697198D01*
X1298802Y699013D01*
X1300085Y701237D01*
X1300750Y703716D01*
Y706284D01*
X1300085Y708763D01*
X1298802Y710987D01*
X1296987Y712802D01*
X1294763Y714085D01*
X1292284Y714750D01*
D02*
G37*
G36*
X1242284D02*
X1239716D01*
X1237237Y714085D01*
X1235013Y712802D01*
X1233198Y710987D01*
X1231915Y708763D01*
X1231250Y706284D01*
Y703716D01*
X1231915Y701237D01*
X1233198Y699013D01*
X1235013Y697198D01*
X1237237Y695915D01*
X1239716Y695250D01*
X1242284D01*
X1244763Y695915D01*
X1246987Y697198D01*
X1248802Y699013D01*
X1250086Y701237D01*
X1250750Y703716D01*
Y706284D01*
X1250086Y708763D01*
X1248802Y710987D01*
X1246987Y712802D01*
X1244763Y714085D01*
X1242284Y714750D01*
D02*
G37*
G36*
X160284D02*
X157716D01*
X155237Y714085D01*
X153013Y712802D01*
X151198Y710987D01*
X149915Y708763D01*
X149250Y706284D01*
Y703716D01*
X149915Y701237D01*
X151198Y699013D01*
X153013Y697198D01*
X155237Y695915D01*
X157716Y695250D01*
X160284D01*
X162763Y695915D01*
X164987Y697198D01*
X166802Y699013D01*
X168085Y701237D01*
X168750Y703716D01*
Y706284D01*
X168085Y708763D01*
X166802Y710987D01*
X164987Y712802D01*
X162763Y714085D01*
X160284Y714750D01*
D02*
G37*
G36*
X110284D02*
X107716D01*
X105237Y714085D01*
X103013Y712802D01*
X101198Y710987D01*
X99915Y708763D01*
X99250Y706284D01*
Y703716D01*
X99915Y701237D01*
X101198Y699013D01*
X103013Y697198D01*
X105237Y695915D01*
X107716Y695250D01*
X110284D01*
X112763Y695915D01*
X114987Y697198D01*
X116802Y699013D01*
X118085Y701237D01*
X118750Y703716D01*
Y706284D01*
X118085Y708763D01*
X116802Y710987D01*
X114987Y712802D01*
X112763Y714085D01*
X110284Y714750D01*
D02*
G37*
G36*
X559929Y697730D02*
X556270D01*
Y694071D01*
X557855Y694727D01*
X559273Y696145D01*
X559929Y697730D01*
D02*
G37*
G36*
X553730D02*
X550071D01*
X550727Y696145D01*
X552145Y694727D01*
X553730Y694071D01*
Y697730D01*
D02*
G37*
G36*
X216429Y697230D02*
X212770D01*
Y693571D01*
X214355Y694227D01*
X215773Y695645D01*
X216429Y697230D01*
D02*
G37*
G36*
X210230D02*
X206571D01*
X207227Y695645D01*
X208645Y694227D01*
X210230Y693571D01*
Y697230D01*
D02*
G37*
G36*
X1079270Y696929D02*
Y693270D01*
X1082929D01*
X1082273Y694855D01*
X1080855Y696273D01*
X1079270Y696929D01*
D02*
G37*
G36*
X1076730D02*
X1075145Y696273D01*
X1073727Y694855D01*
X1073071Y693270D01*
X1076730D01*
Y696929D01*
D02*
G37*
G36*
X1067270D02*
Y693270D01*
X1070929D01*
X1070273Y694855D01*
X1068855Y696273D01*
X1067270Y696929D01*
D02*
G37*
G36*
X1064730D02*
X1063145Y696273D01*
X1061727Y694855D01*
X1061071Y693270D01*
X1064730D01*
Y696929D01*
D02*
G37*
G36*
X1055270D02*
Y693270D01*
X1058929D01*
X1058273Y694855D01*
X1056855Y696273D01*
X1055270Y696929D01*
D02*
G37*
G36*
X1052730D02*
X1051145Y696273D01*
X1049727Y694855D01*
X1049071Y693270D01*
X1052730D01*
Y696929D01*
D02*
G37*
G36*
X826895Y700500D02*
X825105D01*
X823451Y699815D01*
X822185Y698549D01*
X821500Y696895D01*
Y695105D01*
X822185Y693451D01*
X823451Y692185D01*
X825105Y691500D01*
X826895D01*
X828549Y692185D01*
X829815Y693451D01*
X830500Y695105D01*
Y696895D01*
X829815Y698549D01*
X828549Y699815D01*
X826895Y700500D01*
D02*
G37*
G36*
X480520Y692929D02*
Y689270D01*
X484179D01*
X483523Y690855D01*
X482105Y692273D01*
X480520Y692929D01*
D02*
G37*
G36*
X350270Y691929D02*
Y688270D01*
X353929D01*
X353273Y689855D01*
X351855Y691273D01*
X350270Y691929D01*
D02*
G37*
G36*
X347730D02*
X346145Y691273D01*
X344727Y689855D01*
X344071Y688270D01*
X347730D01*
Y691929D01*
D02*
G37*
G36*
X1082929Y690730D02*
X1079270D01*
Y687071D01*
X1080855Y687727D01*
X1082273Y689145D01*
X1082929Y690730D01*
D02*
G37*
G36*
X1076730D02*
X1073071D01*
X1073727Y689145D01*
X1075145Y687727D01*
X1076730Y687071D01*
Y690730D01*
D02*
G37*
G36*
X1070929D02*
X1067270D01*
Y687071D01*
X1068855Y687727D01*
X1070273Y689145D01*
X1070929Y690730D01*
D02*
G37*
G36*
X1064730D02*
X1061071D01*
X1061727Y689145D01*
X1063145Y687727D01*
X1064730Y687071D01*
Y690730D01*
D02*
G37*
G36*
X1058929D02*
X1055270D01*
Y687071D01*
X1056855Y687727D01*
X1058273Y689145D01*
X1058929Y690730D01*
D02*
G37*
G36*
X1052730D02*
X1049071D01*
X1049727Y689145D01*
X1051145Y687727D01*
X1052730Y687071D01*
Y690730D01*
D02*
G37*
G36*
X459730Y688929D02*
X458145Y688273D01*
X456727Y686855D01*
X456071Y685270D01*
X459730D01*
Y688929D01*
D02*
G37*
G36*
X416270D02*
Y685270D01*
X419929D01*
X419273Y686855D01*
X417855Y688273D01*
X416270Y688929D01*
D02*
G37*
G36*
X668270Y687929D02*
Y684270D01*
X671929D01*
X671273Y685855D01*
X669855Y687273D01*
X668270Y687929D01*
D02*
G37*
G36*
X665730D02*
X664145Y687273D01*
X662727Y685855D01*
X662071Y684270D01*
X665730D01*
Y687929D01*
D02*
G37*
G36*
X406730Y687730D02*
X403071D01*
X403727Y686145D01*
X405145Y684727D01*
X406730Y684071D01*
Y687730D01*
D02*
G37*
G36*
X484179Y686730D02*
X480520D01*
Y683071D01*
X482105Y683727D01*
X483523Y685145D01*
X484179Y686730D01*
D02*
G37*
G36*
X472929Y695730D02*
X463071D01*
X463727Y694145D01*
X464872Y693000D01*
X463727Y691855D01*
X462966Y690016D01*
X462754Y689542D01*
X462270Y689219D01*
Y684000D01*
X461000D01*
Y682730D01*
X456071D01*
X456339Y682082D01*
X455707Y680506D01*
X455145Y680273D01*
X454000Y679128D01*
X452855Y680273D01*
X451270Y680929D01*
Y676000D01*
Y671071D01*
X452855Y671727D01*
X454000Y672872D01*
X455145Y671727D01*
X456730Y671071D01*
Y676000D01*
X458000D01*
Y677270D01*
X462929D01*
X462661Y677918D01*
X463293Y679494D01*
X463855Y679727D01*
X465273Y681145D01*
X466035Y682984D01*
X466246Y683458D01*
X466730Y683781D01*
Y689000D01*
X469270D01*
Y684071D01*
X470855Y684727D01*
X472273Y686145D01*
X472940Y687756D01*
X474210Y687503D01*
Y686998D01*
X474977Y685145D01*
X476395Y683727D01*
X477980Y683071D01*
Y688000D01*
Y692929D01*
X476395Y692273D01*
X474977Y690855D01*
X474310Y689244D01*
X473040Y689497D01*
Y690003D01*
X472273Y691855D01*
X471128Y693000D01*
X472273Y694145D01*
X472929Y695730D01*
D02*
G37*
G36*
X535141Y686313D02*
Y682653D01*
X538800D01*
X538143Y684238D01*
X536726Y685656D01*
X535141Y686313D01*
D02*
G37*
G36*
X532601D02*
X531016Y685656D01*
X529598Y684238D01*
X528941Y682653D01*
X532601D01*
Y686313D01*
D02*
G37*
G36*
X353929Y685730D02*
X350270D01*
Y682071D01*
X351855Y682727D01*
X353273Y684145D01*
X353929Y685730D01*
D02*
G37*
G36*
X347730D02*
X344071D01*
X344727Y684145D01*
X346145Y682727D01*
X347730Y682071D01*
Y685730D01*
D02*
G37*
G36*
X1067270Y684929D02*
Y681270D01*
X1070929D01*
X1070273Y682855D01*
X1068855Y684273D01*
X1067270Y684929D01*
D02*
G37*
G36*
X1064730D02*
X1063145Y684273D01*
X1061727Y682855D01*
X1061071Y681270D01*
X1064730D01*
Y684929D01*
D02*
G37*
G36*
X1055270D02*
Y681270D01*
X1058929D01*
X1058273Y682855D01*
X1056855Y684273D01*
X1055270Y684929D01*
D02*
G37*
G36*
X1052730D02*
X1051145Y684273D01*
X1049727Y682855D01*
X1049071Y681270D01*
X1052730D01*
Y684929D01*
D02*
G37*
G36*
X432730Y680929D02*
X431145Y680273D01*
X430000Y679128D01*
X428855Y680273D01*
X427270Y680929D01*
Y676000D01*
Y671071D01*
X428855Y671727D01*
X430000Y672872D01*
X431145Y671727D01*
X432730Y671071D01*
Y676000D01*
Y680929D01*
D02*
G37*
G36*
X448730D02*
X447145Y680273D01*
X446000Y679128D01*
X444855Y680273D01*
X443270Y680929D01*
Y676000D01*
Y671071D01*
X444855Y671727D01*
X446000Y672872D01*
X447145Y671727D01*
X448730Y671071D01*
Y676000D01*
Y680929D01*
D02*
G37*
G36*
X440730D02*
X439145Y680273D01*
X438000Y679128D01*
X436855Y680273D01*
X435270Y680929D01*
Y676000D01*
Y671071D01*
X436855Y671727D01*
X438000Y672872D01*
X439145Y671727D01*
X440730Y671071D01*
Y676000D01*
Y680929D01*
D02*
G37*
G36*
X538800Y680113D02*
X535141D01*
Y676454D01*
X536726Y677111D01*
X538143Y678529D01*
X538800Y680113D01*
D02*
G37*
G36*
X532601D02*
X528941D01*
X529598Y678529D01*
X531016Y677111D01*
X532601Y676454D01*
Y680113D01*
D02*
G37*
G36*
X1070929Y678730D02*
X1067270D01*
Y675071D01*
X1068855Y675727D01*
X1070273Y677145D01*
X1070929Y678730D01*
D02*
G37*
G36*
X1064730D02*
X1061071D01*
X1061727Y677145D01*
X1063145Y675727D01*
X1064730Y675071D01*
Y678730D01*
D02*
G37*
G36*
X1058929D02*
X1055270D01*
Y675071D01*
X1056855Y675727D01*
X1058273Y677145D01*
X1058929Y678730D01*
D02*
G37*
G36*
X1052730D02*
X1049071D01*
X1049727Y677145D01*
X1051145Y675727D01*
X1052730Y675071D01*
Y678730D01*
D02*
G37*
G36*
X700895Y706500D02*
X699105D01*
X697451Y705815D01*
X696185Y704549D01*
X695500Y702895D01*
Y701105D01*
X696185Y699451D01*
X696941Y698695D01*
Y682305D01*
X696185Y681549D01*
X695500Y679895D01*
Y678105D01*
X696185Y676451D01*
X697451Y675185D01*
X699105Y674500D01*
X700895D01*
X702549Y675185D01*
X703815Y676451D01*
X704500Y678105D01*
Y679895D01*
X703815Y681549D01*
X703059Y682305D01*
Y698695D01*
X703815Y699451D01*
X704500Y701105D01*
Y702895D01*
X703815Y704549D01*
X702549Y705815D01*
X700895Y706500D01*
D02*
G37*
G36*
X777270Y677929D02*
Y674270D01*
X780929D01*
X780273Y675855D01*
X778855Y677273D01*
X777270Y677929D01*
D02*
G37*
G36*
X774730D02*
X773145Y677273D01*
X771727Y675855D01*
X771071Y674270D01*
X774730D01*
Y677929D01*
D02*
G37*
G36*
X746270D02*
Y674270D01*
X749929D01*
X749273Y675855D01*
X747855Y677273D01*
X746270Y677929D01*
D02*
G37*
G36*
X743730D02*
X742145Y677273D01*
X740727Y675855D01*
X740071Y674270D01*
X743730D01*
Y677929D01*
D02*
G37*
G36*
X713270D02*
Y674270D01*
X716929D01*
X716273Y675855D01*
X714855Y677273D01*
X713270Y677929D01*
D02*
G37*
G36*
X710730D02*
X709145Y677273D01*
X707727Y675855D01*
X707071Y674270D01*
X710730D01*
Y677929D01*
D02*
G37*
G36*
X687270D02*
Y674270D01*
X690929D01*
X690273Y675855D01*
X688855Y677273D01*
X687270Y677929D01*
D02*
G37*
G36*
X684730D02*
X683145Y677273D01*
X681727Y675855D01*
X681071Y674270D01*
X684730D01*
Y677929D01*
D02*
G37*
G36*
X626270Y676929D02*
Y673270D01*
X629929D01*
X629273Y674855D01*
X627855Y676273D01*
X626270Y676929D01*
D02*
G37*
G36*
X623730D02*
X622145Y676273D01*
X620727Y674855D01*
X620071Y673270D01*
X623730D01*
Y676929D01*
D02*
G37*
G36*
X488020D02*
Y673270D01*
X491679D01*
X491023Y674855D01*
X489605Y676273D01*
X488020Y676929D01*
D02*
G37*
G36*
X485480D02*
X483895Y676273D01*
X482477Y674855D01*
X481821Y673270D01*
X485480D01*
Y676929D01*
D02*
G37*
G36*
X462929Y674730D02*
X459270D01*
Y671071D01*
X460855Y671727D01*
X462273Y673145D01*
X462929Y674730D01*
D02*
G37*
G36*
X412929Y695730D02*
X403071D01*
X403727Y694145D01*
X404872Y693000D01*
X403727Y691855D01*
X403071Y690270D01*
X408000D01*
Y689000D01*
X409270D01*
Y683781D01*
X409754Y683458D01*
X409966Y682984D01*
X410727Y681145D01*
X412145Y679727D01*
X412707Y679494D01*
X413339Y677918D01*
X413071Y677270D01*
X418000D01*
Y676000D01*
X419270D01*
Y671071D01*
X420855Y671727D01*
X422000Y672872D01*
X423145Y671727D01*
X424730Y671071D01*
Y676000D01*
Y680929D01*
X423145Y680273D01*
X422000Y679128D01*
X420855Y680273D01*
X420293Y680506D01*
X419661Y682082D01*
X419929Y682730D01*
X415000D01*
Y684000D01*
X413730D01*
Y689219D01*
X413246Y689542D01*
X413035Y690016D01*
X412273Y691855D01*
X411128Y693000D01*
X412273Y694145D01*
X412929Y695730D01*
D02*
G37*
G36*
X416730Y674730D02*
X413071D01*
X413727Y673145D01*
X415145Y671727D01*
X416730Y671071D01*
Y674730D01*
D02*
G37*
G36*
X671929Y681730D02*
X662071D01*
X662727Y680145D01*
X664145Y678727D01*
X664181Y678545D01*
X663185Y677549D01*
X662500Y675895D01*
Y674105D01*
X663185Y672451D01*
X664451Y671185D01*
X666105Y670500D01*
X667895D01*
X669549Y671185D01*
X670815Y672451D01*
X671500Y674105D01*
Y675895D01*
X670815Y677549D01*
X669819Y678545D01*
X669855Y678727D01*
X671273Y680145D01*
X671929Y681730D01*
D02*
G37*
G36*
X780929Y671730D02*
X777270D01*
Y668071D01*
X778855Y668727D01*
X780273Y670145D01*
X780929Y671730D01*
D02*
G37*
G36*
X774730D02*
X771071D01*
X771727Y670145D01*
X773145Y668727D01*
X774730Y668071D01*
Y671730D01*
D02*
G37*
G36*
X749929D02*
X746270D01*
Y668071D01*
X747855Y668727D01*
X749273Y670145D01*
X749929Y671730D01*
D02*
G37*
G36*
X743730D02*
X740071D01*
X740727Y670145D01*
X742145Y668727D01*
X743730Y668071D01*
Y671730D01*
D02*
G37*
G36*
X716929D02*
X713270D01*
Y668071D01*
X714855Y668727D01*
X716273Y670145D01*
X716929Y671730D01*
D02*
G37*
G36*
X710730D02*
X707071D01*
X707727Y670145D01*
X709145Y668727D01*
X710730Y668071D01*
Y671730D01*
D02*
G37*
G36*
X690929D02*
X687270D01*
Y668071D01*
X688855Y668727D01*
X690273Y670145D01*
X690929Y671730D01*
D02*
G37*
G36*
X684730D02*
X681071D01*
X681727Y670145D01*
X683145Y668727D01*
X684730Y668071D01*
Y671730D01*
D02*
G37*
G36*
X629929Y670730D02*
X626270D01*
Y667071D01*
X627855Y667727D01*
X629273Y669145D01*
X629929Y670730D01*
D02*
G37*
G36*
X623730D02*
X620071D01*
X620727Y669145D01*
X622145Y667727D01*
X623730Y667071D01*
Y670730D01*
D02*
G37*
G36*
X491679D02*
X488020D01*
Y667071D01*
X489605Y667727D01*
X491023Y669145D01*
X491679Y670730D01*
D02*
G37*
G36*
X485480D02*
X481821D01*
X482477Y669145D01*
X483895Y667727D01*
X485480Y667071D01*
Y670730D01*
D02*
G37*
G36*
X475520Y653929D02*
Y650270D01*
X479179D01*
X478523Y651855D01*
X477105Y653273D01*
X475520Y653929D01*
D02*
G37*
G36*
X472980D02*
X471395Y653273D01*
X469977Y651855D01*
X469321Y650270D01*
X472980D01*
Y653929D01*
D02*
G37*
G36*
X479179Y647730D02*
X475520D01*
Y644071D01*
X477105Y644727D01*
X478523Y646145D01*
X479179Y647730D01*
D02*
G37*
G36*
X472980D02*
X469321D01*
X469977Y646145D01*
X471395Y644727D01*
X472980Y644071D01*
Y647730D01*
D02*
G37*
G36*
X699020Y647679D02*
Y644020D01*
X702679D01*
X702023Y645605D01*
X700605Y647023D01*
X699020Y647679D01*
D02*
G37*
G36*
X696480D02*
X694895Y647023D01*
X693477Y645605D01*
X692821Y644020D01*
X696480D01*
Y647679D01*
D02*
G37*
G36*
X634020D02*
Y644020D01*
X637679D01*
X637023Y645605D01*
X635605Y647023D01*
X634020Y647679D01*
D02*
G37*
G36*
X631480D02*
X629895Y647023D01*
X628477Y645605D01*
X627821Y644020D01*
X631480D01*
Y647679D01*
D02*
G37*
G36*
X769020Y641929D02*
Y638270D01*
X772679D01*
X772023Y639855D01*
X770605Y641273D01*
X769020Y641929D01*
D02*
G37*
G36*
X702679Y641480D02*
X699020D01*
Y637821D01*
X700605Y638477D01*
X702023Y639895D01*
X702679Y641480D01*
D02*
G37*
G36*
X696480D02*
X692821D01*
X693477Y639895D01*
X694895Y638477D01*
X696480Y637821D01*
Y641480D01*
D02*
G37*
G36*
X637679D02*
X634020D01*
Y637821D01*
X635605Y638477D01*
X637023Y639895D01*
X637679Y641480D01*
D02*
G37*
G36*
X631480D02*
X627821D01*
X628477Y639895D01*
X629895Y638477D01*
X631480Y637821D01*
Y641480D01*
D02*
G37*
G36*
X1323270Y660990D02*
Y636270D01*
X1337615D01*
Y645500D01*
X1337315Y648546D01*
X1336427Y651476D01*
X1334984Y654175D01*
X1333042Y656542D01*
X1330675Y658484D01*
X1327976Y659927D01*
X1325046Y660815D01*
X1323270Y660990D01*
D02*
G37*
G36*
X1320730D02*
X1318954Y660815D01*
X1316024Y659927D01*
X1313325Y658484D01*
X1310958Y656542D01*
X1309017Y654175D01*
X1307574Y651476D01*
X1306685Y648546D01*
X1306385Y645500D01*
Y636270D01*
X1320730D01*
Y660990D01*
D02*
G37*
G36*
X1211270D02*
Y636270D01*
X1225615D01*
Y645500D01*
X1225315Y648546D01*
X1224427Y651476D01*
X1222984Y654175D01*
X1221042Y656542D01*
X1218675Y658484D01*
X1215976Y659927D01*
X1213046Y660815D01*
X1211270Y660990D01*
D02*
G37*
G36*
X1208730D02*
X1206954Y660815D01*
X1204024Y659927D01*
X1201325Y658484D01*
X1198958Y656542D01*
X1197017Y654175D01*
X1195574Y651476D01*
X1194685Y648546D01*
X1194385Y645500D01*
Y636270D01*
X1208730D01*
Y660990D01*
D02*
G37*
G36*
X191270D02*
Y636270D01*
X205615D01*
Y645500D01*
X205315Y648546D01*
X204426Y651476D01*
X202983Y654175D01*
X201042Y656542D01*
X198675Y658484D01*
X195976Y659927D01*
X193046Y660815D01*
X191270Y660990D01*
D02*
G37*
G36*
X188730D02*
X186954Y660815D01*
X184024Y659927D01*
X181325Y658484D01*
X178958Y656542D01*
X177017Y654175D01*
X175574Y651476D01*
X174685Y648546D01*
X174385Y645500D01*
Y636270D01*
X188730D01*
Y660990D01*
D02*
G37*
G36*
X79270D02*
Y636270D01*
X93615D01*
Y645500D01*
X93315Y648546D01*
X92427Y651476D01*
X90984Y654175D01*
X89042Y656542D01*
X86675Y658484D01*
X83976Y659927D01*
X81046Y660815D01*
X79270Y660990D01*
D02*
G37*
G36*
X76730D02*
X74954Y660815D01*
X72024Y659927D01*
X69325Y658484D01*
X66958Y656542D01*
X65016Y654175D01*
X63573Y651476D01*
X62685Y648546D01*
X62385Y645500D01*
Y636270D01*
X76730D01*
Y660990D01*
D02*
G37*
G36*
X340290Y639659D02*
Y636000D01*
X343949D01*
X343293Y637585D01*
X341875Y639003D01*
X340290Y639659D01*
D02*
G37*
G36*
X337750D02*
X336165Y639003D01*
X334747Y637585D01*
X334091Y636000D01*
X337750D01*
Y639659D01*
D02*
G37*
G36*
X1170012Y644898D02*
X1168222D01*
X1166568Y644213D01*
X1165302Y642947D01*
X1164617Y641293D01*
Y639503D01*
X1165302Y637849D01*
X1166568Y636583D01*
X1168222Y635898D01*
X1170012D01*
X1171666Y636583D01*
X1172932Y637849D01*
X1173617Y639503D01*
Y641293D01*
X1172932Y642947D01*
X1171666Y644213D01*
X1170012Y644898D01*
D02*
G37*
G36*
X1158012D02*
X1156222D01*
X1154568Y644213D01*
X1153302Y642947D01*
X1152617Y641293D01*
Y639503D01*
X1153302Y637849D01*
X1154568Y636583D01*
X1156222Y635898D01*
X1158012D01*
X1159666Y636583D01*
X1160932Y637849D01*
X1161617Y639503D01*
Y641293D01*
X1160932Y642947D01*
X1159666Y644213D01*
X1158012Y644898D01*
D02*
G37*
G36*
X1146012D02*
X1144222D01*
X1142568Y644213D01*
X1141302Y642947D01*
X1140617Y641293D01*
Y639503D01*
X1141302Y637849D01*
X1142568Y636583D01*
X1144222Y635898D01*
X1146012D01*
X1147666Y636583D01*
X1148932Y637849D01*
X1149617Y639503D01*
Y641293D01*
X1148932Y642947D01*
X1147666Y644213D01*
X1146012Y644898D01*
D02*
G37*
G36*
X1134012D02*
X1132222D01*
X1130568Y644213D01*
X1129302Y642947D01*
X1128617Y641293D01*
Y639503D01*
X1129302Y637849D01*
X1130568Y636583D01*
X1132222Y635898D01*
X1134012D01*
X1135666Y636583D01*
X1136932Y637849D01*
X1137617Y639503D01*
Y641293D01*
X1136932Y642947D01*
X1135666Y644213D01*
X1134012Y644898D01*
D02*
G37*
G36*
X1122012D02*
X1120222D01*
X1118568Y644213D01*
X1117302Y642947D01*
X1116617Y641293D01*
Y639503D01*
X1117302Y637849D01*
X1118568Y636583D01*
X1120222Y635898D01*
X1122012D01*
X1123666Y636583D01*
X1124932Y637849D01*
X1125617Y639503D01*
Y641293D01*
X1124932Y642947D01*
X1123666Y644213D01*
X1122012Y644898D01*
D02*
G37*
G36*
X1110012D02*
X1108222D01*
X1106568Y644213D01*
X1105302Y642947D01*
X1104617Y641293D01*
Y639503D01*
X1105302Y637849D01*
X1106568Y636583D01*
X1108222Y635898D01*
X1110012D01*
X1111666Y636583D01*
X1112932Y637849D01*
X1113617Y639503D01*
Y641293D01*
X1112932Y642947D01*
X1111666Y644213D01*
X1110012Y644898D01*
D02*
G37*
G36*
X1098012D02*
X1096222D01*
X1094568Y644213D01*
X1093302Y642947D01*
X1092617Y641293D01*
Y639503D01*
X1093302Y637849D01*
X1094568Y636583D01*
X1096222Y635898D01*
X1098012D01*
X1099666Y636583D01*
X1100932Y637849D01*
X1101617Y639503D01*
Y641293D01*
X1100932Y642947D01*
X1099666Y644213D01*
X1098012Y644898D01*
D02*
G37*
G36*
X772679Y635730D02*
X769020D01*
Y632071D01*
X770605Y632727D01*
X772023Y634145D01*
X772679Y635730D01*
D02*
G37*
G36*
X343949Y633460D02*
X334091D01*
X334747Y631875D01*
X335419Y631204D01*
X334893Y629934D01*
X333430D01*
X332549Y630815D01*
X330895Y631500D01*
X329105D01*
X327451Y630815D01*
X326185Y629549D01*
X325500Y627895D01*
Y626105D01*
X326185Y624451D01*
X326941Y623695D01*
Y608305D01*
X325818Y607872D01*
X325302Y608326D01*
X324355Y609273D01*
X322770Y609929D01*
Y605000D01*
Y600071D01*
X324355Y600727D01*
X325302Y601674D01*
X325817Y602127D01*
X326955Y601681D01*
X327451Y601185D01*
X329105Y600500D01*
X330895D01*
X332549Y601185D01*
X333815Y602451D01*
X334500Y604105D01*
Y605895D01*
X333815Y607549D01*
X333059Y608305D01*
Y617173D01*
X334329Y617425D01*
X334747Y616415D01*
X336165Y614997D01*
X337750Y614341D01*
Y619270D01*
X339020D01*
Y620540D01*
X343949D01*
X343293Y622125D01*
X342871Y622546D01*
X343397Y623816D01*
X372320D01*
X373201Y622935D01*
X374855Y622250D01*
X376645D01*
X378299Y622935D01*
X379164Y623800D01*
X379771Y624139D01*
X380788Y623835D01*
X381645Y622977D01*
X383230Y622321D01*
Y627250D01*
Y632179D01*
X381645Y631523D01*
X380227Y630105D01*
X378825Y630039D01*
X378299Y630565D01*
X376645Y631250D01*
X374855D01*
X373201Y630565D01*
X372570Y629934D01*
X343147D01*
X342621Y631204D01*
X343293Y631875D01*
X343949Y633460D01*
D02*
G37*
G36*
X385770Y632179D02*
Y628520D01*
X389429D01*
X388773Y630105D01*
X387355Y631523D01*
X385770Y632179D01*
D02*
G37*
G36*
X524565Y627766D02*
Y624107D01*
X528224D01*
X527568Y625692D01*
X526150Y627110D01*
X524565Y627766D01*
D02*
G37*
G36*
X494893D02*
X493308Y627110D01*
X491890Y625692D01*
X491234Y624107D01*
X494893D01*
Y627766D01*
D02*
G37*
G36*
X1170012Y632898D02*
X1168222D01*
X1166568Y632213D01*
X1165302Y630947D01*
X1164617Y629293D01*
Y627503D01*
X1165302Y625849D01*
X1166568Y624583D01*
X1168222Y623898D01*
X1170012D01*
X1171666Y624583D01*
X1172932Y625849D01*
X1173617Y627503D01*
Y629293D01*
X1172932Y630947D01*
X1171666Y632213D01*
X1170012Y632898D01*
D02*
G37*
G36*
X1158012D02*
X1156222D01*
X1154568Y632213D01*
X1153302Y630947D01*
X1152617Y629293D01*
Y627503D01*
X1153302Y625849D01*
X1154568Y624583D01*
X1156222Y623898D01*
X1158012D01*
X1159666Y624583D01*
X1160932Y625849D01*
X1161617Y627503D01*
Y629293D01*
X1160932Y630947D01*
X1159666Y632213D01*
X1158012Y632898D01*
D02*
G37*
G36*
X1146012D02*
X1144222D01*
X1142568Y632213D01*
X1141302Y630947D01*
X1140617Y629293D01*
Y627503D01*
X1141302Y625849D01*
X1142568Y624583D01*
X1144222Y623898D01*
X1146012D01*
X1147666Y624583D01*
X1148932Y625849D01*
X1149617Y627503D01*
Y629293D01*
X1148932Y630947D01*
X1147666Y632213D01*
X1146012Y632898D01*
D02*
G37*
G36*
X1134012D02*
X1132222D01*
X1130568Y632213D01*
X1129302Y630947D01*
X1128617Y629293D01*
Y627503D01*
X1129302Y625849D01*
X1130568Y624583D01*
X1132222Y623898D01*
X1134012D01*
X1135666Y624583D01*
X1136932Y625849D01*
X1137617Y627503D01*
Y629293D01*
X1136932Y630947D01*
X1135666Y632213D01*
X1134012Y632898D01*
D02*
G37*
G36*
X1122012D02*
X1120222D01*
X1118568Y632213D01*
X1117302Y630947D01*
X1116617Y629293D01*
Y627503D01*
X1117302Y625849D01*
X1118568Y624583D01*
X1120222Y623898D01*
X1122012D01*
X1123666Y624583D01*
X1124932Y625849D01*
X1125617Y627503D01*
Y629293D01*
X1124932Y630947D01*
X1123666Y632213D01*
X1122012Y632898D01*
D02*
G37*
G36*
X1110012D02*
X1108222D01*
X1106568Y632213D01*
X1105302Y630947D01*
X1104617Y629293D01*
Y627503D01*
X1105302Y625849D01*
X1106568Y624583D01*
X1108222Y623898D01*
X1110012D01*
X1111666Y624583D01*
X1112932Y625849D01*
X1113617Y627503D01*
Y629293D01*
X1112932Y630947D01*
X1111666Y632213D01*
X1110012Y632898D01*
D02*
G37*
G36*
X1098012D02*
X1096222D01*
X1094568Y632213D01*
X1093302Y630947D01*
X1092617Y629293D01*
Y627503D01*
X1093302Y625849D01*
X1094568Y624583D01*
X1096222Y623898D01*
X1098012D01*
X1099666Y624583D01*
X1100932Y625849D01*
X1101617Y627503D01*
Y629293D01*
X1100932Y630947D01*
X1099666Y632213D01*
X1098012Y632898D01*
D02*
G37*
G36*
X389429Y625980D02*
X385770D01*
Y622321D01*
X387355Y622977D01*
X388773Y624395D01*
X389429Y625980D01*
D02*
G37*
G36*
X760429Y624480D02*
X756770D01*
Y620821D01*
X758355Y621477D01*
X759773Y622895D01*
X760429Y624480D01*
D02*
G37*
G36*
X754230D02*
X750571D01*
X751227Y622895D01*
X752645Y621477D01*
X754230Y620821D01*
Y624480D01*
D02*
G37*
G36*
X528224Y621567D02*
X524565D01*
Y617908D01*
X526150Y618564D01*
X527568Y619982D01*
X528224Y621567D01*
D02*
G37*
G36*
X494893D02*
X491234D01*
X491890Y619982D01*
X493308Y618564D01*
X494893Y617908D01*
Y621567D01*
D02*
G37*
G36*
X414270Y618679D02*
Y615020D01*
X417929D01*
X417273Y616605D01*
X415855Y618023D01*
X414270Y618679D01*
D02*
G37*
G36*
X411730D02*
X410145Y618023D01*
X408727Y616605D01*
X408071Y615020D01*
X411730D01*
Y618679D01*
D02*
G37*
G36*
X343949Y618000D02*
X340290D01*
Y614341D01*
X341875Y614997D01*
X343293Y616415D01*
X343949Y618000D01*
D02*
G37*
G36*
X464270Y617929D02*
Y614270D01*
X467929D01*
X467273Y615855D01*
X465855Y617273D01*
X464270Y617929D01*
D02*
G37*
G36*
X461730D02*
X460145Y617273D01*
X458727Y615855D01*
X458071Y614270D01*
X461730D01*
Y617929D01*
D02*
G37*
G36*
X1337615Y633730D02*
X1323270D01*
Y609010D01*
X1325046Y609185D01*
X1327976Y610074D01*
X1330675Y611516D01*
X1333042Y613458D01*
X1334984Y615825D01*
X1336427Y618524D01*
X1337315Y621454D01*
X1337615Y624500D01*
Y633730D01*
D02*
G37*
G36*
X1320730D02*
X1306385D01*
Y624500D01*
X1306685Y621454D01*
X1307574Y618524D01*
X1309017Y615825D01*
X1310958Y613458D01*
X1313325Y611516D01*
X1316024Y610074D01*
X1318954Y609185D01*
X1320730Y609010D01*
Y633730D01*
D02*
G37*
G36*
X1225615D02*
X1211270D01*
Y609010D01*
X1213046Y609185D01*
X1215976Y610074D01*
X1218675Y611516D01*
X1221042Y613458D01*
X1222984Y615825D01*
X1224427Y618524D01*
X1225315Y621454D01*
X1225615Y624500D01*
Y633730D01*
D02*
G37*
G36*
X1208730D02*
X1194385D01*
Y624500D01*
X1194685Y621454D01*
X1195574Y618524D01*
X1197017Y615825D01*
X1198958Y613458D01*
X1201325Y611516D01*
X1204024Y610074D01*
X1206954Y609185D01*
X1208730Y609010D01*
Y633730D01*
D02*
G37*
G36*
X205615D02*
X191270D01*
Y609010D01*
X193046Y609185D01*
X195976Y610074D01*
X198675Y611516D01*
X201042Y613458D01*
X202983Y615825D01*
X204426Y618524D01*
X205315Y621454D01*
X205615Y624500D01*
Y633730D01*
D02*
G37*
G36*
X188730D02*
X174385D01*
Y624500D01*
X174685Y621454D01*
X175574Y618524D01*
X177017Y615825D01*
X178958Y613458D01*
X181325Y611516D01*
X184024Y610074D01*
X186954Y609185D01*
X188730Y609010D01*
Y633730D01*
D02*
G37*
G36*
X93615D02*
X79270D01*
Y609010D01*
X81046Y609185D01*
X83976Y610074D01*
X86675Y611516D01*
X89042Y613458D01*
X90984Y615825D01*
X92427Y618524D01*
X93315Y621454D01*
X93615Y624500D01*
Y633730D01*
D02*
G37*
G36*
X76730D02*
X62385D01*
Y624500D01*
X62685Y621454D01*
X63573Y618524D01*
X65016Y615825D01*
X66958Y613458D01*
X69325Y611516D01*
X72024Y610074D01*
X74954Y609185D01*
X76730Y609010D01*
Y633730D01*
D02*
G37*
G36*
X417929Y612480D02*
X414270D01*
Y608821D01*
X415855Y609477D01*
X417273Y610895D01*
X417929Y612480D01*
D02*
G37*
G36*
X411730D02*
X408071D01*
X408727Y610895D01*
X410145Y609477D01*
X411730Y608821D01*
Y612480D01*
D02*
G37*
G36*
X467929Y611730D02*
X464270D01*
Y608071D01*
X465855Y608727D01*
X467273Y610145D01*
X467929Y611730D01*
D02*
G37*
G36*
X461730D02*
X458071D01*
X458727Y610145D01*
X460145Y608727D01*
X461730Y608071D01*
Y611730D01*
D02*
G37*
G36*
X753230Y610679D02*
X751645Y610023D01*
X750227Y608605D01*
X749571Y607020D01*
X753230D01*
Y610679D01*
D02*
G37*
G36*
X320230Y609929D02*
X318645Y609273D01*
X317227Y607855D01*
X316571Y606270D01*
X320230D01*
Y609929D01*
D02*
G37*
G36*
X524565Y607092D02*
Y603433D01*
X528224D01*
X527568Y605018D01*
X526150Y606436D01*
X524565Y607092D01*
D02*
G37*
G36*
X522025D02*
X520440Y606436D01*
X519022Y605018D01*
X518255Y603165D01*
X518044Y603024D01*
X516895Y603500D01*
X515105D01*
X513451Y602815D01*
X512185Y601549D01*
X511500Y599895D01*
Y598270D01*
X511035Y597715D01*
X510480Y597250D01*
X508855D01*
X507201Y596565D01*
X505935Y595299D01*
X505250Y593645D01*
Y591855D01*
X505592Y591030D01*
X504515Y590311D01*
X497250Y597576D01*
Y598645D01*
X496565Y600299D01*
X495299Y601565D01*
X493645Y602250D01*
X491855D01*
X490201Y601565D01*
X488935Y600299D01*
X488250Y598645D01*
Y596855D01*
X488935Y595201D01*
X489629Y594507D01*
X488477Y593355D01*
X487821Y591770D01*
X492750D01*
Y590500D01*
X494020D01*
Y585571D01*
X495605Y586227D01*
X497023Y587645D01*
X497026Y587654D01*
X498272Y587902D01*
X546191Y539983D01*
Y479055D01*
X545435Y478299D01*
X544750Y476645D01*
Y474855D01*
X545435Y473201D01*
X546701Y471935D01*
X548355Y471250D01*
X550145D01*
X551799Y471935D01*
X553065Y473201D01*
X553188Y473497D01*
X554562D01*
X554685Y473201D01*
X555951Y471935D01*
X557605Y471250D01*
X559395D01*
X561049Y471935D01*
X562315Y473201D01*
X562563Y473799D01*
X563937D01*
X564185Y473201D01*
X565451Y471935D01*
X567105Y471250D01*
X568895D01*
X570549Y471935D01*
X571243Y472629D01*
X572395Y471477D01*
X573980Y470821D01*
Y475750D01*
Y480679D01*
X572395Y480023D01*
X572329Y479956D01*
X571059Y480482D01*
Y547000D01*
X570826Y548171D01*
X570163Y549163D01*
X570163Y549163D01*
X523473Y595853D01*
X523999Y597123D01*
X524298D01*
X526150Y597890D01*
X527568Y599308D01*
X528224Y600893D01*
X523295D01*
Y602163D01*
X522025D01*
Y607092D01*
D02*
G37*
G36*
X753230Y604480D02*
X749571D01*
X750227Y602895D01*
X751645Y601477D01*
X753230Y600821D01*
Y604480D01*
D02*
G37*
G36*
X361270Y604179D02*
Y600520D01*
X364929D01*
X364273Y602105D01*
X362855Y603523D01*
X361270Y604179D01*
D02*
G37*
G36*
X358730D02*
X357145Y603523D01*
X355727Y602105D01*
X355071Y600520D01*
X358730D01*
Y604179D01*
D02*
G37*
G36*
X385270Y603929D02*
Y600270D01*
X388929D01*
X388273Y601855D01*
X386855Y603273D01*
X385270Y603929D01*
D02*
G37*
G36*
X382730D02*
X381145Y603273D01*
X379727Y601855D01*
X379071Y600270D01*
X382730D01*
Y603929D01*
D02*
G37*
G36*
X320230Y603730D02*
X316571D01*
X317227Y602145D01*
X318645Y600727D01*
X320230Y600071D01*
Y603730D01*
D02*
G37*
G36*
X775020Y598429D02*
Y594770D01*
X778679D01*
X778023Y596355D01*
X776605Y597773D01*
X775020Y598429D01*
D02*
G37*
G36*
X772480D02*
X770895Y597773D01*
X769477Y596355D01*
X768821Y594770D01*
X772480D01*
Y598429D01*
D02*
G37*
G36*
X364929Y597980D02*
X361270D01*
Y594321D01*
X362855Y594977D01*
X364273Y596395D01*
X364929Y597980D01*
D02*
G37*
G36*
X358730D02*
X355071D01*
X355727Y596395D01*
X357145Y594977D01*
X358730Y594321D01*
Y597980D01*
D02*
G37*
G36*
X388929Y597730D02*
X385270D01*
Y594071D01*
X386855Y594727D01*
X388273Y596145D01*
X388929Y597730D01*
D02*
G37*
G36*
X382730D02*
X379071D01*
X379727Y596145D01*
X381145Y594727D01*
X382730Y594071D01*
Y597730D01*
D02*
G37*
G36*
X1007770Y597179D02*
Y593520D01*
X1011429D01*
X1010773Y595105D01*
X1009355Y596523D01*
X1007770Y597179D01*
D02*
G37*
G36*
X1005230D02*
X1003645Y596523D01*
X1002227Y595105D01*
X1001571Y593520D01*
X1005230D01*
Y597179D01*
D02*
G37*
G36*
X778679Y592230D02*
X775020D01*
Y588571D01*
X776605Y589227D01*
X778023Y590645D01*
X778679Y592230D01*
D02*
G37*
G36*
X772480D02*
X768821D01*
X769477Y590645D01*
X770895Y589227D01*
X772480Y588571D01*
Y592230D01*
D02*
G37*
G36*
X1011429Y590980D02*
X1007770D01*
Y587321D01*
X1009355Y587977D01*
X1010773Y589395D01*
X1011429Y590980D01*
D02*
G37*
G36*
X1005230D02*
X1001571D01*
X1002227Y589395D01*
X1003645Y587977D01*
X1005230Y587321D01*
Y590980D01*
D02*
G37*
G36*
X491480Y589230D02*
X487821D01*
X488477Y587645D01*
X489895Y586227D01*
X491480Y585571D01*
Y589230D01*
D02*
G37*
G36*
X864980Y588730D02*
X861321D01*
X861977Y587145D01*
X863395Y585727D01*
X864980Y585071D01*
Y588730D01*
D02*
G37*
G36*
X463895Y593500D02*
X462105D01*
X460451Y592815D01*
X459185Y591549D01*
X458500Y589895D01*
Y588105D01*
X459185Y586451D01*
X460451Y585185D01*
X462105Y584500D01*
X463895D01*
X465549Y585185D01*
X466815Y586451D01*
X467500Y588105D01*
Y589895D01*
X466815Y591549D01*
X465549Y592815D01*
X463895Y593500D01*
D02*
G37*
G36*
X455929Y576730D02*
X452270D01*
Y573071D01*
X453855Y573727D01*
X455273Y575145D01*
X455929Y576730D01*
D02*
G37*
G36*
X429730D02*
X426071D01*
X426727Y575145D01*
X428145Y573727D01*
X429730Y573071D01*
Y576730D01*
D02*
G37*
G36*
X755770Y610679D02*
Y605750D01*
Y600216D01*
X756111Y599587D01*
X756685Y598201D01*
X757441Y597445D01*
Y571232D01*
X756171Y570706D01*
X756105Y570773D01*
X754520Y571429D01*
Y566500D01*
Y561571D01*
X756105Y562227D01*
X757257Y563379D01*
X757951Y562685D01*
X759605Y562000D01*
X761395D01*
X763049Y562685D01*
X764315Y563951D01*
X765000Y565605D01*
Y567395D01*
X764315Y569049D01*
X763559Y569805D01*
Y597445D01*
X764315Y598201D01*
X765000Y599855D01*
Y601645D01*
X764315Y603299D01*
X763049Y604565D01*
X761395Y605250D01*
X759605D01*
X759540Y605293D01*
Y606753D01*
X758773Y608605D01*
X757355Y610023D01*
X755770Y610679D01*
D02*
G37*
G36*
X751980Y571429D02*
X750395Y570773D01*
X748977Y569355D01*
X748321Y567770D01*
X751980D01*
Y571429D01*
D02*
G37*
G36*
X432270D02*
Y567770D01*
X435929D01*
X435273Y569355D01*
X433855Y570773D01*
X432270Y571429D01*
D02*
G37*
G36*
X429730D02*
X428145Y570773D01*
X426727Y569355D01*
X426071Y567770D01*
X429730D01*
Y571429D01*
D02*
G37*
G36*
X884020Y569679D02*
Y566020D01*
X887679D01*
X887023Y567605D01*
X885605Y569023D01*
X884020Y569679D01*
D02*
G37*
G36*
X706770Y566179D02*
Y562520D01*
X710429D01*
X709773Y564105D01*
X708355Y565523D01*
X706770Y566179D01*
D02*
G37*
G36*
X704230D02*
X702645Y565523D01*
X701227Y564105D01*
X700571Y562520D01*
X704230D01*
Y566179D01*
D02*
G37*
G36*
X666270D02*
Y562520D01*
X669929D01*
X669273Y564105D01*
X667855Y565523D01*
X666270Y566179D01*
D02*
G37*
G36*
X663730D02*
X662145Y565523D01*
X660727Y564105D01*
X660071Y562520D01*
X663730D01*
Y566179D01*
D02*
G37*
G36*
X625770D02*
Y562520D01*
X629429D01*
X628773Y564105D01*
X627355Y565523D01*
X625770Y566179D01*
D02*
G37*
G36*
X623230D02*
X621645Y565523D01*
X620227Y564105D01*
X619571Y562520D01*
X623230D01*
Y566179D01*
D02*
G37*
G36*
X585270D02*
Y562520D01*
X588929D01*
X588273Y564105D01*
X586855Y565523D01*
X585270Y566179D01*
D02*
G37*
G36*
X582730D02*
X581145Y565523D01*
X579727Y564105D01*
X579071Y562520D01*
X582730D01*
Y566179D01*
D02*
G37*
G36*
X751980Y565230D02*
X748321D01*
X748977Y563645D01*
X750395Y562227D01*
X751980Y561571D01*
Y565230D01*
D02*
G37*
G36*
X1267355Y570290D02*
X1267270D01*
Y561270D01*
X1276290D01*
Y561355D01*
X1275589Y563972D01*
X1274234Y566318D01*
X1272318Y568234D01*
X1269972Y569589D01*
X1267355Y570290D01*
D02*
G37*
G36*
X1264730D02*
X1264645D01*
X1262028Y569589D01*
X1259682Y568234D01*
X1257766Y566318D01*
X1256411Y563972D01*
X1255710Y561355D01*
Y561270D01*
X1264730D01*
Y570290D01*
D02*
G37*
G36*
X135355D02*
X135270D01*
Y561270D01*
X144290D01*
Y561355D01*
X143589Y563972D01*
X142234Y566318D01*
X140318Y568234D01*
X137972Y569589D01*
X135355Y570290D01*
D02*
G37*
G36*
X132730D02*
X132645D01*
X130028Y569589D01*
X127682Y568234D01*
X125766Y566318D01*
X124411Y563972D01*
X123710Y561355D01*
Y561270D01*
X132730D01*
Y570290D01*
D02*
G37*
G36*
X461395Y569250D02*
X459605D01*
X457951Y568565D01*
X456685Y567299D01*
X456000Y565645D01*
Y563855D01*
X456685Y562201D01*
X457951Y560935D01*
X459605Y560250D01*
X461395D01*
X463049Y560935D01*
X464315Y562201D01*
X465000Y563855D01*
Y565645D01*
X464315Y567299D01*
X463049Y568565D01*
X461395Y569250D01*
D02*
G37*
G36*
X887679Y563480D02*
X884020D01*
Y559821D01*
X885605Y560477D01*
X887023Y561895D01*
X887679Y563480D01*
D02*
G37*
G36*
X877645Y574250D02*
X875855D01*
X874201Y573565D01*
X872935Y572299D01*
X872250Y570645D01*
Y569576D01*
X827837Y525163D01*
X827174Y524170D01*
X826941Y523000D01*
X826941Y523000D01*
Y480482D01*
X825671Y479956D01*
X825605Y480023D01*
X824020Y480679D01*
Y475750D01*
Y470821D01*
X825605Y471477D01*
X826757Y472629D01*
X827451Y471935D01*
X829105Y471250D01*
X830895D01*
X832549Y471935D01*
X833815Y473201D01*
X834500Y474855D01*
Y476645D01*
X833815Y478299D01*
X833059Y479055D01*
Y521733D01*
X876440Y565114D01*
X877710Y564922D01*
Y563747D01*
X878477Y561895D01*
X879895Y560477D01*
X881480Y559821D01*
Y564750D01*
Y570284D01*
X881139Y570913D01*
X880565Y572299D01*
X879299Y573565D01*
X877645Y574250D01*
D02*
G37*
G36*
X493422Y573500D02*
X491578D01*
X489798Y573023D01*
X488202Y572101D01*
X486899Y570798D01*
X486138Y569480D01*
X478922D01*
X477751Y569248D01*
X476759Y568585D01*
X476759Y568584D01*
X464983Y556809D01*
X438579D01*
X435500Y559888D01*
Y560145D01*
X434815Y561799D01*
X434121Y562493D01*
X435273Y563645D01*
X435929Y565230D01*
X426071D01*
X426727Y563645D01*
X427879Y562493D01*
X427185Y561799D01*
X426500Y560145D01*
Y558355D01*
X427185Y556701D01*
X428451Y555435D01*
X430105Y554750D01*
X431895D01*
X431959Y554777D01*
X435149Y551587D01*
X436141Y550924D01*
X437312Y550691D01*
X466250D01*
X466250Y550691D01*
X467421Y550924D01*
X468413Y551587D01*
X480188Y563363D01*
X486228D01*
X486899Y562202D01*
X488202Y560899D01*
X489798Y559977D01*
X491578Y559500D01*
X493422D01*
X495202Y559977D01*
X496798Y560899D01*
X497142Y561242D01*
X497849Y560770D01*
X508179D01*
X507523Y562355D01*
X506371Y563507D01*
X507065Y564201D01*
X507750Y565855D01*
Y567645D01*
X507065Y569299D01*
X505799Y570565D01*
X504145Y571250D01*
X502355D01*
X500701Y570565D01*
X499916Y569780D01*
X498631Y569880D01*
X498101Y570798D01*
X496798Y572101D01*
X495202Y573023D01*
X493422Y573500D01*
D02*
G37*
G36*
X710429Y559980D02*
X706770D01*
Y556321D01*
X708355Y556977D01*
X709773Y558395D01*
X710429Y559980D01*
D02*
G37*
G36*
X704230D02*
X700571D01*
X701227Y558395D01*
X702645Y556977D01*
X704230Y556321D01*
Y559980D01*
D02*
G37*
G36*
X669929D02*
X666270D01*
Y556321D01*
X667855Y556977D01*
X669273Y558395D01*
X669929Y559980D01*
D02*
G37*
G36*
X663730D02*
X660071D01*
X660727Y558395D01*
X662145Y556977D01*
X663730Y556321D01*
Y559980D01*
D02*
G37*
G36*
X629429D02*
X625770D01*
Y556321D01*
X627355Y556977D01*
X628773Y558395D01*
X629429Y559980D01*
D02*
G37*
G36*
X623230D02*
X619571D01*
X620227Y558395D01*
X621645Y556977D01*
X623230Y556321D01*
Y559980D01*
D02*
G37*
G36*
X588929D02*
X585270D01*
Y556321D01*
X586855Y556977D01*
X588273Y558395D01*
X588929Y559980D01*
D02*
G37*
G36*
X582730D02*
X579071D01*
X579727Y558395D01*
X581145Y556977D01*
X582730Y556321D01*
Y559980D01*
D02*
G37*
G36*
X486270Y559929D02*
Y556270D01*
X489929D01*
X489273Y557855D01*
X487855Y559273D01*
X486270Y559929D01*
D02*
G37*
G36*
X483730D02*
X482145Y559273D01*
X480727Y557855D01*
X480071Y556270D01*
X483730D01*
Y559929D01*
D02*
G37*
G36*
X411895Y564500D02*
X410105D01*
X408451Y563815D01*
X407185Y562549D01*
X406500Y560895D01*
Y560209D01*
X406270Y559668D01*
Y555270D01*
X410668D01*
X411209Y555500D01*
X411895D01*
X413549Y556185D01*
X414815Y557451D01*
X415500Y559105D01*
Y560895D01*
X414815Y562549D01*
X413549Y563815D01*
X411895Y564500D01*
D02*
G37*
G36*
X403730Y558929D02*
X402145Y558273D01*
X400727Y556855D01*
X400071Y555270D01*
X403730D01*
Y558929D01*
D02*
G37*
G36*
X508179Y558230D02*
X504520D01*
Y554571D01*
X506105Y555227D01*
X507523Y556645D01*
X508179Y558230D01*
D02*
G37*
G36*
X501980D02*
X498321D01*
X498977Y556645D01*
X500395Y555227D01*
X501980Y554571D01*
Y558230D01*
D02*
G37*
G36*
X1007520Y555929D02*
Y552270D01*
X1011179D01*
X1010523Y553855D01*
X1009105Y555273D01*
X1007520Y555929D01*
D02*
G37*
G36*
X1004980D02*
X1003395Y555273D01*
X1001977Y553855D01*
X1001321Y552270D01*
X1004980D01*
Y555929D01*
D02*
G37*
G36*
X1292284Y569750D02*
X1289716D01*
X1287237Y569086D01*
X1285013Y567802D01*
X1283198Y565987D01*
X1281915Y563763D01*
X1281250Y561284D01*
Y558716D01*
X1281915Y556237D01*
X1283198Y554013D01*
X1285013Y552198D01*
X1287237Y550914D01*
X1289716Y550250D01*
X1292284D01*
X1294763Y550914D01*
X1296987Y552198D01*
X1298802Y554013D01*
X1300085Y556237D01*
X1300750Y558716D01*
Y561284D01*
X1300085Y563763D01*
X1298802Y565987D01*
X1296987Y567802D01*
X1294763Y569086D01*
X1292284Y569750D01*
D02*
G37*
G36*
X1250750D02*
X1231250D01*
Y550250D01*
X1250750D01*
Y569750D01*
D02*
G37*
G36*
X160284D02*
X157716D01*
X155237Y569086D01*
X153013Y567802D01*
X151198Y565987D01*
X149915Y563763D01*
X149250Y561284D01*
Y558716D01*
X149915Y556237D01*
X151198Y554013D01*
X153013Y552198D01*
X155237Y550914D01*
X157716Y550250D01*
X160284D01*
X162763Y550914D01*
X164987Y552198D01*
X166802Y554013D01*
X168085Y556237D01*
X168750Y558716D01*
Y561284D01*
X168085Y563763D01*
X166802Y565987D01*
X164987Y567802D01*
X162763Y569086D01*
X160284Y569750D01*
D02*
G37*
G36*
X118750D02*
X99250D01*
Y550250D01*
X118750D01*
Y569750D01*
D02*
G37*
G36*
X489929Y553730D02*
X486270D01*
Y550071D01*
X487855Y550727D01*
X489273Y552145D01*
X489929Y553730D01*
D02*
G37*
G36*
X483730D02*
X480071D01*
X480727Y552145D01*
X482145Y550727D01*
X483730Y550071D01*
Y553730D01*
D02*
G37*
G36*
X1276290Y558730D02*
X1267270D01*
Y549710D01*
X1267355D01*
X1269972Y550411D01*
X1272318Y551766D01*
X1274234Y553682D01*
X1275589Y556028D01*
X1276290Y558645D01*
Y558730D01*
D02*
G37*
G36*
X1264730D02*
X1255710D01*
Y558645D01*
X1256411Y556028D01*
X1257766Y553682D01*
X1259682Y551766D01*
X1262028Y550411D01*
X1264645Y549710D01*
X1264730D01*
Y558730D01*
D02*
G37*
G36*
X144290D02*
X135270D01*
Y549710D01*
X135355D01*
X137972Y550411D01*
X140318Y551766D01*
X142234Y553682D01*
X143589Y556028D01*
X144290Y558645D01*
Y558730D01*
D02*
G37*
G36*
X132730D02*
X123710D01*
Y558645D01*
X124411Y556028D01*
X125766Y553682D01*
X127682Y551766D01*
X130028Y550411D01*
X132645Y549710D01*
X132730D01*
Y558730D01*
D02*
G37*
G36*
X409929Y552730D02*
X406270D01*
Y549071D01*
X407855Y549727D01*
X409273Y551145D01*
X409929Y552730D01*
D02*
G37*
G36*
X403730D02*
X400071D01*
X400727Y551145D01*
X402145Y549727D01*
X403730Y549071D01*
Y552730D01*
D02*
G37*
G36*
X1011179Y549730D02*
X1007520D01*
Y546071D01*
X1009105Y546727D01*
X1010523Y548145D01*
X1011179Y549730D01*
D02*
G37*
G36*
X1004980D02*
X1001321D01*
X1001977Y548145D01*
X1003395Y546727D01*
X1004980Y546071D01*
Y549730D01*
D02*
G37*
G36*
X738020Y548929D02*
Y545270D01*
X741679D01*
X741023Y546855D01*
X739605Y548273D01*
X738020Y548929D01*
D02*
G37*
G36*
X735480D02*
X733895Y548273D01*
X732477Y546855D01*
X731821Y545270D01*
X735480D01*
Y548929D01*
D02*
G37*
G36*
X483730Y542929D02*
X482145Y542273D01*
X480727Y540855D01*
X480545Y540819D01*
X479549Y541815D01*
X477895Y542500D01*
X476105D01*
X474451Y541815D01*
X473185Y540549D01*
X472500Y538895D01*
Y537105D01*
X473185Y535451D01*
X474451Y534185D01*
X476105Y533500D01*
X477895D01*
X479549Y534185D01*
X480545Y535181D01*
X480727Y535145D01*
X482145Y533727D01*
X483730Y533071D01*
Y538000D01*
Y542929D01*
D02*
G37*
G36*
X486270D02*
Y539270D01*
X489929D01*
X489273Y540855D01*
X487855Y542273D01*
X486270Y542929D01*
D02*
G37*
G36*
X741679Y542730D02*
X738020D01*
Y539071D01*
X739605Y539727D01*
X741023Y541145D01*
X741679Y542730D01*
D02*
G37*
G36*
X735480D02*
X731821D01*
X732477Y541145D01*
X733895Y539727D01*
X735480Y539071D01*
Y542730D01*
D02*
G37*
G36*
X448230Y542179D02*
X446645Y541523D01*
X445227Y540105D01*
X444687Y538801D01*
X443313D01*
X442773Y540105D01*
X441355Y541523D01*
X439770Y542179D01*
Y537250D01*
X437230D01*
Y542179D01*
X435645Y541523D01*
X434227Y540105D01*
X433687Y538801D01*
X432313D01*
X431773Y540105D01*
X430355Y541523D01*
X428770Y542179D01*
Y537250D01*
X427500D01*
Y535980D01*
X422571D01*
X423227Y534395D01*
X424645Y532977D01*
X425949Y532437D01*
Y531063D01*
X424645Y530523D01*
X423227Y529105D01*
X422571Y527520D01*
X427500D01*
Y524980D01*
X422571D01*
X423227Y523395D01*
X424645Y521977D01*
X425949Y521437D01*
Y520063D01*
X424645Y519523D01*
X423227Y518105D01*
X422571Y516520D01*
X427500D01*
Y515250D01*
X428770D01*
Y510321D01*
X430355Y510977D01*
X431773Y512395D01*
X432313Y513699D01*
X433687D01*
X434227Y512395D01*
X435645Y510977D01*
X437230Y510321D01*
Y515250D01*
X439770D01*
Y510321D01*
X441355Y510977D01*
X442773Y512395D01*
X443313Y513699D01*
X444687D01*
X445227Y512395D01*
X446645Y510977D01*
X448230Y510321D01*
Y515250D01*
X449500D01*
Y516520D01*
X454429D01*
X453773Y518105D01*
X452355Y519523D01*
X451051Y520063D01*
Y521437D01*
X452355Y521977D01*
X453773Y523395D01*
X454429Y524980D01*
X449500D01*
Y527520D01*
X454429D01*
X453773Y529105D01*
X452355Y530523D01*
X451051Y531063D01*
Y532437D01*
X452355Y532977D01*
X453773Y534395D01*
X454429Y535980D01*
X449500D01*
Y537250D01*
X448230D01*
Y542179D01*
D02*
G37*
G36*
X450770D02*
Y538520D01*
X454429D01*
X453773Y540105D01*
X452355Y541523D01*
X450770Y542179D01*
D02*
G37*
G36*
X426230D02*
X424645Y541523D01*
X423227Y540105D01*
X422571Y538520D01*
X426230D01*
Y542179D01*
D02*
G37*
G36*
X1306895Y545500D02*
X1305105D01*
X1303451Y544815D01*
X1302185Y543549D01*
X1301500Y541895D01*
Y540105D01*
X1302185Y538451D01*
X1303451Y537185D01*
X1305105Y536500D01*
X1306895D01*
X1308549Y537185D01*
X1309815Y538451D01*
X1310500Y540105D01*
Y541895D01*
X1309815Y543549D01*
X1308549Y544815D01*
X1306895Y545500D01*
D02*
G37*
G36*
X1227895D02*
X1226105D01*
X1224451Y544815D01*
X1223185Y543549D01*
X1222500Y541895D01*
Y540105D01*
X1223185Y538451D01*
X1224451Y537185D01*
X1226105Y536500D01*
X1227895D01*
X1229549Y537185D01*
X1230815Y538451D01*
X1231500Y540105D01*
Y541895D01*
X1230815Y543549D01*
X1229549Y544815D01*
X1227895Y545500D01*
D02*
G37*
G36*
X174895D02*
X173105D01*
X171451Y544815D01*
X170185Y543549D01*
X169500Y541895D01*
Y540105D01*
X170185Y538451D01*
X171451Y537185D01*
X173105Y536500D01*
X174895D01*
X176549Y537185D01*
X177815Y538451D01*
X178500Y540105D01*
Y541895D01*
X177815Y543549D01*
X176549Y544815D01*
X174895Y545500D01*
D02*
G37*
G36*
X95895D02*
X94105D01*
X92451Y544815D01*
X91185Y543549D01*
X90500Y541895D01*
Y540105D01*
X91185Y538451D01*
X92451Y537185D01*
X94105Y536500D01*
X95895D01*
X97549Y537185D01*
X98815Y538451D01*
X99500Y540105D01*
Y541895D01*
X98815Y543549D01*
X97549Y544815D01*
X95895Y545500D01*
D02*
G37*
G36*
X319645Y543500D02*
X317855D01*
X316201Y542815D01*
X314935Y541549D01*
X314250Y539895D01*
Y538105D01*
X314613Y537229D01*
X314395Y536954D01*
X313589Y536383D01*
X312270Y536929D01*
Y533270D01*
X315929D01*
X315556Y534171D01*
X316575Y535030D01*
X317855Y534500D01*
X319645D01*
X321299Y535185D01*
X322055Y535941D01*
X346233D01*
X348000Y534174D01*
Y533105D01*
X348685Y531451D01*
X349951Y530185D01*
X351605Y529500D01*
X353395D01*
X355049Y530185D01*
X356315Y531451D01*
X357000Y533105D01*
Y534895D01*
X356315Y536549D01*
X355049Y537815D01*
X353395Y538500D01*
X352326D01*
X349663Y541163D01*
X348671Y541826D01*
X347500Y542059D01*
X347500Y542059D01*
X322055D01*
X321299Y542815D01*
X319645Y543500D01*
D02*
G37*
G36*
X273770Y772179D02*
Y767250D01*
Y762321D01*
X275355Y762977D01*
X276302Y763925D01*
X276432Y764039D01*
X277691Y763547D01*
Y542555D01*
X276685Y541549D01*
X276000Y539895D01*
Y538105D01*
X276685Y536451D01*
X277951Y535185D01*
X279605Y534500D01*
X281395D01*
X283049Y535185D01*
X284315Y536451D01*
X285000Y538105D01*
Y539895D01*
X284315Y541549D01*
X283809Y542055D01*
Y763695D01*
X284815Y764701D01*
X285500Y766355D01*
Y768145D01*
X284815Y769799D01*
X283549Y771065D01*
X281895Y771750D01*
X280105D01*
X278451Y771065D01*
X277955Y770569D01*
X276817Y770123D01*
X276302Y770575D01*
X275355Y771523D01*
X273770Y772179D01*
D02*
G37*
G36*
X309730Y536929D02*
X308145Y536273D01*
X306727Y534855D01*
X306071Y533270D01*
X309730D01*
Y536929D01*
D02*
G37*
G36*
X489929Y536730D02*
X486270D01*
Y533071D01*
X487855Y533727D01*
X489273Y535145D01*
X489929Y536730D01*
D02*
G37*
G36*
X396895Y536500D02*
X395105D01*
X393451Y535815D01*
X392185Y534549D01*
X391500Y532895D01*
Y531105D01*
X392185Y529451D01*
X393451Y528185D01*
X395105Y527500D01*
X396895D01*
X398549Y528185D01*
X399815Y529451D01*
X400500Y531105D01*
Y532895D01*
X399815Y534549D01*
X398549Y535815D01*
X396895Y536500D01*
D02*
G37*
G36*
X315929Y530730D02*
X312270D01*
Y527071D01*
X313855Y527727D01*
X315273Y529145D01*
X315929Y530730D01*
D02*
G37*
G36*
X309730D02*
X306071D01*
X306727Y529145D01*
X308145Y527727D01*
X309730Y527071D01*
Y530730D01*
D02*
G37*
G36*
X757520Y529429D02*
Y525770D01*
X761179D01*
X760523Y527355D01*
X759105Y528773D01*
X757520Y529429D01*
D02*
G37*
G36*
X754980D02*
X753395Y528773D01*
X751977Y527355D01*
X751321Y525770D01*
X754980D01*
Y529429D01*
D02*
G37*
G36*
X293270Y523929D02*
Y520270D01*
X296929D01*
X296273Y521855D01*
X294855Y523273D01*
X293270Y523929D01*
D02*
G37*
G36*
X290730D02*
X289145Y523273D01*
X287727Y521855D01*
X287071Y520270D01*
X290730D01*
Y523929D01*
D02*
G37*
G36*
X267020D02*
Y520270D01*
X270679D01*
X270023Y521855D01*
X268605Y523273D01*
X267020Y523929D01*
D02*
G37*
G36*
X264480D02*
X262895Y523273D01*
X261477Y521855D01*
X260821Y520270D01*
X264480D01*
Y523929D01*
D02*
G37*
G36*
X239020D02*
Y520270D01*
X242679D01*
X242023Y521855D01*
X240605Y523273D01*
X239020Y523929D01*
D02*
G37*
G36*
X236480D02*
X234895Y523273D01*
X233477Y521855D01*
X232821Y520270D01*
X236480D01*
Y523929D01*
D02*
G37*
G36*
X761179Y523230D02*
X757520D01*
Y519571D01*
X759105Y520227D01*
X760523Y521645D01*
X761179Y523230D01*
D02*
G37*
G36*
X754980D02*
X751321D01*
X751977Y521645D01*
X753395Y520227D01*
X754980Y519571D01*
Y523230D01*
D02*
G37*
G36*
X385270Y520929D02*
Y517270D01*
X388929D01*
X388273Y518855D01*
X386855Y520273D01*
X385270Y520929D01*
D02*
G37*
G36*
X382730D02*
X381145Y520273D01*
X379727Y518855D01*
X379071Y517270D01*
X382730D01*
Y520929D01*
D02*
G37*
G36*
X296929Y517730D02*
X293270D01*
Y514071D01*
X294855Y514727D01*
X296273Y516145D01*
X296929Y517730D01*
D02*
G37*
G36*
X290730D02*
X287071D01*
X287727Y516145D01*
X289145Y514727D01*
X290730Y514071D01*
Y517730D01*
D02*
G37*
G36*
X270679D02*
X267020D01*
Y514071D01*
X268605Y514727D01*
X270023Y516145D01*
X270679Y517730D01*
D02*
G37*
G36*
X264480D02*
X260821D01*
X261477Y516145D01*
X262895Y514727D01*
X264480Y514071D01*
Y517730D01*
D02*
G37*
G36*
X242679D02*
X239020D01*
Y514071D01*
X240605Y514727D01*
X242023Y516145D01*
X242679Y517730D01*
D02*
G37*
G36*
X236480D02*
X232821D01*
X233477Y516145D01*
X234895Y514727D01*
X236480Y514071D01*
Y517730D01*
D02*
G37*
G36*
X1114270Y514929D02*
Y511270D01*
X1117929D01*
X1117273Y512855D01*
X1115855Y514273D01*
X1114270Y514929D01*
D02*
G37*
G36*
X1111730D02*
X1110145Y514273D01*
X1108727Y512855D01*
X1108071Y511270D01*
X1111730D01*
Y514929D01*
D02*
G37*
G36*
X388929Y514730D02*
X385270D01*
Y511071D01*
X386855Y511727D01*
X388273Y513145D01*
X388929Y514730D01*
D02*
G37*
G36*
X382730D02*
X379071D01*
X379727Y513145D01*
X381145Y511727D01*
X382730Y511071D01*
Y514730D01*
D02*
G37*
G36*
X454429Y513980D02*
X450770D01*
Y510321D01*
X452355Y510977D01*
X453773Y512395D01*
X454429Y513980D01*
D02*
G37*
G36*
X426230D02*
X422571D01*
X423227Y512395D01*
X424645Y510977D01*
X426230Y510321D01*
Y513980D01*
D02*
G37*
G36*
X525485Y528471D02*
X471494D01*
X469543Y528083D01*
X467889Y526978D01*
X466784Y525324D01*
X466396Y523373D01*
X466784Y521422D01*
X467889Y519768D01*
X468690Y519233D01*
X469515Y518602D01*
X469045Y517584D01*
X468549Y516842D01*
X468161Y514891D01*
X468549Y512940D01*
X469654Y511286D01*
X471308Y510181D01*
X473259Y509793D01*
X473533Y509848D01*
X517946D01*
X519897Y510236D01*
X521550Y511341D01*
X521605Y511395D01*
X522710Y513049D01*
X522853Y513766D01*
X524147D01*
X524290Y513049D01*
X525395Y511395D01*
X527049Y510290D01*
X529000Y509902D01*
X530951Y510290D01*
X532605Y511395D01*
X533710Y513049D01*
X534098Y515000D01*
Y519858D01*
X533710Y521809D01*
X532605Y523463D01*
X529090Y526978D01*
X527436Y528083D01*
X525485Y528471D01*
D02*
G37*
G36*
X219020Y511929D02*
Y508270D01*
X222679D01*
X222023Y509855D01*
X220605Y511273D01*
X219020Y511929D01*
D02*
G37*
G36*
X216480D02*
X214895Y511273D01*
X213477Y509855D01*
X212821Y508270D01*
X216480D01*
Y511929D01*
D02*
G37*
G36*
X235520Y510429D02*
Y506770D01*
X239179D01*
X238523Y508355D01*
X237105Y509773D01*
X235520Y510429D01*
D02*
G37*
G36*
X232980D02*
X231395Y509773D01*
X229977Y508355D01*
X229321Y506770D01*
X232980D01*
Y510429D01*
D02*
G37*
G36*
X1117929Y508730D02*
X1114270D01*
Y505071D01*
X1115855Y505727D01*
X1117273Y507145D01*
X1117929Y508730D01*
D02*
G37*
G36*
X1111730D02*
X1108071D01*
X1108727Y507145D01*
X1110145Y505727D01*
X1111730Y505071D01*
Y508730D01*
D02*
G37*
G36*
X1155770Y507929D02*
Y504270D01*
X1159429D01*
X1158773Y505855D01*
X1157355Y507273D01*
X1155770Y507929D01*
D02*
G37*
G36*
X1153230D02*
X1151645Y507273D01*
X1150227Y505855D01*
X1149571Y504270D01*
X1153230D01*
Y507929D01*
D02*
G37*
G36*
X252645Y521750D02*
X250855D01*
X249201Y521065D01*
X247935Y519799D01*
X247250Y518145D01*
Y516355D01*
X247935Y514701D01*
X248691Y513945D01*
Y502805D01*
X248471Y502585D01*
X239873D01*
X239024Y503855D01*
X239179Y504230D01*
X229321D01*
X229476Y503855D01*
X228627Y502585D01*
X222786D01*
X221951Y503550D01*
X222217Y504614D01*
X222679Y505730D01*
X212821D01*
X213477Y504145D01*
X214895Y502727D01*
X215464Y502492D01*
X215541Y502102D01*
X214856Y500448D01*
Y498658D01*
X215541Y497004D01*
X216807Y495738D01*
X218461Y495053D01*
X220252D01*
X221905Y495738D01*
X222635Y496468D01*
X248418D01*
X249201Y495685D01*
X250855Y495000D01*
X252645D01*
X254299Y495685D01*
X255565Y496951D01*
X256250Y498605D01*
Y500395D01*
X255565Y502049D01*
X254809Y502805D01*
Y513945D01*
X255565Y514701D01*
X256250Y516355D01*
Y518145D01*
X255565Y519799D01*
X254299Y521065D01*
X252645Y521750D01*
D02*
G37*
G36*
X268520Y504429D02*
Y500770D01*
X272179D01*
X271523Y502355D01*
X270105Y503773D01*
X268520Y504429D01*
D02*
G37*
G36*
X265980D02*
X264395Y503773D01*
X262977Y502355D01*
X262321Y500770D01*
X265980D01*
Y504429D01*
D02*
G37*
G36*
X1159429Y501730D02*
X1155770D01*
Y498071D01*
X1157355Y498727D01*
X1158773Y500145D01*
X1159429Y501730D01*
D02*
G37*
G36*
X1153230D02*
X1149571D01*
X1150227Y500145D01*
X1151645Y498727D01*
X1153230Y498071D01*
Y501730D01*
D02*
G37*
G36*
X666520Y499929D02*
Y496270D01*
X670179D01*
X669523Y497855D01*
X668105Y499273D01*
X666520Y499929D01*
D02*
G37*
G36*
X663980D02*
X662395Y499273D01*
X660977Y497855D01*
X660321Y496270D01*
X663980D01*
Y499929D01*
D02*
G37*
G36*
X626020D02*
Y496270D01*
X629679D01*
X629023Y497855D01*
X627605Y499273D01*
X626020Y499929D01*
D02*
G37*
G36*
X623480D02*
X621895Y499273D01*
X620477Y497855D01*
X619821Y496270D01*
X623480D01*
Y499929D01*
D02*
G37*
G36*
X585520D02*
Y496270D01*
X589179D01*
X588523Y497855D01*
X587105Y499273D01*
X585520Y499929D01*
D02*
G37*
G36*
X582980D02*
X581395Y499273D01*
X579977Y497855D01*
X579321Y496270D01*
X582980D01*
Y499929D01*
D02*
G37*
G36*
X1084270Y499429D02*
Y495770D01*
X1087929D01*
X1087273Y497355D01*
X1085855Y498773D01*
X1084270Y499429D01*
D02*
G37*
G36*
X1081730D02*
X1080145Y498773D01*
X1078727Y497355D01*
X1078071Y495770D01*
X1081730D01*
Y499429D01*
D02*
G37*
G36*
X272179Y498230D02*
X268520D01*
Y494571D01*
X270105Y495227D01*
X271523Y496645D01*
X272179Y498230D01*
D02*
G37*
G36*
X265980D02*
X262321D01*
X262977Y496645D01*
X264395Y495227D01*
X265980Y494571D01*
Y498230D01*
D02*
G37*
G36*
X793270Y493929D02*
Y490270D01*
X796929D01*
X796273Y491855D01*
X794855Y493273D01*
X793270Y493929D01*
D02*
G37*
G36*
X790730D02*
X789145Y493273D01*
X787727Y491855D01*
X787071Y490270D01*
X790730D01*
Y493929D01*
D02*
G37*
G36*
X670179Y493730D02*
X666520D01*
Y490071D01*
X668105Y490727D01*
X669523Y492145D01*
X670179Y493730D01*
D02*
G37*
G36*
X663980D02*
X660321D01*
X660977Y492145D01*
X662395Y490727D01*
X663980Y490071D01*
Y493730D01*
D02*
G37*
G36*
X629679D02*
X626020D01*
Y490071D01*
X627605Y490727D01*
X629023Y492145D01*
X629679Y493730D01*
D02*
G37*
G36*
X623480D02*
X619821D01*
X620477Y492145D01*
X621895Y490727D01*
X623480Y490071D01*
Y493730D01*
D02*
G37*
G36*
X589179D02*
X585520D01*
Y490071D01*
X587105Y490727D01*
X588523Y492145D01*
X589179Y493730D01*
D02*
G37*
G36*
X582980D02*
X579321D01*
X579977Y492145D01*
X581395Y490727D01*
X582980Y490071D01*
Y493730D01*
D02*
G37*
G36*
X1087929Y493230D02*
X1084270D01*
Y489571D01*
X1085855Y490227D01*
X1087273Y491645D01*
X1087929Y493230D01*
D02*
G37*
G36*
X1081730D02*
X1078071D01*
X1078727Y491645D01*
X1080145Y490227D01*
X1081730Y489571D01*
Y493230D01*
D02*
G37*
G36*
X428270Y491929D02*
Y488270D01*
X431929D01*
X431273Y489855D01*
X429855Y491273D01*
X428270Y491929D01*
D02*
G37*
G36*
X425730D02*
X424145Y491273D01*
X422727Y489855D01*
X422071Y488270D01*
X425730D01*
Y491929D01*
D02*
G37*
G36*
X796929Y487730D02*
X793270D01*
Y484071D01*
X794855Y484727D01*
X796273Y486145D01*
X796929Y487730D01*
D02*
G37*
G36*
X790730D02*
X787071D01*
X787727Y486145D01*
X789145Y484727D01*
X790730Y484071D01*
Y487730D01*
D02*
G37*
G36*
X431929Y485730D02*
X428270D01*
Y482071D01*
X429855Y482727D01*
X431273Y484145D01*
X431929Y485730D01*
D02*
G37*
G36*
X425730D02*
X422071D01*
X422727Y484145D01*
X424145Y482727D01*
X425730Y482071D01*
Y485730D01*
D02*
G37*
G36*
X411270Y483929D02*
Y480270D01*
X414929D01*
X414273Y481855D01*
X412855Y483273D01*
X411270Y483929D01*
D02*
G37*
G36*
X408730D02*
X407145Y483273D01*
X405727Y481855D01*
X405071Y480270D01*
X408730D01*
Y483929D01*
D02*
G37*
G36*
X940980Y480679D02*
X939395Y480023D01*
X938243Y478871D01*
X937549Y479565D01*
X935895Y480250D01*
X934105D01*
X932451Y479565D01*
X931185Y478299D01*
X930500Y476645D01*
Y474855D01*
X931185Y473201D01*
X932451Y471935D01*
X934105Y471250D01*
X935895D01*
X937549Y471935D01*
X938243Y472629D01*
X939395Y471477D01*
X940980Y470821D01*
Y475750D01*
Y480679D01*
D02*
G37*
G36*
X1016020D02*
Y477020D01*
X1019679D01*
X1019023Y478605D01*
X1017605Y480023D01*
X1016020Y480679D01*
D02*
G37*
G36*
X943520D02*
Y477020D01*
X947179D01*
X946523Y478605D01*
X945105Y480023D01*
X943520Y480679D01*
D02*
G37*
G36*
X821480D02*
X819895Y480023D01*
X818477Y478605D01*
X817821Y477020D01*
X821480D01*
Y480679D01*
D02*
G37*
G36*
X576520D02*
Y477020D01*
X580179D01*
X579523Y478605D01*
X578105Y480023D01*
X576520Y480679D01*
D02*
G37*
G36*
X709895Y480554D02*
Y476895D01*
X713554D01*
X712898Y478480D01*
X711480Y479898D01*
X709895Y480554D01*
D02*
G37*
G36*
X707355D02*
X705770Y479898D01*
X704352Y478480D01*
X703696Y476895D01*
X707355D01*
Y480554D01*
D02*
G37*
G36*
X414929Y477730D02*
X411270D01*
Y474071D01*
X412855Y474727D01*
X414273Y476145D01*
X414929Y477730D01*
D02*
G37*
G36*
X408730D02*
X405071D01*
X405727Y476145D01*
X407145Y474727D01*
X408730Y474071D01*
Y477730D01*
D02*
G37*
G36*
X541395Y603750D02*
X539605D01*
X537951Y603065D01*
X536685Y601799D01*
X536000Y600145D01*
Y598355D01*
X536685Y596701D01*
X537166Y596220D01*
Y588750D01*
X537420Y587474D01*
X538143Y586393D01*
X600416Y524119D01*
Y478780D01*
X599935Y478299D01*
X599250Y476645D01*
Y474855D01*
X599935Y473201D01*
X601201Y471935D01*
X602855Y471250D01*
X604645D01*
X606299Y471935D01*
X607565Y473201D01*
X608250Y474855D01*
Y476645D01*
X607565Y478299D01*
X607084Y478780D01*
Y525500D01*
X606830Y526776D01*
X606107Y527858D01*
X543834Y590131D01*
Y596220D01*
X544315Y596701D01*
X545000Y598355D01*
Y600145D01*
X544315Y601799D01*
X543049Y603065D01*
X541395Y603750D01*
D02*
G37*
G36*
X1019679Y474480D02*
X1016020D01*
Y470821D01*
X1017605Y471477D01*
X1019023Y472895D01*
X1019679Y474480D01*
D02*
G37*
G36*
X872145Y600500D02*
X870355D01*
X868701Y599815D01*
X867435Y598549D01*
X866750Y596895D01*
Y595105D01*
X866707Y595040D01*
X865247D01*
X863395Y594273D01*
X861977Y592855D01*
X861321Y591270D01*
X866250D01*
Y590000D01*
X867520D01*
Y585071D01*
X869105Y585727D01*
X870523Y587145D01*
X871290Y588997D01*
Y589838D01*
X872560Y590364D01*
X989337Y473587D01*
X989337Y473587D01*
X990329Y472924D01*
X991500Y472691D01*
X1002945D01*
X1003701Y471935D01*
X1005355Y471250D01*
X1007145D01*
X1008799Y471935D01*
X1009295Y472431D01*
X1010433Y472878D01*
X1010948Y472425D01*
X1011895Y471477D01*
X1013480Y470821D01*
Y475750D01*
Y480679D01*
X1011895Y480023D01*
X1010948Y479076D01*
X1010433Y478623D01*
X1009295Y479069D01*
X1008799Y479565D01*
X1007145Y480250D01*
X1005355D01*
X1003701Y479565D01*
X1002945Y478809D01*
X992767D01*
X875750Y595826D01*
Y596895D01*
X875065Y598549D01*
X873799Y599815D01*
X872145Y600500D01*
D02*
G37*
G36*
X947179Y474480D02*
X943520D01*
Y470821D01*
X945105Y471477D01*
X946523Y472895D01*
X947179Y474480D01*
D02*
G37*
G36*
X821480D02*
X817821D01*
X818477Y472895D01*
X819895Y471477D01*
X821480Y470821D01*
Y474480D01*
D02*
G37*
G36*
X580179D02*
X576520D01*
Y470821D01*
X578105Y471477D01*
X579523Y472895D01*
X580179Y474480D01*
D02*
G37*
G36*
X713554Y474355D02*
X709895D01*
Y470696D01*
X711480Y471352D01*
X712898Y472770D01*
X713554Y474355D01*
D02*
G37*
G36*
X707355D02*
X703696D01*
X704352Y472770D01*
X705770Y471352D01*
X707355Y470696D01*
Y474355D01*
D02*
G37*
G36*
X35230Y463929D02*
X33645Y463273D01*
X32698Y462325D01*
X32183Y461872D01*
X31045Y462319D01*
X30549Y462815D01*
X28895Y463500D01*
X27105D01*
X25451Y462815D01*
X24185Y461549D01*
X23500Y459895D01*
Y458105D01*
X24185Y456451D01*
X24941Y455695D01*
Y393750D01*
X24941Y393750D01*
X25174Y392579D01*
X25837Y391587D01*
X98750Y318674D01*
Y317605D01*
X99435Y315951D01*
X99931Y315455D01*
X100378Y314317D01*
X99925Y313802D01*
X98977Y312855D01*
X98321Y311270D01*
X108179D01*
X107523Y312855D01*
X106575Y313802D01*
X106123Y314317D01*
X106569Y315455D01*
X107065Y315951D01*
X107750Y317605D01*
Y319395D01*
X107065Y321049D01*
X105799Y322315D01*
X104145Y323000D01*
X103076D01*
X31059Y395017D01*
Y455695D01*
X32182Y456128D01*
X32698Y455675D01*
X33645Y454727D01*
X35230Y454071D01*
Y459000D01*
Y463929D01*
D02*
G37*
G36*
X37770D02*
Y460270D01*
X41429D01*
X40773Y461855D01*
X39355Y463273D01*
X37770Y463929D01*
D02*
G37*
G36*
X492770Y459429D02*
Y455770D01*
X496429D01*
X495773Y457355D01*
X494355Y458773D01*
X492770Y459429D01*
D02*
G37*
G36*
X490230D02*
X488645Y458773D01*
X487227Y457355D01*
X486571Y455770D01*
X490230D01*
Y459429D01*
D02*
G37*
G36*
X1200000Y461309D02*
X1199250D01*
X1198080Y461076D01*
X1197087Y460413D01*
X1196424Y459421D01*
X1196191Y458250D01*
X1196424Y457080D01*
X1197087Y456087D01*
X1198080Y455424D01*
X1199250Y455191D01*
X1200000D01*
X1201171Y455424D01*
X1202163Y456087D01*
X1202826Y457080D01*
X1203059Y458250D01*
X1202826Y459421D01*
X1202163Y460413D01*
X1201171Y461076D01*
X1200000Y461309D01*
D02*
G37*
G36*
X41429Y457730D02*
X37770D01*
Y454071D01*
X39355Y454727D01*
X40773Y456145D01*
X41429Y457730D01*
D02*
G37*
G36*
X940980Y455679D02*
X939395Y455023D01*
X938243Y453871D01*
X937549Y454565D01*
X935895Y455250D01*
X934105D01*
X932451Y454565D01*
X931185Y453299D01*
X930500Y451645D01*
Y449855D01*
X931185Y448201D01*
X931941Y447445D01*
Y306232D01*
X930671Y305706D01*
X930605Y305773D01*
X929020Y306429D01*
Y301500D01*
Y296571D01*
X930605Y297227D01*
X931757Y298379D01*
X932451Y297685D01*
X934105Y297000D01*
X935895D01*
X937549Y297685D01*
X938815Y298951D01*
X939500Y300605D01*
Y302395D01*
X938815Y304049D01*
X938059Y304805D01*
Y419654D01*
X939329Y420444D01*
X940230Y420071D01*
Y425000D01*
Y429929D01*
X939329Y429556D01*
X938059Y430346D01*
Y446017D01*
X939329Y446544D01*
X939395Y446477D01*
X940980Y445821D01*
Y450750D01*
Y455679D01*
D02*
G37*
G36*
X835980D02*
X834395Y455023D01*
X833243Y453871D01*
X832549Y454565D01*
X830895Y455250D01*
X829105D01*
X827451Y454565D01*
X826185Y453299D01*
X825500Y451645D01*
Y449855D01*
X826185Y448201D01*
X826941Y447445D01*
Y332733D01*
X825671Y332206D01*
X825605Y332273D01*
X824020Y332929D01*
Y328000D01*
Y323071D01*
X825605Y323727D01*
X826757Y324879D01*
X827451Y324185D01*
X829105Y323500D01*
X830895D01*
X832549Y324185D01*
X833815Y325451D01*
X834500Y327105D01*
Y328895D01*
X833815Y330549D01*
X833059Y331305D01*
Y446017D01*
X834329Y446544D01*
X834395Y446477D01*
X835980Y445821D01*
Y450750D01*
Y455679D01*
D02*
G37*
G36*
X573980D02*
X572395Y455023D01*
X571243Y453871D01*
X570549Y454565D01*
X568895Y455250D01*
X567105D01*
X565451Y454565D01*
X564185Y453299D01*
X563937Y452701D01*
X562563D01*
X562315Y453299D01*
X561049Y454565D01*
X559395Y455250D01*
X557605D01*
X555951Y454565D01*
X554685Y453299D01*
X554562Y453003D01*
X553188D01*
X553065Y453299D01*
X551799Y454565D01*
X550145Y455250D01*
X548355D01*
X546701Y454565D01*
X545435Y453299D01*
X544750Y451645D01*
Y449855D01*
X545435Y448201D01*
X546191Y447445D01*
Y439767D01*
X435837Y329413D01*
X435174Y328420D01*
X434941Y327250D01*
X434941Y327250D01*
Y324732D01*
X433671Y324206D01*
X433605Y324273D01*
X432020Y324929D01*
Y320000D01*
Y315071D01*
X433605Y315727D01*
X434757Y316879D01*
X435451Y316185D01*
X437105Y315500D01*
X438895D01*
X440549Y316185D01*
X441815Y317451D01*
X442500Y319105D01*
Y320895D01*
X441815Y322549D01*
X441059Y323305D01*
Y325983D01*
X551413Y436337D01*
X552076Y437329D01*
X552309Y438500D01*
Y447445D01*
X553065Y448201D01*
X553188Y448497D01*
X554562D01*
X554685Y448201D01*
X555441Y447445D01*
Y429767D01*
X458174Y332500D01*
X457105D01*
X455451Y331815D01*
X454185Y330549D01*
X453500Y328895D01*
Y327105D01*
X454185Y325451D01*
X454879Y324757D01*
X453727Y323605D01*
X453071Y322020D01*
X462929D01*
X462273Y323605D01*
X461121Y324757D01*
X461815Y325451D01*
X462500Y327105D01*
Y328174D01*
X560663Y426337D01*
X561326Y427329D01*
X561559Y428500D01*
X561559Y428500D01*
Y447445D01*
X562315Y448201D01*
X562563Y448799D01*
X563937D01*
X564185Y448201D01*
X564941Y447445D01*
Y421017D01*
X529837Y385913D01*
X529174Y384921D01*
X528941Y383750D01*
X528941Y383750D01*
Y332733D01*
X527671Y332206D01*
X527605Y332273D01*
X526020Y332929D01*
Y328000D01*
Y323071D01*
X527605Y323727D01*
X528757Y324879D01*
X529451Y324185D01*
X531105Y323500D01*
X532895D01*
X534549Y324185D01*
X535815Y325451D01*
X536500Y327105D01*
Y328895D01*
X535815Y330549D01*
X535059Y331305D01*
Y382483D01*
X570163Y417587D01*
X570163Y417587D01*
X570826Y418579D01*
X571059Y419750D01*
Y446017D01*
X572329Y446544D01*
X572395Y446477D01*
X573980Y445821D01*
Y450750D01*
Y455679D01*
D02*
G37*
G36*
X1013480D02*
X1011895Y455023D01*
X1010948Y454076D01*
X1010433Y453623D01*
X1009295Y454069D01*
X1008799Y454565D01*
X1007145Y455250D01*
X1005355D01*
X1003701Y454565D01*
X1002435Y453299D01*
X1001750Y451645D01*
Y449855D01*
X1002435Y448201D01*
X1003191Y447445D01*
Y343750D01*
X1003191Y343750D01*
X1003424Y342579D01*
X1004087Y341587D01*
X1019837Y325837D01*
X1019837Y325837D01*
X1020829Y325174D01*
X1022000Y324941D01*
X1022000Y324941D01*
X1056695D01*
X1057451Y324185D01*
X1059105Y323500D01*
X1060895D01*
X1062549Y324185D01*
X1063045Y324681D01*
X1064183Y325127D01*
X1064698Y324675D01*
X1065645Y323727D01*
X1067230Y323071D01*
Y328000D01*
Y332929D01*
X1065645Y332273D01*
X1064698Y331325D01*
X1064183Y330872D01*
X1063045Y331319D01*
X1062549Y331815D01*
X1060895Y332500D01*
X1059105D01*
X1057451Y331815D01*
X1056695Y331059D01*
X1023267D01*
X1009309Y345017D01*
Y447445D01*
X1010432Y447878D01*
X1010948Y447425D01*
X1011895Y446477D01*
X1013480Y445821D01*
Y450750D01*
Y455679D01*
D02*
G37*
G36*
X1016020D02*
Y452020D01*
X1019679D01*
X1019023Y453605D01*
X1017605Y455023D01*
X1016020Y455679D01*
D02*
G37*
G36*
X943520D02*
Y452020D01*
X947179D01*
X946523Y453605D01*
X945105Y455023D01*
X943520Y455679D01*
D02*
G37*
G36*
X838520D02*
Y452020D01*
X842179D01*
X841523Y453605D01*
X840105Y455023D01*
X838520Y455679D01*
D02*
G37*
G36*
X724520D02*
Y452020D01*
X728179D01*
X727523Y453605D01*
X726105Y455023D01*
X724520Y455679D01*
D02*
G37*
G36*
X721980D02*
X720395Y455023D01*
X718977Y453605D01*
X718321Y452020D01*
X721980D01*
Y455679D01*
D02*
G37*
G36*
X576520D02*
Y452020D01*
X580179D01*
X579523Y453605D01*
X578105Y455023D01*
X576520Y455679D01*
D02*
G37*
G36*
X496429Y453230D02*
X492770D01*
Y449571D01*
X494355Y450227D01*
X495773Y451645D01*
X496429Y453230D01*
D02*
G37*
G36*
X490230D02*
X486571D01*
X487227Y451645D01*
X488645Y450227D01*
X490230Y449571D01*
Y453230D01*
D02*
G37*
G36*
X1019679Y449480D02*
X1016020D01*
Y445821D01*
X1017605Y446477D01*
X1019023Y447895D01*
X1019679Y449480D01*
D02*
G37*
G36*
X947179D02*
X943520D01*
Y445821D01*
X945105Y446477D01*
X946523Y447895D01*
X947179Y449480D01*
D02*
G37*
G36*
X842179D02*
X838520D01*
Y445821D01*
X840105Y446477D01*
X841523Y447895D01*
X842179Y449480D01*
D02*
G37*
G36*
X728179D02*
X724520D01*
Y445821D01*
X726105Y446477D01*
X727523Y447895D01*
X728179Y449480D01*
D02*
G37*
G36*
X721980D02*
X718321D01*
X718977Y447895D01*
X720395Y446477D01*
X721980Y445821D01*
Y449480D01*
D02*
G37*
G36*
X580179D02*
X576520D01*
Y445821D01*
X578105Y446477D01*
X579523Y447895D01*
X580179Y449480D01*
D02*
G37*
G36*
X472520Y441679D02*
Y438020D01*
X476179D01*
X475523Y439605D01*
X474105Y441023D01*
X472520Y441679D01*
D02*
G37*
G36*
X469980D02*
X468395Y441023D01*
X466977Y439605D01*
X466321Y438020D01*
X469980D01*
Y441679D01*
D02*
G37*
G36*
X432020D02*
Y438020D01*
X435679D01*
X435023Y439605D01*
X433605Y441023D01*
X432020Y441679D01*
D02*
G37*
G36*
X429480D02*
X427895Y441023D01*
X426477Y439605D01*
X425821Y438020D01*
X429480D01*
Y441679D01*
D02*
G37*
G36*
X391520D02*
Y438020D01*
X395179D01*
X394523Y439605D01*
X393105Y441023D01*
X391520Y441679D01*
D02*
G37*
G36*
X388980D02*
X387395Y441023D01*
X385977Y439605D01*
X385321Y438020D01*
X388980D01*
Y441679D01*
D02*
G37*
G36*
X351020D02*
Y438020D01*
X354679D01*
X354023Y439605D01*
X352605Y441023D01*
X351020Y441679D01*
D02*
G37*
G36*
X348480D02*
X346895Y441023D01*
X345477Y439605D01*
X344821Y438020D01*
X348480D01*
Y441679D01*
D02*
G37*
G36*
X310520D02*
Y438020D01*
X314179D01*
X313523Y439605D01*
X312105Y441023D01*
X310520Y441679D01*
D02*
G37*
G36*
X307980D02*
X306395Y441023D01*
X304977Y439605D01*
X304321Y438020D01*
X307980D01*
Y441679D01*
D02*
G37*
G36*
X758770Y437679D02*
Y434020D01*
X762429D01*
X761773Y435605D01*
X760355Y437023D01*
X758770Y437679D01*
D02*
G37*
G36*
X756230D02*
X754645Y437023D01*
X753227Y435605D01*
X752571Y434020D01*
X756230D01*
Y437679D01*
D02*
G37*
G36*
X476179Y435480D02*
X472520D01*
Y431821D01*
X474105Y432477D01*
X475523Y433895D01*
X476179Y435480D01*
D02*
G37*
G36*
X469980D02*
X466321D01*
X466977Y433895D01*
X468395Y432477D01*
X469980Y431821D01*
Y435480D01*
D02*
G37*
G36*
X435679D02*
X432020D01*
Y431821D01*
X433605Y432477D01*
X435023Y433895D01*
X435679Y435480D01*
D02*
G37*
G36*
X429480D02*
X425821D01*
X426477Y433895D01*
X427895Y432477D01*
X429480Y431821D01*
Y435480D01*
D02*
G37*
G36*
X395179D02*
X391520D01*
Y431821D01*
X393105Y432477D01*
X394523Y433895D01*
X395179Y435480D01*
D02*
G37*
G36*
X388980D02*
X385321D01*
X385977Y433895D01*
X387395Y432477D01*
X388980Y431821D01*
Y435480D01*
D02*
G37*
G36*
X354679D02*
X351020D01*
Y431821D01*
X352605Y432477D01*
X354023Y433895D01*
X354679Y435480D01*
D02*
G37*
G36*
X348480D02*
X344821D01*
X345477Y433895D01*
X346895Y432477D01*
X348480Y431821D01*
Y435480D01*
D02*
G37*
G36*
X314179D02*
X310520D01*
Y431821D01*
X312105Y432477D01*
X313523Y433895D01*
X314179Y435480D01*
D02*
G37*
G36*
X307980D02*
X304321D01*
X304977Y433895D01*
X306395Y432477D01*
X307980Y431821D01*
Y435480D01*
D02*
G37*
G36*
X762429Y431480D02*
X758770D01*
Y427821D01*
X760355Y428477D01*
X761773Y429895D01*
X762429Y431480D01*
D02*
G37*
G36*
X756230D02*
X752571D01*
X753227Y429895D01*
X754645Y428477D01*
X756230Y427821D01*
Y431480D01*
D02*
G37*
G36*
X1104770Y429929D02*
Y426270D01*
X1108429D01*
X1107773Y427855D01*
X1106355Y429273D01*
X1104770Y429929D01*
D02*
G37*
G36*
X1102230D02*
X1100645Y429273D01*
X1099227Y427855D01*
X1098571Y426270D01*
X1102230D01*
Y429929D01*
D02*
G37*
G36*
X1064270D02*
Y426270D01*
X1067929D01*
X1067273Y427855D01*
X1065855Y429273D01*
X1064270Y429929D01*
D02*
G37*
G36*
X1061730D02*
X1060145Y429273D01*
X1058727Y427855D01*
X1058071Y426270D01*
X1061730D01*
Y429929D01*
D02*
G37*
G36*
X1023770D02*
Y426270D01*
X1027429D01*
X1026773Y427855D01*
X1025355Y429273D01*
X1023770Y429929D01*
D02*
G37*
G36*
X1021230D02*
X1019645Y429273D01*
X1018227Y427855D01*
X1017571Y426270D01*
X1021230D01*
Y429929D01*
D02*
G37*
G36*
X983270D02*
Y426270D01*
X986929D01*
X986273Y427855D01*
X984855Y429273D01*
X983270Y429929D01*
D02*
G37*
G36*
X980730D02*
X979145Y429273D01*
X977727Y427855D01*
X977071Y426270D01*
X980730D01*
Y429929D01*
D02*
G37*
G36*
X942770D02*
Y426270D01*
X946429D01*
X945773Y427855D01*
X944355Y429273D01*
X942770Y429929D01*
D02*
G37*
G36*
X902270D02*
Y426270D01*
X905929D01*
X905273Y427855D01*
X903855Y429273D01*
X902270Y429929D01*
D02*
G37*
G36*
X899730D02*
X898145Y429273D01*
X896727Y427855D01*
X896071Y426270D01*
X899730D01*
Y429929D01*
D02*
G37*
G36*
X861770D02*
Y426270D01*
X865429D01*
X864773Y427855D01*
X863355Y429273D01*
X861770Y429929D01*
D02*
G37*
G36*
X859230D02*
X857645Y429273D01*
X856227Y427855D01*
X855571Y426270D01*
X859230D01*
Y429929D01*
D02*
G37*
G36*
X1149980Y426929D02*
X1148395Y426273D01*
X1146977Y424855D01*
X1146321Y423270D01*
X1149980D01*
Y426929D01*
D02*
G37*
G36*
X986929Y423730D02*
X983270D01*
Y420071D01*
X984855Y420727D01*
X986273Y422145D01*
X986929Y423730D01*
D02*
G37*
G36*
X980730D02*
X977071D01*
X977727Y422145D01*
X979145Y420727D01*
X980730Y420071D01*
Y423730D01*
D02*
G37*
G36*
X946429D02*
X942770D01*
Y420071D01*
X944355Y420727D01*
X945773Y422145D01*
X946429Y423730D01*
D02*
G37*
G36*
X905929D02*
X902270D01*
Y420071D01*
X903855Y420727D01*
X905273Y422145D01*
X905929Y423730D01*
D02*
G37*
G36*
X899730D02*
X896071D01*
X896727Y422145D01*
X898145Y420727D01*
X899730Y420071D01*
Y423730D01*
D02*
G37*
G36*
X865429D02*
X861770D01*
Y420071D01*
X863355Y420727D01*
X864773Y422145D01*
X865429Y423730D01*
D02*
G37*
G36*
X859230D02*
X855571D01*
X856227Y422145D01*
X857645Y420727D01*
X859230Y420071D01*
Y423730D01*
D02*
G37*
G36*
X1108429D02*
X1104770D01*
Y420071D01*
X1106355Y420727D01*
X1107773Y422145D01*
X1108429Y423730D01*
D02*
G37*
G36*
X1102230D02*
X1098571D01*
X1099227Y422145D01*
X1100645Y420727D01*
X1102230Y420071D01*
Y423730D01*
D02*
G37*
G36*
X1067929D02*
X1064270D01*
Y420071D01*
X1065855Y420727D01*
X1067273Y422145D01*
X1067929Y423730D01*
D02*
G37*
G36*
X1061730D02*
X1058071D01*
X1058727Y422145D01*
X1060145Y420727D01*
X1061730Y420071D01*
Y423730D01*
D02*
G37*
G36*
X1027429D02*
X1023770D01*
Y420071D01*
X1025355Y420727D01*
X1026773Y422145D01*
X1027429Y423730D01*
D02*
G37*
G36*
X1021230D02*
X1017571D01*
X1018227Y422145D01*
X1019645Y420727D01*
X1021230Y420071D01*
Y423730D01*
D02*
G37*
G36*
X1149980Y420730D02*
X1146321D01*
X1146977Y419145D01*
X1148395Y417727D01*
X1149980Y417071D01*
Y420730D01*
D02*
G37*
G36*
X776270Y419929D02*
Y416270D01*
X779929D01*
X779273Y417855D01*
X777855Y419273D01*
X776270Y419929D01*
D02*
G37*
G36*
X773730D02*
X772145Y419273D01*
X770727Y417855D01*
X770071Y416270D01*
X773730D01*
Y419929D01*
D02*
G37*
G36*
X716020Y417679D02*
Y414020D01*
X719679D01*
X719023Y415605D01*
X717605Y417023D01*
X716020Y417679D01*
D02*
G37*
G36*
X713480D02*
X711895Y417023D01*
X710477Y415605D01*
X709821Y414020D01*
X713480D01*
Y417679D01*
D02*
G37*
G36*
X626020D02*
Y414020D01*
X629679D01*
X629023Y415605D01*
X627605Y417023D01*
X626020Y417679D01*
D02*
G37*
G36*
X623480D02*
X621895Y417023D01*
X620477Y415605D01*
X619821Y414020D01*
X623480D01*
Y417679D01*
D02*
G37*
G36*
X585520D02*
Y414020D01*
X589179D01*
X588523Y415605D01*
X587105Y417023D01*
X585520Y417679D01*
D02*
G37*
G36*
X582980D02*
X581395Y417023D01*
X579977Y415605D01*
X579321Y414020D01*
X582980D01*
Y417679D01*
D02*
G37*
G36*
X779929Y413730D02*
X776270D01*
Y410071D01*
X777855Y410727D01*
X779273Y412145D01*
X779929Y413730D01*
D02*
G37*
G36*
X773730D02*
X770071D01*
X770727Y412145D01*
X772145Y410727D01*
X773730Y410071D01*
Y413730D01*
D02*
G37*
G36*
X719679Y411480D02*
X716020D01*
Y407821D01*
X717605Y408477D01*
X719023Y409895D01*
X719679Y411480D01*
D02*
G37*
G36*
X713480D02*
X709821D01*
X710477Y409895D01*
X711895Y408477D01*
X713480Y407821D01*
Y411480D01*
D02*
G37*
G36*
X629679D02*
X626020D01*
Y407821D01*
X627605Y408477D01*
X629023Y409895D01*
X629679Y411480D01*
D02*
G37*
G36*
X623480D02*
X619821D01*
X620477Y409895D01*
X621895Y408477D01*
X623480Y407821D01*
Y411480D01*
D02*
G37*
G36*
X589179D02*
X585520D01*
Y407821D01*
X587105Y408477D01*
X588523Y409895D01*
X589179Y411480D01*
D02*
G37*
G36*
X582980D02*
X579321D01*
X579977Y409895D01*
X581395Y408477D01*
X582980Y407821D01*
Y411480D01*
D02*
G37*
G36*
X1200520Y408429D02*
Y404770D01*
X1204179D01*
X1203523Y406355D01*
X1202105Y407773D01*
X1200520Y408429D01*
D02*
G37*
G36*
X1197980D02*
X1196395Y407773D01*
X1194977Y406355D01*
X1194321Y404770D01*
X1197980D01*
Y408429D01*
D02*
G37*
G36*
X1251266Y422370D02*
X1248734D01*
X1246287Y421714D01*
X1244093Y420448D01*
X1242302Y418657D01*
X1241036Y416463D01*
X1240380Y414016D01*
Y411483D01*
X1241036Y409037D01*
X1242302Y406843D01*
X1244093Y405052D01*
X1246287Y403786D01*
X1248734Y403130D01*
X1251266D01*
X1253713Y403786D01*
X1255907Y405052D01*
X1257698Y406843D01*
X1258964Y409037D01*
X1259620Y411483D01*
Y414016D01*
X1258964Y416463D01*
X1257698Y418657D01*
X1255907Y420448D01*
X1253713Y421714D01*
X1251266Y422370D01*
D02*
G37*
G36*
X151266D02*
X148734D01*
X146287Y421714D01*
X144093Y420448D01*
X142302Y418657D01*
X141036Y416463D01*
X140380Y414016D01*
Y411483D01*
X141036Y409037D01*
X142302Y406843D01*
X144093Y405052D01*
X146287Y403786D01*
X148734Y403130D01*
X151266D01*
X153713Y403786D01*
X155907Y405052D01*
X157698Y406843D01*
X158964Y409037D01*
X159620Y411483D01*
Y414016D01*
X158964Y416463D01*
X157698Y418657D01*
X155907Y420448D01*
X153713Y421714D01*
X151266Y422370D01*
D02*
G37*
G36*
X793770Y402179D02*
Y398520D01*
X797429D01*
X796773Y400105D01*
X795355Y401523D01*
X793770Y402179D01*
D02*
G37*
G36*
X791230D02*
X789645Y401523D01*
X788227Y400105D01*
X787571Y398520D01*
X791230D01*
Y402179D01*
D02*
G37*
G36*
X202395Y408000D02*
X200605D01*
X198951Y407315D01*
X197685Y406049D01*
X197000Y404395D01*
Y402605D01*
X197685Y400951D01*
X198254Y400382D01*
X197227Y399355D01*
X196571Y397770D01*
X206429D01*
X205773Y399355D01*
X204746Y400382D01*
X205315Y400951D01*
X206000Y402605D01*
Y404395D01*
X205315Y406049D01*
X204049Y407315D01*
X202395Y408000D01*
D02*
G37*
G36*
X752020Y398179D02*
Y394520D01*
X755679D01*
X755023Y396105D01*
X753605Y397523D01*
X752020Y398179D01*
D02*
G37*
G36*
X749480D02*
X747895Y397523D01*
X746477Y396105D01*
X745821Y394520D01*
X749480D01*
Y398179D01*
D02*
G37*
G36*
X797429Y395980D02*
X793770D01*
Y392321D01*
X795355Y392977D01*
X796773Y394395D01*
X797429Y395980D01*
D02*
G37*
G36*
X791230D02*
X787571D01*
X788227Y394395D01*
X789645Y392977D01*
X791230Y392321D01*
Y395980D01*
D02*
G37*
G36*
X1204179Y402230D02*
X1194321D01*
X1194977Y400645D01*
X1196004Y399618D01*
X1195435Y399049D01*
X1194750Y397395D01*
Y395605D01*
X1195435Y393951D01*
X1196701Y392685D01*
X1198355Y392000D01*
X1200145D01*
X1201799Y392685D01*
X1203065Y393951D01*
X1203750Y395605D01*
Y397395D01*
X1203065Y399049D01*
X1202496Y399618D01*
X1203523Y400645D01*
X1204179Y402230D01*
D02*
G37*
G36*
X206429Y395230D02*
X202770D01*
Y391571D01*
X204355Y392227D01*
X205773Y393645D01*
X206429Y395230D01*
D02*
G37*
G36*
X200230D02*
X196571D01*
X197227Y393645D01*
X198645Y392227D01*
X200230Y391571D01*
Y395230D01*
D02*
G37*
G36*
X755679Y391980D02*
X752020D01*
Y388321D01*
X753605Y388977D01*
X755023Y390395D01*
X755679Y391980D01*
D02*
G37*
G36*
X749480D02*
X745821D01*
X746477Y390395D01*
X747895Y388977D01*
X749480Y388321D01*
Y391980D01*
D02*
G37*
G36*
X811270Y384429D02*
Y380770D01*
X814929D01*
X814273Y382355D01*
X812855Y383773D01*
X811270Y384429D01*
D02*
G37*
G36*
X808730D02*
X807145Y383773D01*
X805727Y382355D01*
X805071Y380770D01*
X808730D01*
Y384429D01*
D02*
G37*
G36*
X250020Y383679D02*
Y380020D01*
X253679D01*
X253023Y381605D01*
X251605Y383023D01*
X250020Y383679D01*
D02*
G37*
G36*
X1251266Y396870D02*
X1248734D01*
X1246287Y396214D01*
X1244093Y394948D01*
X1242302Y393157D01*
X1241036Y390963D01*
X1240380Y388517D01*
Y385984D01*
X1241036Y383537D01*
X1242302Y381343D01*
X1244093Y379552D01*
X1246287Y378286D01*
X1248734Y377630D01*
X1251266D01*
X1253713Y378286D01*
X1255907Y379552D01*
X1257698Y381343D01*
X1258964Y383537D01*
X1259620Y385984D01*
Y388517D01*
X1258964Y390963D01*
X1257698Y393157D01*
X1255907Y394948D01*
X1253713Y396214D01*
X1251266Y396870D01*
D02*
G37*
G36*
X151266D02*
X148734D01*
X146287Y396214D01*
X144093Y394948D01*
X142302Y393157D01*
X141036Y390963D01*
X140380Y388517D01*
Y385984D01*
X141036Y383537D01*
X142302Y381343D01*
X144093Y379552D01*
X146287Y378286D01*
X148734Y377630D01*
X151266D01*
X153713Y378286D01*
X155907Y379552D01*
X157698Y381343D01*
X158964Y383537D01*
X159620Y385984D01*
Y388517D01*
X158964Y390963D01*
X157698Y393157D01*
X155907Y394948D01*
X153713Y396214D01*
X151266Y396870D01*
D02*
G37*
G36*
X769520Y380429D02*
Y376770D01*
X773179D01*
X772523Y378355D01*
X771105Y379773D01*
X769520Y380429D01*
D02*
G37*
G36*
X766980D02*
X765395Y379773D01*
X763977Y378355D01*
X763321Y376770D01*
X766980D01*
Y380429D01*
D02*
G37*
G36*
X472520Y380179D02*
Y376520D01*
X476179D01*
X475523Y378105D01*
X474105Y379523D01*
X472520Y380179D01*
D02*
G37*
G36*
X469980D02*
X468395Y379523D01*
X466977Y378105D01*
X466321Y376520D01*
X469980D01*
Y380179D01*
D02*
G37*
G36*
X432020D02*
Y376520D01*
X435679D01*
X435023Y378105D01*
X433605Y379523D01*
X432020Y380179D01*
D02*
G37*
G36*
X429480D02*
X427895Y379523D01*
X426477Y378105D01*
X425821Y376520D01*
X429480D01*
Y380179D01*
D02*
G37*
G36*
X391520D02*
Y376520D01*
X395179D01*
X394523Y378105D01*
X393105Y379523D01*
X391520Y380179D01*
D02*
G37*
G36*
X388980D02*
X387395Y379523D01*
X385977Y378105D01*
X385321Y376520D01*
X388980D01*
Y380179D01*
D02*
G37*
G36*
X351020D02*
Y376520D01*
X354679D01*
X354023Y378105D01*
X352605Y379523D01*
X351020Y380179D01*
D02*
G37*
G36*
X348480D02*
X346895Y379523D01*
X345477Y378105D01*
X344821Y376520D01*
X348480D01*
Y380179D01*
D02*
G37*
G36*
X310520D02*
Y376520D01*
X314179D01*
X313523Y378105D01*
X312105Y379523D01*
X310520Y380179D01*
D02*
G37*
G36*
X307980D02*
X306395Y379523D01*
X304977Y378105D01*
X304321Y376520D01*
X307980D01*
Y380179D01*
D02*
G37*
G36*
X814929Y378230D02*
X811270D01*
Y374571D01*
X812855Y375227D01*
X814273Y376645D01*
X814929Y378230D01*
D02*
G37*
G36*
X808730D02*
X805071D01*
X805727Y376645D01*
X807145Y375227D01*
X808730Y374571D01*
Y378230D01*
D02*
G37*
G36*
X665770Y378179D02*
Y374520D01*
X669429D01*
X668773Y376105D01*
X667355Y377523D01*
X665770Y378179D01*
D02*
G37*
G36*
X663230D02*
X661645Y377523D01*
X660227Y376105D01*
X659571Y374520D01*
X663230D01*
Y378179D01*
D02*
G37*
G36*
X588770D02*
Y374520D01*
X592429D01*
X591773Y376105D01*
X590355Y377523D01*
X588770Y378179D01*
D02*
G37*
G36*
X586230D02*
X584645Y377523D01*
X583227Y376105D01*
X582571Y374520D01*
X586230D01*
Y378179D01*
D02*
G37*
G36*
X548270D02*
Y374520D01*
X551929D01*
X551273Y376105D01*
X549855Y377523D01*
X548270Y378179D01*
D02*
G37*
G36*
X545730D02*
X544145Y377523D01*
X542727Y376105D01*
X542071Y374520D01*
X545730D01*
Y378179D01*
D02*
G37*
G36*
X253679Y377480D02*
X250020D01*
Y373821D01*
X251605Y374477D01*
X253023Y375895D01*
X253679Y377480D01*
D02*
G37*
G36*
X773179Y374230D02*
X769520D01*
Y370571D01*
X771105Y371227D01*
X772523Y372645D01*
X773179Y374230D01*
D02*
G37*
G36*
X766980D02*
X763321D01*
X763977Y372645D01*
X765395Y371227D01*
X766980Y370571D01*
Y374230D01*
D02*
G37*
G36*
X476179Y373980D02*
X472520D01*
Y370321D01*
X474105Y370977D01*
X475523Y372395D01*
X476179Y373980D01*
D02*
G37*
G36*
X469980D02*
X466321D01*
X466977Y372395D01*
X468395Y370977D01*
X469980Y370321D01*
Y373980D01*
D02*
G37*
G36*
X435679D02*
X432020D01*
Y370321D01*
X433605Y370977D01*
X435023Y372395D01*
X435679Y373980D01*
D02*
G37*
G36*
X429480D02*
X425821D01*
X426477Y372395D01*
X427895Y370977D01*
X429480Y370321D01*
Y373980D01*
D02*
G37*
G36*
X395179D02*
X391520D01*
Y370321D01*
X393105Y370977D01*
X394523Y372395D01*
X395179Y373980D01*
D02*
G37*
G36*
X388980D02*
X385321D01*
X385977Y372395D01*
X387395Y370977D01*
X388980Y370321D01*
Y373980D01*
D02*
G37*
G36*
X354679D02*
X351020D01*
Y370321D01*
X352605Y370977D01*
X354023Y372395D01*
X354679Y373980D01*
D02*
G37*
G36*
X348480D02*
X344821D01*
X345477Y372395D01*
X346895Y370977D01*
X348480Y370321D01*
Y373980D01*
D02*
G37*
G36*
X314179D02*
X310520D01*
Y370321D01*
X312105Y370977D01*
X313523Y372395D01*
X314179Y373980D01*
D02*
G37*
G36*
X307980D02*
X304321D01*
X304977Y372395D01*
X306395Y370977D01*
X307980Y370321D01*
Y373980D01*
D02*
G37*
G36*
X669429Y371980D02*
X665770D01*
Y368321D01*
X667355Y368977D01*
X668773Y370395D01*
X669429Y371980D01*
D02*
G37*
G36*
X663230D02*
X659571D01*
X660227Y370395D01*
X661645Y368977D01*
X663230Y368321D01*
Y371980D01*
D02*
G37*
G36*
X592429D02*
X588770D01*
Y368321D01*
X590355Y368977D01*
X591773Y370395D01*
X592429Y371980D01*
D02*
G37*
G36*
X586230D02*
X582571D01*
X583227Y370395D01*
X584645Y368977D01*
X586230Y368321D01*
Y371980D01*
D02*
G37*
G36*
X551929D02*
X548270D01*
Y368321D01*
X549855Y368977D01*
X551273Y370395D01*
X551929Y371980D01*
D02*
G37*
G36*
X545730D02*
X542071D01*
X542727Y370395D01*
X544145Y368977D01*
X545730Y368321D01*
Y371980D01*
D02*
G37*
G36*
X902520Y368429D02*
Y364770D01*
X906179D01*
X905523Y366355D01*
X904105Y367773D01*
X902520Y368429D01*
D02*
G37*
G36*
X899980D02*
X898395Y367773D01*
X896977Y366355D01*
X896321Y364770D01*
X899980D01*
Y368429D01*
D02*
G37*
G36*
X862020D02*
Y364770D01*
X865679D01*
X865023Y366355D01*
X863605Y367773D01*
X862020Y368429D01*
D02*
G37*
G36*
X859480D02*
X857895Y367773D01*
X856477Y366355D01*
X855821Y364770D01*
X859480D01*
Y368429D01*
D02*
G37*
G36*
X1064520Y365929D02*
Y362270D01*
X1068179D01*
X1067523Y363855D01*
X1066105Y365273D01*
X1064520Y365929D01*
D02*
G37*
G36*
X1061980D02*
X1060395Y365273D01*
X1058977Y363855D01*
X1058321Y362270D01*
X1061980D01*
Y365929D01*
D02*
G37*
G36*
X1024020D02*
Y362270D01*
X1027679D01*
X1027023Y363855D01*
X1025605Y365273D01*
X1024020Y365929D01*
D02*
G37*
G36*
X1021480D02*
X1019895Y365273D01*
X1018477Y363855D01*
X1017821Y362270D01*
X1021480D01*
Y365929D01*
D02*
G37*
G36*
X983520D02*
Y362270D01*
X987179D01*
X986523Y363855D01*
X985105Y365273D01*
X983520Y365929D01*
D02*
G37*
G36*
X980980D02*
X979395Y365273D01*
X977977Y363855D01*
X977321Y362270D01*
X980980D01*
Y365929D01*
D02*
G37*
G36*
X906179Y362230D02*
X902520D01*
Y358571D01*
X904105Y359227D01*
X905523Y360645D01*
X906179Y362230D01*
D02*
G37*
G36*
X899980D02*
X896321D01*
X896977Y360645D01*
X898395Y359227D01*
X899980Y358571D01*
Y362230D01*
D02*
G37*
G36*
X865679D02*
X862020D01*
Y358571D01*
X863605Y359227D01*
X865023Y360645D01*
X865679Y362230D01*
D02*
G37*
G36*
X859480D02*
X855821D01*
X856477Y360645D01*
X857895Y359227D01*
X859480Y358571D01*
Y362230D01*
D02*
G37*
G36*
X1068179Y359730D02*
X1064520D01*
Y356071D01*
X1066105Y356727D01*
X1067523Y358145D01*
X1068179Y359730D01*
D02*
G37*
G36*
X1061980D02*
X1058321D01*
X1058977Y358145D01*
X1060395Y356727D01*
X1061980Y356071D01*
Y359730D01*
D02*
G37*
G36*
X1027679D02*
X1024020D01*
Y356071D01*
X1025605Y356727D01*
X1027023Y358145D01*
X1027679Y359730D01*
D02*
G37*
G36*
X1021480D02*
X1017821D01*
X1018477Y358145D01*
X1019895Y356727D01*
X1021480Y356071D01*
Y359730D01*
D02*
G37*
G36*
X987179D02*
X983520D01*
Y356071D01*
X985105Y356727D01*
X986523Y358145D01*
X987179Y359730D01*
D02*
G37*
G36*
X980980D02*
X977321D01*
X977977Y358145D01*
X979395Y356727D01*
X980980Y356071D01*
Y359730D01*
D02*
G37*
G36*
X749520Y347679D02*
Y344020D01*
X753179D01*
X752523Y345605D01*
X751105Y347023D01*
X749520Y347679D01*
D02*
G37*
G36*
X746980D02*
X745395Y347023D01*
X743977Y345605D01*
X743321Y344020D01*
X746980D01*
Y347679D01*
D02*
G37*
G36*
X1133770Y344429D02*
Y340770D01*
X1137429D01*
X1136773Y342355D01*
X1135355Y343773D01*
X1133770Y344429D01*
D02*
G37*
G36*
X1131230D02*
X1129645Y343773D01*
X1128227Y342355D01*
X1127571Y340770D01*
X1131230D01*
Y344429D01*
D02*
G37*
G36*
X281395Y521750D02*
X279605D01*
X277951Y521065D01*
X276685Y519799D01*
X276000Y518145D01*
Y516355D01*
X276685Y514701D01*
X277441Y513945D01*
Y469517D01*
X237837Y429913D01*
X237174Y428921D01*
X236941Y427750D01*
X236941Y427750D01*
Y381805D01*
X236185Y381049D01*
X235500Y379395D01*
Y377605D01*
X236185Y375951D01*
X236941Y375195D01*
Y329750D01*
X236941Y329750D01*
X237174Y328579D01*
X237837Y327587D01*
X277087Y288337D01*
X277087Y288337D01*
X278079Y287674D01*
X279250Y287441D01*
X1105500D01*
X1105500Y287441D01*
X1106671Y287674D01*
X1107663Y288337D01*
X1157696Y338370D01*
X1159078Y338000D01*
X1160922D01*
X1162702Y338477D01*
X1164298Y339399D01*
X1165601Y340702D01*
X1166523Y342298D01*
X1167000Y344078D01*
Y345922D01*
X1166523Y347702D01*
X1165601Y349298D01*
X1164298Y350601D01*
X1163059Y351317D01*
Y418695D01*
X1163815Y419451D01*
X1164500Y421105D01*
Y422895D01*
X1163815Y424549D01*
X1162549Y425815D01*
X1160895Y426500D01*
X1159105D01*
X1157451Y425815D01*
X1156778Y425142D01*
X1155662Y424887D01*
X1155177Y425200D01*
X1154105Y426273D01*
X1152520Y426929D01*
Y422000D01*
Y417071D01*
X1154105Y417727D01*
X1155177Y418800D01*
X1155662Y419113D01*
X1156778Y418858D01*
X1156941Y418695D01*
Y351317D01*
X1155702Y350601D01*
X1154399Y349298D01*
X1153477Y347702D01*
X1153000Y345922D01*
Y344078D01*
X1153370Y342696D01*
X1104233Y293559D01*
X280517D01*
X243059Y331017D01*
Y375195D01*
X243295Y375431D01*
X244184Y375780D01*
X244948Y375424D01*
X245895Y374477D01*
X247480Y373821D01*
Y378750D01*
Y383679D01*
X245895Y383023D01*
X244698Y381825D01*
X244450Y381607D01*
X243148Y381716D01*
X243059Y381805D01*
Y426483D01*
X282663Y466087D01*
X282663Y466087D01*
X283326Y467080D01*
X283559Y468250D01*
X283559Y468250D01*
Y513945D01*
X284315Y514701D01*
X285000Y516355D01*
Y518145D01*
X284315Y519799D01*
X283049Y521065D01*
X281395Y521750D01*
D02*
G37*
G36*
X753179Y341480D02*
X749520D01*
Y337821D01*
X751105Y338477D01*
X752523Y339895D01*
X753179Y341480D01*
D02*
G37*
G36*
X746980D02*
X743321D01*
X743977Y339895D01*
X745395Y338477D01*
X746980Y337821D01*
Y341480D01*
D02*
G37*
G36*
X551270Y340179D02*
Y336520D01*
X554929D01*
X554273Y338105D01*
X552855Y339523D01*
X551270Y340179D01*
D02*
G37*
G36*
X548730D02*
X547145Y339523D01*
X545727Y338105D01*
X545071Y336520D01*
X548730D01*
Y340179D01*
D02*
G37*
G36*
X1137429Y338230D02*
X1133770D01*
Y334571D01*
X1135355Y335227D01*
X1136773Y336645D01*
X1137429Y338230D01*
D02*
G37*
G36*
X1131230D02*
X1127571D01*
X1128227Y336645D01*
X1129645Y335227D01*
X1131230Y334571D01*
Y338230D01*
D02*
G37*
G36*
X604645Y455250D02*
X602855D01*
X601201Y454565D01*
X599935Y453299D01*
X599250Y451645D01*
Y449855D01*
X599935Y448201D01*
X600416Y447720D01*
Y361131D01*
X570619Y331334D01*
X554871D01*
X554359Y332604D01*
X554929Y333980D01*
X545071D01*
X545727Y332395D01*
X546879Y331243D01*
X546185Y330549D01*
X545500Y328895D01*
Y327105D01*
X546185Y325451D01*
X547451Y324185D01*
X549105Y323500D01*
X550895D01*
X552549Y324185D01*
X553030Y324666D01*
X572000D01*
X573276Y324920D01*
X574358Y325643D01*
X606108Y357393D01*
X606830Y358474D01*
X607084Y359750D01*
Y447720D01*
X607565Y448201D01*
X608250Y449855D01*
Y451645D01*
X607565Y453299D01*
X606299Y454565D01*
X604645Y455250D01*
D02*
G37*
G36*
X1069770Y332929D02*
Y329270D01*
X1073429D01*
X1072773Y330855D01*
X1071355Y332273D01*
X1069770Y332929D01*
D02*
G37*
G36*
X821480D02*
X819895Y332273D01*
X818477Y330855D01*
X817821Y329270D01*
X821480D01*
Y332929D01*
D02*
G37*
G36*
X523480D02*
X521895Y332273D01*
X520477Y330855D01*
X519821Y329270D01*
X523480D01*
Y332929D01*
D02*
G37*
G36*
X902520Y332929D02*
Y329270D01*
X906179D01*
X905523Y330855D01*
X904105Y332273D01*
X902520Y332929D01*
D02*
G37*
G36*
X899980D02*
X898395Y332273D01*
X896977Y330855D01*
X896321Y329270D01*
X899980D01*
Y332929D01*
D02*
G37*
G36*
X862020D02*
Y329270D01*
X865679D01*
X865023Y330855D01*
X863605Y332273D01*
X862020Y332929D01*
D02*
G37*
G36*
X859480D02*
X857895Y332273D01*
X856477Y330855D01*
X855821Y329270D01*
X859480D01*
Y332929D01*
D02*
G37*
G36*
X782520Y330929D02*
Y327270D01*
X786179D01*
X785523Y328855D01*
X784105Y330273D01*
X782520Y330929D01*
D02*
G37*
G36*
X779980D02*
X778395Y330273D01*
X776977Y328855D01*
X776321Y327270D01*
X779980D01*
Y330929D01*
D02*
G37*
G36*
X1073429Y326730D02*
X1069770D01*
Y323071D01*
X1071355Y323727D01*
X1072773Y325145D01*
X1073429Y326730D01*
D02*
G37*
G36*
X821480D02*
X817821D01*
X818477Y325145D01*
X819895Y323727D01*
X821480Y323071D01*
Y326730D01*
D02*
G37*
G36*
X523480D02*
X519821D01*
X520477Y325145D01*
X521895Y323727D01*
X523480Y323071D01*
Y326730D01*
D02*
G37*
G36*
X906179Y326730D02*
X902520D01*
Y323071D01*
X904105Y323727D01*
X905523Y325145D01*
X906179Y326730D01*
D02*
G37*
G36*
X899980D02*
X896321D01*
X896977Y325145D01*
X898395Y323727D01*
X899980Y323071D01*
Y326730D01*
D02*
G37*
G36*
X865679D02*
X862020D01*
Y323071D01*
X863605Y323727D01*
X865023Y325145D01*
X865679Y326730D01*
D02*
G37*
G36*
X859480D02*
X855821D01*
X856477Y325145D01*
X857895Y323727D01*
X859480Y323071D01*
Y326730D01*
D02*
G37*
G36*
X1073000Y413117D02*
X1070659Y412652D01*
X1068674Y411326D01*
X1067348Y409341D01*
X1066882Y407000D01*
Y379000D01*
X1067348Y376659D01*
X1068674Y374674D01*
X1118674Y324674D01*
X1120659Y323348D01*
X1123000Y322882D01*
X1123250D01*
X1125591Y323348D01*
X1127576Y324674D01*
X1128902Y326659D01*
X1129368Y329000D01*
X1128902Y331341D01*
X1127576Y333326D01*
X1126822Y333829D01*
X1079118Y381534D01*
Y407000D01*
X1078652Y409341D01*
X1077326Y411326D01*
X1075341Y412652D01*
X1073000Y413117D01*
D02*
G37*
G36*
X964270Y325679D02*
Y322020D01*
X967929D01*
X967273Y323605D01*
X965855Y325023D01*
X964270Y325679D01*
D02*
G37*
G36*
X961730D02*
X960145Y325023D01*
X958727Y323605D01*
X958071Y322020D01*
X961730D01*
Y325679D01*
D02*
G37*
G36*
X1159770Y325179D02*
Y321520D01*
X1163429D01*
X1162773Y323105D01*
X1161355Y324523D01*
X1159770Y325179D01*
D02*
G37*
G36*
X1157230D02*
X1155645Y324523D01*
X1154227Y323105D01*
X1153571Y321520D01*
X1157230D01*
Y325179D01*
D02*
G37*
G36*
X429480Y324929D02*
X427895Y324273D01*
X426477Y322855D01*
X425821Y321270D01*
X429480D01*
Y324929D01*
D02*
G37*
G36*
X786179Y324730D02*
X782520D01*
Y321071D01*
X784105Y321727D01*
X785523Y323145D01*
X786179Y324730D01*
D02*
G37*
G36*
X779980D02*
X776321D01*
X776977Y323145D01*
X778395Y321727D01*
X779980Y321071D01*
Y324730D01*
D02*
G37*
G36*
X702322Y379500D02*
X697678D01*
X693092Y378774D01*
X688676Y377339D01*
X684539Y375231D01*
X680782Y372501D01*
X677499Y369218D01*
X674769Y365461D01*
X672661Y361324D01*
X671226Y356908D01*
X670500Y352322D01*
Y347678D01*
X671226Y343092D01*
X672661Y338676D01*
X674769Y334539D01*
X677499Y330782D01*
X680782Y327499D01*
X684539Y324769D01*
X688676Y322661D01*
X693092Y321226D01*
X697678Y320500D01*
X702322D01*
X706908Y321226D01*
X711324Y322661D01*
X715461Y324769D01*
X719218Y327499D01*
X722501Y330782D01*
X725231Y334539D01*
X727339Y338676D01*
X728774Y343092D01*
X729500Y347678D01*
Y352322D01*
X728774Y356908D01*
X727339Y361324D01*
X725231Y365461D01*
X722501Y369218D01*
X719218Y372501D01*
X715461Y375231D01*
X711324Y377339D01*
X706908Y378774D01*
X702322Y379500D01*
D02*
G37*
G36*
X1115020Y323429D02*
Y319770D01*
X1118679D01*
X1118023Y321355D01*
X1116605Y322773D01*
X1115020Y323429D01*
D02*
G37*
G36*
X1112480D02*
X1110895Y322773D01*
X1109477Y321355D01*
X1108821Y319770D01*
X1112480D01*
Y323429D01*
D02*
G37*
G36*
X967929Y319480D02*
X964270D01*
Y315821D01*
X965855Y316477D01*
X967273Y317895D01*
X967929Y319480D01*
D02*
G37*
G36*
X961730D02*
X958071D01*
X958727Y317895D01*
X960145Y316477D01*
X961730Y315821D01*
Y319480D01*
D02*
G37*
G36*
X462929Y319480D02*
X459270D01*
Y315821D01*
X460855Y316477D01*
X462273Y317895D01*
X462929Y319480D01*
D02*
G37*
G36*
X456730D02*
X453071D01*
X453727Y317895D01*
X455145Y316477D01*
X456730Y315821D01*
Y319480D01*
D02*
G37*
G36*
X1163429Y318980D02*
X1159770D01*
Y315321D01*
X1161355Y315977D01*
X1162773Y317395D01*
X1163429Y318980D01*
D02*
G37*
G36*
X1157230D02*
X1153571D01*
X1154227Y317395D01*
X1155645Y315977D01*
X1157230Y315321D01*
Y318980D01*
D02*
G37*
G36*
X429480Y318730D02*
X425821D01*
X426477Y317145D01*
X427895Y315727D01*
X429480Y315071D01*
Y318730D01*
D02*
G37*
G36*
X1118679Y317230D02*
X1115020D01*
Y313571D01*
X1116605Y314227D01*
X1118023Y315645D01*
X1118679Y317230D01*
D02*
G37*
G36*
X1112480D02*
X1108821D01*
X1109477Y315645D01*
X1110895Y314227D01*
X1112480Y313571D01*
Y317230D01*
D02*
G37*
G36*
X108179Y308730D02*
X104520D01*
Y305071D01*
X106105Y305727D01*
X107523Y307145D01*
X108179Y308730D01*
D02*
G37*
G36*
X101980D02*
X98321D01*
X98977Y307145D01*
X100395Y305727D01*
X101980Y305071D01*
Y308730D01*
D02*
G37*
G36*
X1177520Y307679D02*
Y304020D01*
X1181179D01*
X1180523Y305605D01*
X1179105Y307023D01*
X1177520Y307679D01*
D02*
G37*
G36*
X1174980D02*
X1173395Y307023D01*
X1171977Y305605D01*
X1171321Y304020D01*
X1174980D01*
Y307679D01*
D02*
G37*
G36*
X926480Y306429D02*
X924895Y305773D01*
X923477Y304355D01*
X922821Y302770D01*
X926480D01*
Y306429D01*
D02*
G37*
G36*
X1181179Y301480D02*
X1177520D01*
Y297821D01*
X1179105Y298477D01*
X1180523Y299895D01*
X1181179Y301480D01*
D02*
G37*
G36*
X1174980D02*
X1171321D01*
X1171977Y299895D01*
X1173395Y298477D01*
X1174980Y297821D01*
Y301480D01*
D02*
G37*
G36*
X926480Y300230D02*
X922821D01*
X923477Y298645D01*
X924895Y297227D01*
X926480Y296571D01*
Y300230D01*
D02*
G37*
G36*
X1195270Y290179D02*
Y286520D01*
X1198929D01*
X1198273Y288105D01*
X1196855Y289523D01*
X1195270Y290179D01*
D02*
G37*
G36*
X1192730D02*
X1191145Y289523D01*
X1189727Y288105D01*
X1189071Y286520D01*
X1192730D01*
Y290179D01*
D02*
G37*
G36*
X1198929Y283980D02*
X1195270D01*
Y280321D01*
X1196855Y280977D01*
X1198273Y282395D01*
X1198929Y283980D01*
D02*
G37*
G36*
X1192730D02*
X1189071D01*
X1189727Y282395D01*
X1191145Y280977D01*
X1192730Y280321D01*
Y283980D01*
D02*
G37*
G36*
X955270Y282429D02*
Y278770D01*
X958929D01*
X958273Y280355D01*
X956855Y281773D01*
X955270Y282429D01*
D02*
G37*
G36*
X952730D02*
X951145Y281773D01*
X949727Y280355D01*
X949071Y278770D01*
X952730D01*
Y282429D01*
D02*
G37*
G36*
X958929Y276230D02*
X955270D01*
Y272571D01*
X956855Y273227D01*
X958273Y274645D01*
X958929Y276230D01*
D02*
G37*
G36*
X952730D02*
X949071D01*
X949727Y274645D01*
X951145Y273227D01*
X952730Y272571D01*
Y276230D01*
D02*
G37*
G36*
X1213020Y272679D02*
Y269020D01*
X1216679D01*
X1216023Y270605D01*
X1214605Y272023D01*
X1213020Y272679D01*
D02*
G37*
G36*
X1210480D02*
X1208895Y272023D01*
X1207477Y270605D01*
X1206821Y269020D01*
X1210480D01*
Y272679D01*
D02*
G37*
G36*
X1216679Y266480D02*
X1213020D01*
Y262821D01*
X1214605Y263477D01*
X1216023Y264895D01*
X1216679Y266480D01*
D02*
G37*
G36*
X1210480D02*
X1206821D01*
X1207477Y264895D01*
X1208895Y263477D01*
X1210480Y262821D01*
Y266480D01*
D02*
G37*
G36*
X972770Y264679D02*
Y261020D01*
X976429D01*
X975773Y262605D01*
X974355Y264023D01*
X972770Y264679D01*
D02*
G37*
G36*
X970230D02*
X968645Y264023D01*
X967227Y262605D01*
X966571Y261020D01*
X970230D01*
Y264679D01*
D02*
G37*
G36*
X1099409Y284500D02*
X1095591D01*
X1091903Y283512D01*
X1088597Y281603D01*
X1085897Y278903D01*
X1083988Y275597D01*
X1083000Y271909D01*
Y268091D01*
X1083988Y264403D01*
X1085897Y261097D01*
X1088597Y258397D01*
X1091903Y256488D01*
X1095591Y255500D01*
X1099409D01*
X1103097Y256488D01*
X1106403Y258397D01*
X1109103Y261097D01*
X1111012Y264403D01*
X1112000Y268091D01*
Y271909D01*
X1111012Y275597D01*
X1109103Y278903D01*
X1106403Y281603D01*
X1103097Y283512D01*
X1099409Y284500D01*
D02*
G37*
G36*
X1024409D02*
X1020591D01*
X1016903Y283512D01*
X1013597Y281603D01*
X1010897Y278903D01*
X1008988Y275597D01*
X1008000Y271909D01*
Y268091D01*
X1008988Y264403D01*
X1010897Y261097D01*
X1013597Y258397D01*
X1016903Y256488D01*
X1020591Y255500D01*
X1024409D01*
X1028097Y256488D01*
X1031403Y258397D01*
X1034103Y261097D01*
X1036012Y264403D01*
X1037000Y268091D01*
Y271909D01*
X1036012Y275597D01*
X1034103Y278903D01*
X1031403Y281603D01*
X1028097Y283512D01*
X1024409Y284500D01*
D02*
G37*
G36*
X869409D02*
X865591D01*
X861903Y283512D01*
X858597Y281603D01*
X855897Y278903D01*
X853988Y275597D01*
X853000Y271909D01*
Y268091D01*
X853988Y264403D01*
X855897Y261097D01*
X858597Y258397D01*
X861903Y256488D01*
X865591Y255500D01*
X869409D01*
X873097Y256488D01*
X876403Y258397D01*
X879103Y261097D01*
X881012Y264403D01*
X882000Y268091D01*
Y271909D01*
X881012Y275597D01*
X879103Y278903D01*
X876403Y281603D01*
X873097Y283512D01*
X869409Y284500D01*
D02*
G37*
G36*
X794409D02*
X790591D01*
X786903Y283512D01*
X783597Y281603D01*
X780897Y278903D01*
X778988Y275597D01*
X778000Y271909D01*
Y268091D01*
X778988Y264403D01*
X780897Y261097D01*
X783597Y258397D01*
X786903Y256488D01*
X790591Y255500D01*
X794409D01*
X798097Y256488D01*
X801403Y258397D01*
X804103Y261097D01*
X806012Y264403D01*
X807000Y268091D01*
Y271909D01*
X806012Y275597D01*
X804103Y278903D01*
X801403Y281603D01*
X798097Y283512D01*
X794409Y284500D01*
D02*
G37*
G36*
X589409D02*
X585591D01*
X581903Y283512D01*
X578597Y281603D01*
X575897Y278903D01*
X573988Y275597D01*
X573000Y271909D01*
Y268091D01*
X573988Y264403D01*
X575897Y261097D01*
X578597Y258397D01*
X581903Y256488D01*
X585591Y255500D01*
X589409D01*
X593097Y256488D01*
X596403Y258397D01*
X599103Y261097D01*
X601012Y264403D01*
X602000Y268091D01*
Y271909D01*
X601012Y275597D01*
X599103Y278903D01*
X596403Y281603D01*
X593097Y283512D01*
X589409Y284500D01*
D02*
G37*
G36*
X514409D02*
X510591D01*
X506903Y283512D01*
X503597Y281603D01*
X500897Y278903D01*
X498988Y275597D01*
X498000Y271909D01*
Y268091D01*
X498988Y264403D01*
X500897Y261097D01*
X503597Y258397D01*
X506903Y256488D01*
X510591Y255500D01*
X514409D01*
X518097Y256488D01*
X521403Y258397D01*
X524103Y261097D01*
X526012Y264403D01*
X527000Y268091D01*
Y271909D01*
X526012Y275597D01*
X524103Y278903D01*
X521403Y281603D01*
X518097Y283512D01*
X514409Y284500D01*
D02*
G37*
G36*
X369409D02*
X365591D01*
X361903Y283512D01*
X358597Y281603D01*
X355897Y278903D01*
X353988Y275597D01*
X353000Y271909D01*
Y268091D01*
X353988Y264403D01*
X355897Y261097D01*
X358597Y258397D01*
X361903Y256488D01*
X365591Y255500D01*
X369409D01*
X373097Y256488D01*
X376403Y258397D01*
X379103Y261097D01*
X381012Y264403D01*
X382000Y268091D01*
Y271909D01*
X381012Y275597D01*
X379103Y278903D01*
X376403Y281603D01*
X373097Y283512D01*
X369409Y284500D01*
D02*
G37*
G36*
X294409D02*
X290591D01*
X286903Y283512D01*
X283597Y281603D01*
X280897Y278903D01*
X278988Y275597D01*
X278000Y271909D01*
Y268091D01*
X278988Y264403D01*
X280897Y261097D01*
X283597Y258397D01*
X286903Y256488D01*
X290591Y255500D01*
X294409D01*
X298097Y256488D01*
X301403Y258397D01*
X304103Y261097D01*
X306012Y264403D01*
X307000Y268091D01*
Y271909D01*
X306012Y275597D01*
X304103Y278903D01*
X301403Y281603D01*
X298097Y283512D01*
X294409Y284500D01*
D02*
G37*
G36*
X1061270Y258929D02*
Y255270D01*
X1064929D01*
X1064273Y256855D01*
X1062855Y258273D01*
X1061270Y258929D01*
D02*
G37*
G36*
X1058730D02*
X1057145Y258273D01*
X1055727Y256855D01*
X1055071Y255270D01*
X1058730D01*
Y258929D01*
D02*
G37*
G36*
X831270D02*
Y255270D01*
X834929D01*
X834273Y256855D01*
X832855Y258273D01*
X831270Y258929D01*
D02*
G37*
G36*
X828730D02*
X827145Y258273D01*
X825727Y256855D01*
X825071Y255270D01*
X828730D01*
Y258929D01*
D02*
G37*
G36*
X551270D02*
Y255270D01*
X554929D01*
X554273Y256855D01*
X552855Y258273D01*
X551270Y258929D01*
D02*
G37*
G36*
X548730D02*
X547145Y258273D01*
X545727Y256855D01*
X545071Y255270D01*
X548730D01*
Y258929D01*
D02*
G37*
G36*
X331270D02*
Y255270D01*
X334929D01*
X334273Y256855D01*
X332855Y258273D01*
X331270Y258929D01*
D02*
G37*
G36*
X328730D02*
X327145Y258273D01*
X325727Y256855D01*
X325071Y255270D01*
X328730D01*
Y258929D01*
D02*
G37*
G36*
X976429Y258480D02*
X972770D01*
Y254821D01*
X974355Y255477D01*
X975773Y256895D01*
X976429Y258480D01*
D02*
G37*
G36*
X970230D02*
X966571D01*
X967227Y256895D01*
X968645Y255477D01*
X970230Y254821D01*
Y258480D01*
D02*
G37*
G36*
X1230770Y255179D02*
Y251520D01*
X1234429D01*
X1233773Y253105D01*
X1232355Y254523D01*
X1230770Y255179D01*
D02*
G37*
G36*
X1228230D02*
X1226645Y254523D01*
X1225227Y253105D01*
X1224571Y251520D01*
X1228230D01*
Y255179D01*
D02*
G37*
G36*
X1163520Y254929D02*
Y251270D01*
X1167179D01*
X1166523Y252855D01*
X1165105Y254273D01*
X1163520Y254929D01*
D02*
G37*
G36*
X1160980D02*
X1159395Y254273D01*
X1157977Y252855D01*
X1157321Y251270D01*
X1160980D01*
Y254929D01*
D02*
G37*
G36*
X1123020D02*
Y251270D01*
X1126679D01*
X1126023Y252855D01*
X1124605Y254273D01*
X1123020Y254929D01*
D02*
G37*
G36*
X1120480D02*
X1118895Y254273D01*
X1117477Y252855D01*
X1116821Y251270D01*
X1120480D01*
Y254929D01*
D02*
G37*
G36*
X1064929Y252730D02*
X1061270D01*
Y249071D01*
X1062855Y249727D01*
X1064273Y251145D01*
X1064929Y252730D01*
D02*
G37*
G36*
X1058730D02*
X1055071D01*
X1055727Y251145D01*
X1057145Y249727D01*
X1058730Y249071D01*
Y252730D01*
D02*
G37*
G36*
X834929D02*
X831270D01*
Y249071D01*
X832855Y249727D01*
X834273Y251145D01*
X834929Y252730D01*
D02*
G37*
G36*
X828730D02*
X825071D01*
X825727Y251145D01*
X827145Y249727D01*
X828730Y249071D01*
Y252730D01*
D02*
G37*
G36*
X554929D02*
X551270D01*
Y249071D01*
X552855Y249727D01*
X554273Y251145D01*
X554929Y252730D01*
D02*
G37*
G36*
X548730D02*
X545071D01*
X545727Y251145D01*
X547145Y249727D01*
X548730Y249071D01*
Y252730D01*
D02*
G37*
G36*
X334929D02*
X331270D01*
Y249071D01*
X332855Y249727D01*
X334273Y251145D01*
X334929Y252730D01*
D02*
G37*
G36*
X328730D02*
X325071D01*
X325727Y251145D01*
X327145Y249727D01*
X328730Y249071D01*
Y252730D01*
D02*
G37*
G36*
X1234429Y248980D02*
X1230770D01*
Y245321D01*
X1232355Y245977D01*
X1233773Y247395D01*
X1234429Y248980D01*
D02*
G37*
G36*
X1228230D02*
X1224571D01*
X1225227Y247395D01*
X1226645Y245977D01*
X1228230Y245321D01*
Y248980D01*
D02*
G37*
G36*
X1167179Y248730D02*
X1163520D01*
Y245071D01*
X1165105Y245727D01*
X1166523Y247145D01*
X1167179Y248730D01*
D02*
G37*
G36*
X1160980D02*
X1157321D01*
X1157977Y247145D01*
X1159395Y245727D01*
X1160980Y245071D01*
Y248730D01*
D02*
G37*
G36*
X1126679D02*
X1123020D01*
Y245071D01*
X1124605Y245727D01*
X1126023Y247145D01*
X1126679Y248730D01*
D02*
G37*
G36*
X1120480D02*
X1116821D01*
X1117477Y247145D01*
X1118895Y245727D01*
X1120480Y245071D01*
Y248730D01*
D02*
G37*
G36*
X991520Y246929D02*
Y243270D01*
X995179D01*
X994523Y244855D01*
X993105Y246273D01*
X991520Y246929D01*
D02*
G37*
G36*
X988980D02*
X987395Y246273D01*
X985977Y244855D01*
X985321Y243270D01*
X988980D01*
Y246929D01*
D02*
G37*
G36*
X995179Y240730D02*
X991520D01*
Y237071D01*
X993105Y237727D01*
X994523Y239145D01*
X995179Y240730D01*
D02*
G37*
G36*
X988980D02*
X985321D01*
X985977Y239145D01*
X987395Y237727D01*
X988980Y237071D01*
Y240730D01*
D02*
G37*
G36*
X1248520Y237679D02*
Y234020D01*
X1252179D01*
X1251523Y235605D01*
X1250105Y237023D01*
X1248520Y237679D01*
D02*
G37*
G36*
X1245980D02*
X1244395Y237023D01*
X1242977Y235605D01*
X1242321Y234020D01*
X1245980D01*
Y237679D01*
D02*
G37*
G36*
X1197770Y232429D02*
Y228770D01*
X1201429D01*
X1200773Y230355D01*
X1199355Y231773D01*
X1197770Y232429D01*
D02*
G37*
G36*
X1195230D02*
X1193645Y231773D01*
X1192227Y230355D01*
X1191571Y228770D01*
X1195230D01*
Y232429D01*
D02*
G37*
G36*
X1252179Y231480D02*
X1248520D01*
Y227821D01*
X1250105Y228477D01*
X1251523Y229895D01*
X1252179Y231480D01*
D02*
G37*
G36*
X1245980D02*
X1242321D01*
X1242977Y229895D01*
X1244395Y228477D01*
X1245980Y227821D01*
Y231480D01*
D02*
G37*
G36*
X40645Y236750D02*
X38855D01*
X37201Y236065D01*
X35935Y234799D01*
X35250Y233145D01*
Y231355D01*
X35935Y229701D01*
X37201Y228435D01*
X38855Y227750D01*
X40645D01*
X42299Y228435D01*
X43565Y229701D01*
X44250Y231355D01*
Y233145D01*
X43565Y234799D01*
X42299Y236065D01*
X40645Y236750D01*
D02*
G37*
G36*
X1009020Y229179D02*
Y225520D01*
X1012679D01*
X1012023Y227105D01*
X1010605Y228523D01*
X1009020Y229179D01*
D02*
G37*
G36*
X1006480D02*
X1004895Y228523D01*
X1003477Y227105D01*
X1002821Y225520D01*
X1006480D01*
Y229179D01*
D02*
G37*
G36*
X1201429Y226230D02*
X1197770D01*
Y222571D01*
X1199355Y223227D01*
X1200773Y224645D01*
X1201429Y226230D01*
D02*
G37*
G36*
X1195230D02*
X1191571D01*
X1192227Y224645D01*
X1193645Y223227D01*
X1195230Y222571D01*
Y226230D01*
D02*
G37*
G36*
X971895Y228500D02*
X970105D01*
X968451Y227815D01*
X967185Y226549D01*
X966500Y224895D01*
Y223105D01*
X967185Y221451D01*
X968451Y220185D01*
X970105Y219500D01*
X971895D01*
X973549Y220185D01*
X974815Y221451D01*
X975500Y223105D01*
Y224895D01*
X974815Y226549D01*
X973549Y227815D01*
X971895Y228500D01*
D02*
G37*
G36*
X741895D02*
X740105D01*
X738451Y227815D01*
X737185Y226549D01*
X736500Y224895D01*
Y223105D01*
X737185Y221451D01*
X738451Y220185D01*
X740105Y219500D01*
X741895D01*
X743549Y220185D01*
X744815Y221451D01*
X745500Y223105D01*
Y224895D01*
X744815Y226549D01*
X743549Y227815D01*
X741895Y228500D01*
D02*
G37*
G36*
X461895D02*
X460105D01*
X458451Y227815D01*
X457185Y226549D01*
X456500Y224895D01*
Y223105D01*
X457185Y221451D01*
X458451Y220185D01*
X460105Y219500D01*
X461895D01*
X463549Y220185D01*
X464815Y221451D01*
X465500Y223105D01*
Y224895D01*
X464815Y226549D01*
X463549Y227815D01*
X461895Y228500D01*
D02*
G37*
G36*
X241895D02*
X240105D01*
X238451Y227815D01*
X237185Y226549D01*
X236500Y224895D01*
Y223105D01*
X237185Y221451D01*
X238451Y220185D01*
X240105Y219500D01*
X241895D01*
X243549Y220185D01*
X244815Y221451D01*
X245500Y223105D01*
Y224895D01*
X244815Y226549D01*
X243549Y227815D01*
X241895Y228500D01*
D02*
G37*
G36*
X1012679Y222980D02*
X1009020D01*
Y219321D01*
X1010605Y219977D01*
X1012023Y221395D01*
X1012679Y222980D01*
D02*
G37*
G36*
X1006480D02*
X1002821D01*
X1003477Y221395D01*
X1004895Y219977D01*
X1006480Y219321D01*
Y222980D01*
D02*
G37*
G36*
X1260770Y215429D02*
Y211770D01*
X1264429D01*
X1263773Y213355D01*
X1262355Y214773D01*
X1260770Y215429D01*
D02*
G37*
G36*
X1258230D02*
X1256645Y214773D01*
X1255227Y213355D01*
X1254571Y211770D01*
X1258230D01*
Y215429D01*
D02*
G37*
G36*
X1152520Y215179D02*
Y211520D01*
X1156179D01*
X1155523Y213105D01*
X1154105Y214523D01*
X1152520Y215179D01*
D02*
G37*
G36*
X1149980D02*
X1148395Y214523D01*
X1146977Y213105D01*
X1146321Y211520D01*
X1149980D01*
Y215179D01*
D02*
G37*
G36*
X1112020D02*
Y211520D01*
X1115679D01*
X1115023Y213105D01*
X1113605Y214523D01*
X1112020Y215179D01*
D02*
G37*
G36*
X1109480D02*
X1107895Y214523D01*
X1106477Y213105D01*
X1105821Y211520D01*
X1109480D01*
Y215179D01*
D02*
G37*
G36*
X1071520D02*
Y211520D01*
X1075179D01*
X1074523Y213105D01*
X1073105Y214523D01*
X1071520Y215179D01*
D02*
G37*
G36*
X1068980D02*
X1067395Y214523D01*
X1065977Y213105D01*
X1065321Y211520D01*
X1068980D01*
Y215179D01*
D02*
G37*
G36*
X1031020D02*
Y211520D01*
X1034679D01*
X1034023Y213105D01*
X1032605Y214523D01*
X1031020Y215179D01*
D02*
G37*
G36*
X1028480D02*
X1026895Y214523D01*
X1025477Y213105D01*
X1024821Y211520D01*
X1028480D01*
Y215179D01*
D02*
G37*
G36*
X1215270Y214679D02*
Y211020D01*
X1218929D01*
X1218273Y212605D01*
X1216855Y214023D01*
X1215270Y214679D01*
D02*
G37*
G36*
X1212730D02*
X1211145Y214023D01*
X1209727Y212605D01*
X1209071Y211020D01*
X1212730D01*
Y214679D01*
D02*
G37*
G36*
X1264429Y209230D02*
X1260770D01*
Y205571D01*
X1262355Y206227D01*
X1263773Y207645D01*
X1264429Y209230D01*
D02*
G37*
G36*
X1258230D02*
X1254571D01*
X1255227Y207645D01*
X1256645Y206227D01*
X1258230Y205571D01*
Y209230D01*
D02*
G37*
G36*
X1156179Y208980D02*
X1152520D01*
Y205321D01*
X1154105Y205977D01*
X1155523Y207395D01*
X1156179Y208980D01*
D02*
G37*
G36*
X1149980D02*
X1146321D01*
X1146977Y207395D01*
X1148395Y205977D01*
X1149980Y205321D01*
Y208980D01*
D02*
G37*
G36*
X1115679D02*
X1112020D01*
Y205321D01*
X1113605Y205977D01*
X1115023Y207395D01*
X1115679Y208980D01*
D02*
G37*
G36*
X1109480D02*
X1105821D01*
X1106477Y207395D01*
X1107895Y205977D01*
X1109480Y205321D01*
Y208980D01*
D02*
G37*
G36*
X1075179D02*
X1071520D01*
Y205321D01*
X1073105Y205977D01*
X1074523Y207395D01*
X1075179Y208980D01*
D02*
G37*
G36*
X1068980D02*
X1065321D01*
X1065977Y207395D01*
X1067395Y205977D01*
X1068980Y205321D01*
Y208980D01*
D02*
G37*
G36*
X1034679D02*
X1031020D01*
Y205321D01*
X1032605Y205977D01*
X1034023Y207395D01*
X1034679Y208980D01*
D02*
G37*
G36*
X1028480D02*
X1024821D01*
X1025477Y207395D01*
X1026895Y205977D01*
X1028480Y205321D01*
Y208980D01*
D02*
G37*
G36*
X1218929Y208480D02*
X1215270D01*
Y204821D01*
X1216855Y205477D01*
X1218273Y206895D01*
X1218929Y208480D01*
D02*
G37*
G36*
X1212730D02*
X1209071D01*
X1209727Y206895D01*
X1211145Y205477D01*
X1212730Y204821D01*
Y208480D01*
D02*
G37*
G36*
X1174020Y202179D02*
Y198520D01*
X1177679D01*
X1177023Y200105D01*
X1175605Y201523D01*
X1174020Y202179D01*
D02*
G37*
G36*
X1171480D02*
X1169895Y201523D01*
X1168477Y200105D01*
X1167821Y198520D01*
X1171480D01*
Y202179D01*
D02*
G37*
G36*
X1177679Y195980D02*
X1174020D01*
Y192321D01*
X1175605Y192977D01*
X1177023Y194395D01*
X1177679Y195980D01*
D02*
G37*
G36*
X1171480D02*
X1167821D01*
X1168477Y194395D01*
X1169895Y192977D01*
X1171480Y192321D01*
Y195980D01*
D02*
G37*
G36*
X1087051Y203340D02*
X1086670D01*
Y192070D01*
X1097940D01*
Y192451D01*
X1097085Y195640D01*
X1095434Y198500D01*
X1093100Y200835D01*
X1090240Y202485D01*
X1087051Y203340D01*
D02*
G37*
G36*
X1084130D02*
X1083749D01*
X1080560Y202485D01*
X1077700Y200835D01*
X1075366Y198500D01*
X1073715Y195640D01*
X1072860Y192451D01*
Y192070D01*
X1084130D01*
Y203340D01*
D02*
G37*
G36*
X857051D02*
X856670D01*
Y192070D01*
X867940D01*
Y192451D01*
X867085Y195640D01*
X865434Y198500D01*
X863100Y200835D01*
X860240Y202485D01*
X857051Y203340D01*
D02*
G37*
G36*
X854130D02*
X853749D01*
X850560Y202485D01*
X847700Y200835D01*
X845366Y198500D01*
X843715Y195640D01*
X842860Y192451D01*
Y192070D01*
X854130D01*
Y203340D01*
D02*
G37*
G36*
X577051D02*
X576670D01*
Y192070D01*
X587940D01*
Y192451D01*
X587085Y195640D01*
X585434Y198500D01*
X583100Y200835D01*
X580240Y202485D01*
X577051Y203340D01*
D02*
G37*
G36*
X574130D02*
X573749D01*
X570560Y202485D01*
X567700Y200835D01*
X565365Y198500D01*
X563715Y195640D01*
X562860Y192451D01*
Y192070D01*
X574130D01*
Y203340D01*
D02*
G37*
G36*
X357051D02*
X356670D01*
Y192070D01*
X367940D01*
Y192451D01*
X367085Y195640D01*
X365434Y198500D01*
X363100Y200835D01*
X360240Y202485D01*
X357051Y203340D01*
D02*
G37*
G36*
X354130D02*
X353749D01*
X350560Y202485D01*
X347700Y200835D01*
X345365Y198500D01*
X343715Y195640D01*
X342860Y192451D01*
Y192070D01*
X354130D01*
Y203340D01*
D02*
G37*
G36*
X1191520Y184429D02*
Y180770D01*
X1195179D01*
X1194523Y182355D01*
X1193105Y183773D01*
X1191520Y184429D01*
D02*
G37*
G36*
X1188980D02*
X1187395Y183773D01*
X1185977Y182355D01*
X1185321Y180770D01*
X1188980D01*
Y184429D01*
D02*
G37*
G36*
X1097940Y189530D02*
X1086670D01*
Y178260D01*
X1087051D01*
X1090240Y179115D01*
X1093100Y180765D01*
X1095434Y183100D01*
X1097085Y185960D01*
X1097940Y189149D01*
Y189530D01*
D02*
G37*
G36*
X1084130D02*
X1072860D01*
Y189149D01*
X1073715Y185960D01*
X1075366Y183100D01*
X1077700Y180765D01*
X1080560Y179115D01*
X1083749Y178260D01*
X1084130D01*
Y189530D01*
D02*
G37*
G36*
X867940D02*
X856670D01*
Y178260D01*
X857051D01*
X860240Y179115D01*
X863100Y180765D01*
X865434Y183100D01*
X867085Y185960D01*
X867940Y189149D01*
Y189530D01*
D02*
G37*
G36*
X854130D02*
X842860D01*
Y189149D01*
X843715Y185960D01*
X845366Y183100D01*
X847700Y180765D01*
X850560Y179115D01*
X853749Y178260D01*
X854130D01*
Y189530D01*
D02*
G37*
G36*
X587940D02*
X576670D01*
Y178260D01*
X577051D01*
X580240Y179115D01*
X583100Y180765D01*
X585434Y183100D01*
X587085Y185960D01*
X587940Y189149D01*
Y189530D01*
D02*
G37*
G36*
X574130D02*
X562860D01*
Y189149D01*
X563715Y185960D01*
X565365Y183100D01*
X567700Y180765D01*
X570560Y179115D01*
X573749Y178260D01*
X574130D01*
Y189530D01*
D02*
G37*
G36*
X367940D02*
X356670D01*
Y178260D01*
X357051D01*
X360240Y179115D01*
X363100Y180765D01*
X365434Y183100D01*
X367085Y185960D01*
X367940Y189149D01*
Y189530D01*
D02*
G37*
G36*
X354130D02*
X342860D01*
Y189149D01*
X343715Y185960D01*
X345365Y183100D01*
X347700Y180765D01*
X350560Y179115D01*
X353749Y178260D01*
X354130D01*
Y189530D01*
D02*
G37*
G36*
X1195179Y178230D02*
X1191520D01*
Y174571D01*
X1193105Y175227D01*
X1194523Y176645D01*
X1195179Y178230D01*
D02*
G37*
G36*
X1188980D02*
X1185321D01*
X1185977Y176645D01*
X1187395Y175227D01*
X1188980Y174571D01*
Y178230D01*
D02*
G37*
G36*
X1260770Y174929D02*
Y171270D01*
X1264429D01*
X1263773Y172855D01*
X1262355Y174273D01*
X1260770Y174929D01*
D02*
G37*
G36*
X1258230D02*
X1256645Y174273D01*
X1255227Y172855D01*
X1254571Y171270D01*
X1258230D01*
Y174929D01*
D02*
G37*
G36*
X1264429Y168730D02*
X1260770D01*
Y165071D01*
X1262355Y165727D01*
X1263773Y167145D01*
X1264429Y168730D01*
D02*
G37*
G36*
X1258230D02*
X1254571D01*
X1255227Y167145D01*
X1256645Y165727D01*
X1258230Y165071D01*
Y168730D01*
D02*
G37*
G36*
X1033900Y177400D02*
X1009900D01*
Y153400D01*
X1033900D01*
Y177400D01*
D02*
G37*
G36*
X803900D02*
X779900D01*
Y153400D01*
X803900D01*
Y177400D01*
D02*
G37*
G36*
X523900D02*
X499900D01*
Y153400D01*
X523900D01*
Y177400D01*
D02*
G37*
G36*
X303900D02*
X279900D01*
Y153400D01*
X303900D01*
Y177400D01*
D02*
G37*
G36*
X1190338Y153660D02*
X1190270D01*
Y144770D01*
X1199160D01*
Y144838D01*
X1198468Y147422D01*
X1197130Y149738D01*
X1195238Y151630D01*
X1192922Y152968D01*
X1190338Y153660D01*
D02*
G37*
G36*
X1187730D02*
X1187662D01*
X1185078Y152968D01*
X1182762Y151630D01*
X1180870Y149738D01*
X1179532Y147422D01*
X1178840Y144838D01*
Y144770D01*
X1187730D01*
Y153660D01*
D02*
G37*
G36*
X1241266Y153120D02*
X1238734D01*
X1236287Y152464D01*
X1234093Y151198D01*
X1232302Y149407D01*
X1231036Y147213D01*
X1230380Y144767D01*
Y142233D01*
X1231036Y139787D01*
X1232302Y137593D01*
X1234093Y135802D01*
X1236287Y134536D01*
X1238734Y133880D01*
X1241266D01*
X1243713Y134536D01*
X1245907Y135802D01*
X1247698Y137593D01*
X1248964Y139787D01*
X1249620Y142233D01*
Y144767D01*
X1248964Y147213D01*
X1247698Y149407D01*
X1245907Y151198D01*
X1243713Y152464D01*
X1241266Y153120D01*
D02*
G37*
G36*
X1215767D02*
X1213233D01*
X1210787Y152464D01*
X1208593Y151198D01*
X1206802Y149407D01*
X1205536Y147213D01*
X1204880Y144767D01*
Y142233D01*
X1205536Y139787D01*
X1206802Y137593D01*
X1208593Y135802D01*
X1210787Y134536D01*
X1213233Y133880D01*
X1215767D01*
X1218213Y134536D01*
X1220407Y135802D01*
X1222198Y137593D01*
X1223464Y139787D01*
X1224120Y142233D01*
Y144767D01*
X1223464Y147213D01*
X1222198Y149407D01*
X1220407Y151198D01*
X1218213Y152464D01*
X1215767Y153120D01*
D02*
G37*
G36*
X1199160Y142230D02*
X1190270D01*
Y133340D01*
X1190338D01*
X1192922Y134032D01*
X1195238Y135370D01*
X1197130Y137262D01*
X1198468Y139578D01*
X1199160Y142162D01*
Y142230D01*
D02*
G37*
G36*
X1187730D02*
X1178840D01*
Y142162D01*
X1179532Y139578D01*
X1180870Y137262D01*
X1182762Y135370D01*
X1185078Y134032D01*
X1187662Y133340D01*
X1187730D01*
Y142230D01*
D02*
G37*
G36*
X1111920Y148509D02*
X1109680D01*
X1107516Y147929D01*
X1105575Y146809D01*
X1103991Y145225D01*
X1102871Y143284D01*
X1102291Y141120D01*
Y138880D01*
X1102871Y136716D01*
X1103991Y134775D01*
X1105575Y133191D01*
X1107516Y132071D01*
X1109680Y131491D01*
X1111920D01*
X1114084Y132071D01*
X1116025Y133191D01*
X1117609Y134775D01*
X1118729Y136716D01*
X1119309Y138880D01*
Y141120D01*
X1118729Y143284D01*
X1117609Y145225D01*
X1116025Y146809D01*
X1114084Y147929D01*
X1111920Y148509D01*
D02*
G37*
G36*
X1010320D02*
X1008080D01*
X1005916Y147929D01*
X1003975Y146809D01*
X1002391Y145225D01*
X1001271Y143284D01*
X1000691Y141120D01*
Y138880D01*
X1001271Y136716D01*
X1002391Y134775D01*
X1003975Y133191D01*
X1005916Y132071D01*
X1008080Y131491D01*
X1010320D01*
X1012484Y132071D01*
X1014425Y133191D01*
X1016009Y134775D01*
X1017129Y136716D01*
X1017709Y138880D01*
Y141120D01*
X1017129Y143284D01*
X1016009Y145225D01*
X1014425Y146809D01*
X1012484Y147929D01*
X1010320Y148509D01*
D02*
G37*
G36*
X881920D02*
X879680D01*
X877516Y147929D01*
X875575Y146809D01*
X873991Y145225D01*
X872871Y143284D01*
X872291Y141120D01*
Y138880D01*
X872871Y136716D01*
X873991Y134775D01*
X875575Y133191D01*
X877516Y132071D01*
X879680Y131491D01*
X881920D01*
X884084Y132071D01*
X886025Y133191D01*
X887609Y134775D01*
X888729Y136716D01*
X889309Y138880D01*
Y141120D01*
X888729Y143284D01*
X887609Y145225D01*
X886025Y146809D01*
X884084Y147929D01*
X881920Y148509D01*
D02*
G37*
G36*
X780320D02*
X778080D01*
X775916Y147929D01*
X773975Y146809D01*
X772391Y145225D01*
X771271Y143284D01*
X770691Y141120D01*
Y138880D01*
X771271Y136716D01*
X772391Y134775D01*
X773975Y133191D01*
X775916Y132071D01*
X778080Y131491D01*
X780320D01*
X782484Y132071D01*
X784425Y133191D01*
X786009Y134775D01*
X787129Y136716D01*
X787709Y138880D01*
Y141120D01*
X787129Y143284D01*
X786009Y145225D01*
X784425Y146809D01*
X782484Y147929D01*
X780320Y148509D01*
D02*
G37*
G36*
X601920D02*
X599680D01*
X597516Y147929D01*
X595575Y146809D01*
X593991Y145225D01*
X592871Y143284D01*
X592291Y141120D01*
Y138880D01*
X592871Y136716D01*
X593991Y134775D01*
X595575Y133191D01*
X597516Y132071D01*
X599680Y131491D01*
X601920D01*
X604084Y132071D01*
X606025Y133191D01*
X607609Y134775D01*
X608729Y136716D01*
X609309Y138880D01*
Y141120D01*
X608729Y143284D01*
X607609Y145225D01*
X606025Y146809D01*
X604084Y147929D01*
X601920Y148509D01*
D02*
G37*
G36*
X500320D02*
X498080D01*
X495916Y147929D01*
X493975Y146809D01*
X492391Y145225D01*
X491271Y143284D01*
X490691Y141120D01*
Y138880D01*
X491271Y136716D01*
X492391Y134775D01*
X493975Y133191D01*
X495916Y132071D01*
X498080Y131491D01*
X500320D01*
X502484Y132071D01*
X504425Y133191D01*
X506009Y134775D01*
X507129Y136716D01*
X507709Y138880D01*
Y141120D01*
X507129Y143284D01*
X506009Y145225D01*
X504425Y146809D01*
X502484Y147929D01*
X500320Y148509D01*
D02*
G37*
G36*
X381920D02*
X379680D01*
X377516Y147929D01*
X375575Y146809D01*
X373991Y145225D01*
X372871Y143284D01*
X372291Y141120D01*
Y138880D01*
X372871Y136716D01*
X373991Y134775D01*
X375575Y133191D01*
X377516Y132071D01*
X379680Y131491D01*
X381920D01*
X384084Y132071D01*
X386025Y133191D01*
X387609Y134775D01*
X388729Y136716D01*
X389309Y138880D01*
Y141120D01*
X388729Y143284D01*
X387609Y145225D01*
X386025Y146809D01*
X384084Y147929D01*
X381920Y148509D01*
D02*
G37*
G36*
X280320D02*
X278080D01*
X275916Y147929D01*
X273975Y146809D01*
X272391Y145225D01*
X271271Y143284D01*
X270691Y141120D01*
Y138880D01*
X271271Y136716D01*
X272391Y134775D01*
X273975Y133191D01*
X275916Y132071D01*
X278080Y131491D01*
X280320D01*
X282484Y132071D01*
X284425Y133191D01*
X286009Y134775D01*
X287129Y136716D01*
X287709Y138880D01*
Y141120D01*
X287129Y143284D01*
X286009Y145225D01*
X284425Y146809D01*
X282484Y147929D01*
X280320Y148509D01*
D02*
G37*
G36*
X1260770Y134429D02*
Y130770D01*
X1264429D01*
X1263773Y132355D01*
X1262355Y133773D01*
X1260770Y134429D01*
D02*
G37*
G36*
X1258230D02*
X1256645Y133773D01*
X1255227Y132355D01*
X1254571Y130770D01*
X1258230D01*
Y134429D01*
D02*
G37*
G36*
X1264429Y128230D02*
X1260770D01*
Y124571D01*
X1262355Y125227D01*
X1263773Y126645D01*
X1264429Y128230D01*
D02*
G37*
G36*
X1258230D02*
X1254571D01*
X1255227Y126645D01*
X1256645Y125227D01*
X1258230Y124571D01*
Y128230D01*
D02*
G37*
G36*
X1061964Y159939D02*
X1058036D01*
X1054184Y159173D01*
X1050555Y157670D01*
X1047290Y155488D01*
X1044512Y152710D01*
X1042330Y149445D01*
X1040827Y145816D01*
X1040061Y141964D01*
Y138036D01*
X1040827Y134184D01*
X1042330Y130555D01*
X1044512Y127290D01*
X1047290Y124512D01*
X1050555Y122330D01*
X1054184Y120827D01*
X1058036Y120061D01*
X1061964D01*
X1065816Y120827D01*
X1069445Y122330D01*
X1072710Y124512D01*
X1075488Y127290D01*
X1077670Y130555D01*
X1079173Y134184D01*
X1079939Y138036D01*
Y141964D01*
X1079173Y145816D01*
X1077670Y149445D01*
X1075488Y152710D01*
X1072710Y155488D01*
X1069445Y157670D01*
X1065816Y159173D01*
X1061964Y159939D01*
D02*
G37*
G36*
X831964D02*
X828036D01*
X824184Y159173D01*
X820555Y157670D01*
X817290Y155488D01*
X814512Y152710D01*
X812330Y149445D01*
X810827Y145816D01*
X810061Y141964D01*
Y138036D01*
X810827Y134184D01*
X812330Y130555D01*
X814512Y127290D01*
X817290Y124512D01*
X820555Y122330D01*
X824184Y120827D01*
X828036Y120061D01*
X831964D01*
X835816Y120827D01*
X839445Y122330D01*
X842710Y124512D01*
X845488Y127290D01*
X847670Y130555D01*
X849173Y134184D01*
X849939Y138036D01*
Y141964D01*
X849173Y145816D01*
X847670Y149445D01*
X845488Y152710D01*
X842710Y155488D01*
X839445Y157670D01*
X835816Y159173D01*
X831964Y159939D01*
D02*
G37*
G36*
X551964D02*
X548036D01*
X544184Y159173D01*
X540555Y157670D01*
X537290Y155488D01*
X534512Y152710D01*
X532330Y149445D01*
X530827Y145816D01*
X530061Y141964D01*
Y138036D01*
X530827Y134184D01*
X532330Y130555D01*
X534512Y127290D01*
X537290Y124512D01*
X540555Y122330D01*
X544184Y120827D01*
X548036Y120061D01*
X551964D01*
X555816Y120827D01*
X559445Y122330D01*
X562710Y124512D01*
X565488Y127290D01*
X567670Y130555D01*
X569173Y134184D01*
X569939Y138036D01*
Y141964D01*
X569173Y145816D01*
X567670Y149445D01*
X565488Y152710D01*
X562710Y155488D01*
X559445Y157670D01*
X555816Y159173D01*
X551964Y159939D01*
D02*
G37*
G36*
X331964D02*
X328036D01*
X324184Y159173D01*
X320555Y157670D01*
X317290Y155488D01*
X314512Y152710D01*
X312330Y149445D01*
X310827Y145816D01*
X310061Y141964D01*
Y138036D01*
X310827Y134184D01*
X312330Y130555D01*
X314512Y127290D01*
X317290Y124512D01*
X320555Y122330D01*
X324184Y120827D01*
X328036Y120061D01*
X331964D01*
X335816Y120827D01*
X339445Y122330D01*
X342710Y124512D01*
X345488Y127290D01*
X347670Y130555D01*
X349173Y134184D01*
X349939Y138036D01*
Y141964D01*
X349173Y145816D01*
X347670Y149445D01*
X345488Y152710D01*
X342710Y155488D01*
X339445Y157670D01*
X335816Y159173D01*
X331964Y159939D01*
D02*
G37*
G36*
X1098995Y94250D02*
X1097005D01*
X1095168Y93489D01*
X1093761Y92082D01*
X1093000Y90245D01*
Y88255D01*
X1093761Y86418D01*
X1095168Y85011D01*
X1097005Y84250D01*
X1098995D01*
X1100832Y85011D01*
X1102239Y86418D01*
X1103000Y88255D01*
Y90245D01*
X1102239Y92082D01*
X1100832Y93489D01*
X1098995Y94250D01*
D02*
G37*
G36*
X1022995D02*
X1021005D01*
X1019168Y93489D01*
X1017761Y92082D01*
X1017000Y90245D01*
Y88255D01*
X1017761Y86418D01*
X1019168Y85011D01*
X1021005Y84250D01*
X1022995D01*
X1024832Y85011D01*
X1026239Y86418D01*
X1027000Y88255D01*
Y90245D01*
X1026239Y92082D01*
X1024832Y93489D01*
X1022995Y94250D01*
D02*
G37*
G36*
X868995D02*
X867005D01*
X865168Y93489D01*
X863761Y92082D01*
X863000Y90245D01*
Y88255D01*
X863761Y86418D01*
X865168Y85011D01*
X867005Y84250D01*
X868995D01*
X870832Y85011D01*
X872239Y86418D01*
X873000Y88255D01*
Y90245D01*
X872239Y92082D01*
X870832Y93489D01*
X868995Y94250D01*
D02*
G37*
G36*
X792995D02*
X791005D01*
X789168Y93489D01*
X787761Y92082D01*
X787000Y90245D01*
Y88255D01*
X787761Y86418D01*
X789168Y85011D01*
X791005Y84250D01*
X792995D01*
X794832Y85011D01*
X796239Y86418D01*
X797000Y88255D01*
Y90245D01*
X796239Y92082D01*
X794832Y93489D01*
X792995Y94250D01*
D02*
G37*
G36*
X588995D02*
X587005D01*
X585168Y93489D01*
X583761Y92082D01*
X583000Y90245D01*
Y88255D01*
X583761Y86418D01*
X585168Y85011D01*
X587005Y84250D01*
X588995D01*
X590832Y85011D01*
X592239Y86418D01*
X593000Y88255D01*
Y90245D01*
X592239Y92082D01*
X590832Y93489D01*
X588995Y94250D01*
D02*
G37*
G36*
X512995D02*
X511005D01*
X509168Y93489D01*
X507761Y92082D01*
X507000Y90245D01*
Y88255D01*
X507761Y86418D01*
X509168Y85011D01*
X511005Y84250D01*
X512995D01*
X514832Y85011D01*
X516239Y86418D01*
X517000Y88255D01*
Y90245D01*
X516239Y92082D01*
X514832Y93489D01*
X512995Y94250D01*
D02*
G37*
G36*
X368995D02*
X367005D01*
X365168Y93489D01*
X363761Y92082D01*
X363000Y90245D01*
Y88255D01*
X363761Y86418D01*
X365168Y85011D01*
X367005Y84250D01*
X368995D01*
X370832Y85011D01*
X372239Y86418D01*
X373000Y88255D01*
Y90245D01*
X372239Y92082D01*
X370832Y93489D01*
X368995Y94250D01*
D02*
G37*
G36*
X292995D02*
X291005D01*
X289168Y93489D01*
X287761Y92082D01*
X287000Y90245D01*
Y88255D01*
X287761Y86418D01*
X289168Y85011D01*
X291005Y84250D01*
X292995D01*
X294832Y85011D01*
X296239Y86418D01*
X297000Y88255D01*
Y90245D01*
X296239Y92082D01*
X294832Y93489D01*
X292995Y94250D01*
D02*
G37*
G36*
X1352322Y79500D02*
X1347678D01*
X1343092Y78774D01*
X1338676Y77339D01*
X1334539Y75231D01*
X1330782Y72501D01*
X1327499Y69218D01*
X1324769Y65461D01*
X1322661Y61324D01*
X1321226Y56908D01*
X1320500Y52322D01*
Y47678D01*
X1321226Y43092D01*
X1322661Y38676D01*
X1324769Y34539D01*
X1327499Y30782D01*
X1330782Y27499D01*
X1334539Y24769D01*
X1338676Y22661D01*
X1343092Y21226D01*
X1347678Y20500D01*
X1352322D01*
X1356908Y21226D01*
X1361324Y22661D01*
X1365461Y24769D01*
X1369218Y27499D01*
X1372501Y30782D01*
X1375231Y34539D01*
X1377339Y38676D01*
X1378774Y43092D01*
X1379500Y47678D01*
Y52322D01*
X1378774Y56908D01*
X1377339Y61324D01*
X1375231Y65461D01*
X1372501Y69218D01*
X1369218Y72501D01*
X1365461Y75231D01*
X1361324Y77339D01*
X1356908Y78774D01*
X1352322Y79500D01*
D02*
G37*
G36*
X52322D02*
X47678D01*
X43092Y78774D01*
X38676Y77339D01*
X34539Y75231D01*
X30782Y72501D01*
X27499Y69218D01*
X24769Y65461D01*
X22661Y61324D01*
X21226Y56908D01*
X20500Y52322D01*
Y47678D01*
X21226Y43092D01*
X22661Y38676D01*
X24769Y34539D01*
X27499Y30782D01*
X30782Y27499D01*
X34539Y24769D01*
X38676Y22661D01*
X43092Y21226D01*
X47678Y20500D01*
X52322D01*
X56908Y21226D01*
X61324Y22661D01*
X65461Y24769D01*
X69218Y27499D01*
X72501Y30782D01*
X75231Y34539D01*
X77339Y38676D01*
X78774Y43092D01*
X79500Y47678D01*
Y52322D01*
X78774Y56908D01*
X77339Y61324D01*
X75231Y65461D01*
X72501Y69218D01*
X69218Y72501D01*
X65461Y75231D01*
X61324Y77339D01*
X56908Y78774D01*
X52322Y79500D01*
D02*
G37*
%LPD*%
G36*
X508855Y588250D02*
X509924D01*
X555441Y542733D01*
Y479055D01*
X554685Y478299D01*
X554562Y478003D01*
X553188D01*
X553065Y478299D01*
X552309Y479055D01*
Y541250D01*
X552309Y541250D01*
X552076Y542421D01*
X551413Y543413D01*
X551413Y543413D01*
X507311Y587515D01*
X508030Y588592D01*
X508855Y588250D01*
D02*
G37*
G36*
X564941Y545733D02*
Y479055D01*
X564185Y478299D01*
X563937Y477701D01*
X562563D01*
X562315Y478299D01*
X561559Y479055D01*
Y544000D01*
X561326Y545171D01*
X560663Y546163D01*
X560663Y546163D01*
X514250Y592576D01*
Y593479D01*
X514715Y594035D01*
X515271Y594500D01*
X516174D01*
X564941Y545733D01*
D02*
G37*
G36*
G01X377250Y910000D02*
G03X372250Y915000I-5000J-0D01*
G01X363000D01*
G03X358250Y910250I0J-4750D01*
G01Y897000D01*
G01X377250D01*
G01Y910000D01*
D02*
G37*
G36*
G01X358000Y838000D02*
G03X363000Y833000I5000J0D01*
G01X372250D01*
G03X377000Y837750I0J4750D01*
G01Y851000D01*
G01X358000D01*
G01Y838000D01*
D02*
G37*
D12*
X431812Y559250D02*
X437312Y553750D01*
X466250D02*
X478922Y566422D01*
X437312Y553750D02*
X466250D01*
X478922Y566422D02*
X492422D01*
X532000Y383750D02*
X568000Y419750D01*
X532000Y328000D02*
Y383750D01*
X568000Y419750D02*
Y450750D01*
X549250Y438500D02*
Y450750D01*
X438000Y327250D02*
X549250Y438500D01*
X438000Y320000D02*
Y327250D01*
X292000Y643250D02*
X298750Y650000D01*
X376000D01*
X292000Y539000D02*
Y643250D01*
X430750Y857750D02*
X622250D01*
X668000Y812000D01*
X700000D01*
X400000Y827000D02*
X430750Y857750D01*
X643250Y762500D02*
X669750Y789000D01*
X561250Y802250D02*
X601000Y762500D01*
X643250D01*
X416500Y797500D02*
X421250Y802250D01*
X561250D01*
X516373Y782242D02*
X524131Y790000D01*
X553250D01*
X602750Y740500D01*
X690750D02*
X728250Y703000D01*
X602750Y740500D02*
X690750D01*
X28000Y393750D02*
Y459000D01*
Y393750D02*
X103250Y318500D01*
X279250Y290500D02*
X1105500D01*
X240000Y329750D02*
Y378500D01*
Y329750D02*
X279250Y290500D01*
X240000Y378500D02*
Y427750D01*
X280500Y468250D02*
Y517250D01*
X240000Y427750D02*
X280500Y468250D01*
X1105500Y290500D02*
X1160000Y345000D01*
Y422000D01*
X1022000Y328000D02*
X1060000D01*
X1006250Y343750D02*
Y450750D01*
Y343750D02*
X1022000Y328000D01*
X357779Y771779D02*
X360029D01*
X310500Y724500D02*
X357779Y771779D01*
X360029D02*
X360500Y772250D01*
X437145Y665000D02*
X474250Y627895D01*
X397000Y665000D02*
X437145D01*
X280750Y539250D02*
Y767000D01*
X281000Y767250D01*
X280500Y539000D02*
X280750Y539250D01*
X251723Y499527D02*
X251750Y499500D01*
Y517250D01*
X219383Y499527D02*
X251723D01*
X219356Y499553D02*
X219383Y499527D01*
X431000Y559250D02*
X431812D01*
X465000Y820625D02*
X473500Y829125D01*
X460230Y815000D02*
X465365Y820135D01*
X465000Y820500D02*
Y820625D01*
X473500Y829125D02*
Y829250D01*
X464750Y809000D02*
X478500Y822750D01*
X417000Y809000D02*
X464750D01*
X488500Y822750D02*
X488582Y822832D01*
Y836308D01*
X436000Y584750D02*
Y634500D01*
X446000Y584750D02*
Y641500D01*
X426000Y653000D02*
X441000Y638000D01*
Y577500D02*
Y638000D01*
X492750Y597750D02*
X549250Y541250D01*
X830000Y475750D02*
Y523000D01*
X876750Y569750D01*
X991500Y475750D02*
X1006250D01*
X871250Y596000D02*
X991500Y475750D01*
X488275Y836000D02*
X488582Y836308D01*
X488665Y836390D01*
X469000Y836000D02*
X488275D01*
X728250Y664000D02*
X760500Y631750D01*
X728250Y664000D02*
Y703000D01*
X458000Y328000D02*
X558500Y428500D01*
Y450750D01*
X380000Y673500D02*
Y772000D01*
X417000Y809000D01*
X374000Y774500D02*
X414500Y815000D01*
X374000Y671000D02*
Y774500D01*
X414500Y815000D02*
X460230D01*
X389500Y647000D02*
X423500D01*
X436000Y634500D01*
X392000Y653000D02*
X426000D01*
X428500Y659000D02*
X446000Y641500D01*
X394500Y659000D02*
X428500D01*
X386000Y676000D02*
X397000Y665000D01*
X386000Y676000D02*
Y724000D01*
X380000Y673500D02*
X394500Y659000D01*
X368000Y668500D02*
X389500Y647000D01*
X368000Y668500D02*
Y777000D01*
X568000Y475750D02*
Y547000D01*
X558500Y475750D02*
Y544000D01*
X549250Y475750D02*
Y541250D01*
X509750Y592750D02*
X558500Y544000D01*
X516000Y599000D02*
X568000Y547000D01*
X509728Y620022D02*
Y787268D01*
Y620022D02*
X509750Y620000D01*
X509706Y787290D02*
X509728Y787268D01*
X492500Y566500D02*
X492625Y566625D01*
X503125D01*
X503250Y566750D01*
X492422Y566422D02*
X492500Y566500D01*
X318750Y539000D02*
X347500D01*
X352500Y534000D01*
X330125Y626875D02*
X375625D01*
X330000Y627000D02*
X330125Y626875D01*
X330000Y605000D02*
Y627000D01*
X375625Y626875D02*
X375750Y626750D01*
X935000Y301500D02*
Y450750D01*
X1199250Y458250D02*
X1200000D01*
X368000Y777000D02*
X412000Y821000D01*
X760500Y566500D02*
Y600750D01*
X830000Y328000D02*
Y450750D01*
X515959Y782242D02*
X516373D01*
X516000Y626000D02*
Y774000D01*
X374000Y671000D02*
X392000Y653000D01*
X386000Y724000D02*
X411642Y749642D01*
X412000Y821000D02*
X454000D01*
X469000Y836000D01*
X503458Y626000D02*
Y792404D01*
X700000Y679000D02*
Y702000D01*
X411642Y749642D02*
Y767450D01*
D13*
X540500Y588750D02*
Y599250D01*
Y588750D02*
X603750Y525500D01*
Y475750D02*
Y525500D01*
X477471Y618971D02*
X496750Y638250D01*
X475000Y618500D02*
X475471Y618971D01*
X477471D01*
X593131Y848869D02*
X607500Y834500D01*
Y772000D02*
Y834500D01*
X550000Y328000D02*
X572000D01*
X603750Y359750D01*
Y450750D01*
X523250Y641250D02*
X540500Y624000D01*
X523250Y641250D02*
Y667750D01*
X496750Y638250D02*
Y681000D01*
X493250Y684500D02*
X496750Y681000D01*
X493250Y684500D02*
Y735500D01*
X458517Y848869D02*
X593131D01*
D30*
X465000Y820500D02*
D03*
X1160000Y345000D02*
D03*
X488665Y836390D02*
D03*
X492500Y566500D02*
D03*
D98*
X190000Y635000D02*
D03*
X78000D02*
D03*
X1210000D02*
D03*
X1322000D02*
D03*
D99*
X159000Y560000D02*
D03*
X134000D02*
D03*
X159000Y705000D02*
D03*
X109000D02*
D03*
X1241000D02*
D03*
X1291000D02*
D03*
X1266000Y560000D02*
D03*
X1291000D02*
D03*
D100*
X109000D02*
D03*
X1241000D02*
D03*
D115*
X529000Y515000D02*
Y519858D01*
X471494Y523373D02*
X525485D01*
X529000Y519858D01*
X517946Y514946D02*
X518000Y515000D01*
X473314Y514946D02*
X517946D01*
X473259Y514891D02*
X473314Y514946D01*
D116*
X1123000Y329000D02*
X1123250D01*
X1073000Y379000D02*
X1123000Y329000D01*
X1073000Y379000D02*
Y407000D01*
D118*
X150000Y387250D02*
D03*
Y412750D02*
D03*
X1250000Y387250D02*
D03*
Y412750D02*
D03*
X1240000Y143500D02*
D03*
X1189000D02*
D03*
X1214500D02*
D03*
D119*
X394500Y849000D02*
D03*
Y899000D02*
D03*
D120*
X1170000Y851500D02*
D03*
D121*
X1218000Y879500D02*
D03*
Y821500D02*
D03*
D122*
X1289000Y879000D02*
D03*
D123*
Y903000D02*
D03*
D124*
X1085400Y190800D02*
D03*
X575400D02*
D03*
X355400D02*
D03*
X855400D02*
D03*
D125*
X1021900Y165400D02*
D03*
X511900D02*
D03*
X291900D02*
D03*
X791900D02*
D03*
D126*
X515750Y810250D02*
D03*
X625000Y672000D02*
D03*
X211500Y698500D02*
D03*
X390250Y815000D02*
D03*
X1063250Y361000D02*
D03*
X1022750D02*
D03*
X1103500Y425000D02*
D03*
X1063000D02*
D03*
X1160000Y422000D02*
D03*
X1151250D02*
D03*
X248750Y378750D02*
D03*
X669750Y789000D02*
D03*
X416500Y797500D02*
D03*
X360500Y772250D02*
D03*
X310500Y724500D02*
D03*
X603750Y450750D02*
D03*
Y475750D02*
D03*
X540500Y599250D02*
D03*
Y624000D02*
D03*
X523250Y667750D02*
D03*
X475000Y618500D02*
D03*
X493250Y735500D02*
D03*
X474250Y627895D02*
D03*
X460500Y564750D02*
D03*
X39750Y232250D02*
D03*
X272500Y767250D02*
D03*
X281000D02*
D03*
X427500Y537250D02*
D03*
X438500D02*
D03*
X449500D02*
D03*
X427500Y526250D02*
D03*
X438500D02*
D03*
X449500D02*
D03*
X427500Y515250D02*
D03*
X438500D02*
D03*
X449500D02*
D03*
X443500Y731250D02*
D03*
X438250Y726000D02*
D03*
X201500Y403500D02*
D03*
Y396500D02*
D03*
X219356Y499553D02*
D03*
X251750Y499500D02*
D03*
X412500Y877000D02*
D03*
X479250Y688000D02*
D03*
X475250Y735250D02*
D03*
X431000Y559250D02*
D03*
X473500Y829250D02*
D03*
X478500Y822750D02*
D03*
X488500D02*
D03*
X436000Y584750D02*
D03*
X446000D02*
D03*
X451000Y578000D02*
D03*
X431000D02*
D03*
X441000Y577500D02*
D03*
X1199250Y403500D02*
D03*
Y396500D02*
D03*
X448750Y736750D02*
D03*
X607500Y772000D02*
D03*
X1068000Y875250D02*
D03*
X1100000D02*
D03*
X1134000D02*
D03*
X700000Y885500D02*
D03*
X1259500Y129500D02*
D03*
Y170000D02*
D03*
Y210500D02*
D03*
X1132500Y339500D02*
D03*
X1113750Y318500D02*
D03*
X1247250Y232750D02*
D03*
X1229500Y250250D02*
D03*
X1211750Y267750D02*
D03*
X1194000Y285250D02*
D03*
X1176250Y302750D02*
D03*
X1158500Y320250D02*
D03*
X1007750Y224250D02*
D03*
X990250Y242000D02*
D03*
X971500Y259750D02*
D03*
X954000Y277500D02*
D03*
X1172750Y197250D02*
D03*
X1190250Y179500D02*
D03*
X1151250Y210250D02*
D03*
X1110750D02*
D03*
X1029750D02*
D03*
X1070250D02*
D03*
X901250Y328000D02*
D03*
X860750D02*
D03*
X781250Y326000D02*
D03*
X748250Y342750D02*
D03*
X664500Y373250D02*
D03*
X587500D02*
D03*
X547000D02*
D03*
X471250Y375250D02*
D03*
X430750D02*
D03*
X349750D02*
D03*
X390250D02*
D03*
X309250D02*
D03*
X1214000Y209750D02*
D03*
X1196500Y227500D02*
D03*
X1162250Y250000D02*
D03*
X1121750D02*
D03*
X963000Y320750D02*
D03*
X768250Y375500D02*
D03*
X750750Y393250D02*
D03*
X714750Y412750D02*
D03*
X624750D02*
D03*
X584250D02*
D03*
X757500Y432750D02*
D03*
X775000Y415000D02*
D03*
X792500Y397250D02*
D03*
X810000Y379500D02*
D03*
X982250Y361000D02*
D03*
X901250Y363500D02*
D03*
X860750D02*
D03*
X665250Y495000D02*
D03*
X624750D02*
D03*
X584250D02*
D03*
X1022500Y425000D02*
D03*
X792000Y489000D02*
D03*
X756250Y524500D02*
D03*
X736750Y544000D02*
D03*
X860500Y425000D02*
D03*
X901000D02*
D03*
X941500D02*
D03*
X982000D02*
D03*
X584000Y561250D02*
D03*
X624500D02*
D03*
X665000D02*
D03*
X705500D02*
D03*
X491500Y454500D02*
D03*
X471250Y436750D02*
D03*
X430750D02*
D03*
X390250D02*
D03*
X349750D02*
D03*
X309250D02*
D03*
X533871Y681383D02*
D03*
X555000Y699000D02*
D03*
X632750Y642750D02*
D03*
X697750D02*
D03*
X748500Y720000D02*
D03*
X711750Y702895D02*
D03*
X700000Y804750D02*
D03*
X845250Y724750D02*
D03*
X755500Y625750D02*
D03*
X767750Y637000D02*
D03*
X754500Y605750D02*
D03*
X773750Y593500D02*
D03*
X753250Y566500D02*
D03*
X866250Y590000D02*
D03*
X882750Y564750D02*
D03*
X1006500Y592250D02*
D03*
X1006250Y551000D02*
D03*
X1083000Y494500D02*
D03*
X1113000Y510000D02*
D03*
X1154500Y503000D02*
D03*
X280500Y539000D02*
D03*
X575250Y450750D02*
D03*
Y475750D02*
D03*
X723250Y450750D02*
D03*
X708625Y475625D02*
D03*
X822750Y475750D02*
D03*
X837250Y450750D02*
D03*
X942250D02*
D03*
Y475750D02*
D03*
X1014750D02*
D03*
Y450750D02*
D03*
X1068500Y328000D02*
D03*
X927750Y301500D02*
D03*
X822750Y328000D02*
D03*
X550000Y335250D02*
D03*
X524750Y328000D02*
D03*
X430750Y320000D02*
D03*
X458000Y320750D02*
D03*
X103250Y310000D02*
D03*
X36500Y459000D02*
D03*
X217750Y507000D02*
D03*
X267250Y499500D02*
D03*
X234250Y505500D02*
D03*
X237750Y519000D02*
D03*
X265750D02*
D03*
X292000D02*
D03*
X311000Y532000D02*
D03*
X431000Y566500D02*
D03*
X503250Y559500D02*
D03*
X492750Y590500D02*
D03*
Y597750D02*
D03*
X523295Y602163D02*
D03*
Y622837D02*
D03*
X496163D02*
D03*
X486750Y672000D02*
D03*
X384500Y627250D02*
D03*
X384000Y599000D02*
D03*
X360000Y599250D02*
D03*
X339020Y619270D02*
D03*
X321500Y605000D02*
D03*
X474250Y649000D02*
D03*
X339020Y634730D02*
D03*
X349000Y687000D02*
D03*
Y728500D02*
D03*
X435500Y847750D02*
D03*
X462520Y867520D02*
D03*
X499000Y825750D02*
D03*
X478000Y842000D02*
D03*
X876750Y569750D02*
D03*
X871250Y596000D02*
D03*
X411000Y861000D02*
D03*
X400000Y827000D02*
D03*
X458000Y328000D02*
D03*
X532000D02*
D03*
X413000Y613750D02*
D03*
X463000Y589000D02*
D03*
X568000Y450750D02*
D03*
Y475750D02*
D03*
X558500Y450750D02*
D03*
Y475750D02*
D03*
X549250Y450750D02*
D03*
Y475750D02*
D03*
X509750Y620000D02*
D03*
X516000Y599000D02*
D03*
X509750Y592750D02*
D03*
X503250Y566750D02*
D03*
X503458Y626000D02*
D03*
X516000D02*
D03*
X352500Y534000D02*
D03*
X318750Y539000D02*
D03*
X292000D02*
D03*
X280500Y517250D02*
D03*
X251750D02*
D03*
X330000Y627000D02*
D03*
Y605000D02*
D03*
X375750Y626750D02*
D03*
X935000Y301500D02*
D03*
X1123250Y329000D02*
D03*
X760500Y566500D02*
D03*
Y600750D02*
D03*
Y631750D02*
D03*
X935000Y475750D02*
D03*
Y450750D02*
D03*
X830000Y475750D02*
D03*
X1006250Y450750D02*
D03*
Y475750D02*
D03*
X830000Y450750D02*
D03*
X103250Y318500D02*
D03*
X330000Y254000D02*
D03*
X774000Y743000D02*
D03*
X590000Y837000D02*
D03*
X240000Y378500D02*
D03*
X464000Y736000D02*
D03*
X1059000Y802000D02*
D03*
X1071000D02*
D03*
X1083000D02*
D03*
X1059000Y790000D02*
D03*
X1071000D02*
D03*
X1083000D02*
D03*
Y778000D02*
D03*
X1071000D02*
D03*
X1059000D02*
D03*
X826000Y696000D02*
D03*
X927000Y850000D02*
D03*
X915000D02*
D03*
X939000D02*
D03*
Y838000D02*
D03*
X915000D02*
D03*
X927000D02*
D03*
X1054000Y680000D02*
D03*
X1066000D02*
D03*
X915000Y790000D02*
D03*
X927000D02*
D03*
X939000D02*
D03*
Y802000D02*
D03*
X927000D02*
D03*
X915000D02*
D03*
X927000Y826000D02*
D03*
X915000D02*
D03*
X939000D02*
D03*
X915000Y814000D02*
D03*
X927000D02*
D03*
X939000D02*
D03*
X1033000Y726000D02*
D03*
X1021000D02*
D03*
X1009000D02*
D03*
X1033000Y738000D02*
D03*
X1009000D02*
D03*
X1021000D02*
D03*
X1009000Y714000D02*
D03*
X1021000D02*
D03*
X1033000D02*
D03*
X1078000Y692000D02*
D03*
X1066000D02*
D03*
X1054000D02*
D03*
X1066000Y716000D02*
D03*
X1054000D02*
D03*
X1078000D02*
D03*
X1054000Y704000D02*
D03*
X1066000D02*
D03*
X1078000D02*
D03*
X1169117Y628398D02*
D03*
X1157117D02*
D03*
X1145117D02*
D03*
X1133117D02*
D03*
X1121117D02*
D03*
X1109117D02*
D03*
X1097117D02*
D03*
X1169117Y640398D02*
D03*
X1157117D02*
D03*
X1145117D02*
D03*
X1133117D02*
D03*
X1121117D02*
D03*
X1097117D02*
D03*
X1109117D02*
D03*
X438000Y320000D02*
D03*
X1073000Y407000D02*
D03*
X529000Y515000D02*
D03*
X518000D02*
D03*
X473259Y514891D02*
D03*
X471494Y523373D02*
D03*
X700000Y679000D02*
D03*
Y702000D02*
D03*
X411642Y767450D02*
D03*
X516000Y774000D02*
D03*
X515959Y782242D02*
D03*
X509706Y787290D02*
D03*
X503458Y792404D02*
D03*
X1060000Y328000D02*
D03*
X830000D02*
D03*
X550000D02*
D03*
X28000Y459000D02*
D03*
X700000Y812000D02*
D03*
X376000Y650000D02*
D03*
X458517Y848869D02*
D03*
X529000Y780000D02*
D03*
X454000Y715000D02*
D03*
X464000Y727000D02*
D03*
X459000Y721000D02*
D03*
X433000D02*
D03*
X485000Y538000D02*
D03*
X396000Y532000D02*
D03*
X411000Y560000D02*
D03*
X477000Y538000D02*
D03*
X1052000Y756000D02*
D03*
X1306000Y541000D02*
D03*
X1227000D02*
D03*
X971000Y224000D02*
D03*
X1060000Y254000D02*
D03*
X830000D02*
D03*
X741000Y224000D02*
D03*
X550000Y254000D02*
D03*
X461000Y224000D02*
D03*
X241000D02*
D03*
X174000Y541000D02*
D03*
X95000D02*
D03*
X384000Y516000D02*
D03*
X427000Y487000D02*
D03*
X410000Y479000D02*
D03*
X485000Y555000D02*
D03*
X405000Y554000D02*
D03*
X463000Y613000D02*
D03*
X803000Y743000D02*
D03*
X754000Y702000D02*
D03*
X776000Y673000D02*
D03*
X745000D02*
D03*
X712000D02*
D03*
X686000D02*
D03*
X667000Y675000D02*
D03*
Y683000D02*
D03*
X343000Y736000D02*
D03*
X595000Y806000D02*
D03*
X590000Y867500D02*
D03*
X526000D02*
D03*
X442000Y827000D02*
D03*
X418000D02*
D03*
X418000Y716000D02*
D03*
X426000D02*
D03*
X461000Y709000D02*
D03*
X415000D02*
D03*
X468000Y705000D02*
D03*
Y697000D02*
D03*
X408000Y705000D02*
D03*
Y697000D02*
D03*
X468000Y689000D02*
D03*
X408000D02*
D03*
X415000Y684000D02*
D03*
X418000Y676000D02*
D03*
X426000D02*
D03*
X434000D02*
D03*
X442000D02*
D03*
X450000D02*
D03*
X458000D02*
D03*
X461000Y684000D02*
D03*
X479250Y712000D02*
D03*
X355000Y736000D02*
D03*
X414000Y737000D02*
D03*
X402000Y753000D02*
D03*
X1191000Y757000D02*
D03*
X1030000Y756000D02*
D03*
X962000Y850000D02*
D03*
D127*
X512500Y270000D02*
D03*
X587500D02*
D03*
X662500Y870000D02*
D03*
X737500D02*
D03*
X1097500Y270000D02*
D03*
X1022500D02*
D03*
X867500D02*
D03*
X792500D02*
D03*
X292500D02*
D03*
X367500D02*
D03*
D128*
X700000Y350000D02*
D03*
X1350000Y870000D02*
D03*
Y50000D02*
D03*
X50000Y780000D02*
D03*
Y50000D02*
D03*
M02*
