G04*
G04 #@! TF.GenerationSoftware,Altium Limited,Altium Designer,24.5.2 (23)*
G04*
G04 Layer_Color=8421504*
%FSLAX44Y44*%
%MOMM*%
G71*
G04*
G04 #@! TF.SameCoordinates,4DB407A0-4691-4D8C-B920-06E893975E0B*
G04*
G04*
G04 #@! TF.FilePolarity,Positive*
G04*
G01*
G75*
%ADD14R,1.7000X0.5500*%
%ADD15R,0.9000X1.0000*%
%ADD16O,0.8000X0.3000*%
%ADD17O,0.3000X0.8000*%
%ADD18R,3.1500X3.1500*%
%ADD19R,0.8500X1.3500*%
%ADD20R,5.5500X6.3000*%
%ADD21R,0.9000X1.4500*%
%ADD22R,1.0100X1.7000*%
%ADD23R,0.5250X0.3500*%
%ADD24R,1.5500X1.5500*%
%ADD25R,1.5000X2.3000*%
%ADD26R,0.4000X0.3000*%
%ADD27R,5.6000X5.6000*%
%ADD28O,0.7500X0.2500*%
%ADD29O,0.2500X0.7500*%
%ADD30C,1.0000*%
%ADD31R,1.4000X1.2000*%
%ADD32R,0.5200X0.5600*%
%ADD33R,0.5600X0.5200*%
G04:AMPARAMS|DCode=34|XSize=0.52mm|YSize=0.56mm|CornerRadius=0mm|HoleSize=0mm|Usage=FLASHONLY|Rotation=315.000|XOffset=0mm|YOffset=0mm|HoleType=Round|Shape=Rectangle|*
%AMROTATEDRECTD34*
4,1,4,-0.3818,-0.0141,0.0141,0.3818,0.3818,0.0141,-0.0141,-0.3818,-0.3818,-0.0141,0.0*
%
%ADD34ROTATEDRECTD34*%

G04:AMPARAMS|DCode=35|XSize=0.52mm|YSize=0.56mm|CornerRadius=0mm|HoleSize=0mm|Usage=FLASHONLY|Rotation=45.000|XOffset=0mm|YOffset=0mm|HoleType=Round|Shape=Rectangle|*
%AMROTATEDRECTD35*
4,1,4,0.0141,-0.3818,-0.3818,0.0141,-0.0141,0.3818,0.3818,-0.0141,0.0141,-0.3818,0.0*
%
%ADD35ROTATEDRECTD35*%

%ADD36R,1.5055X1.8582*%
%ADD37R,4.0000X3.4000*%
%ADD38R,0.4500X0.5500*%
%ADD39R,0.6500X0.6000*%
%ADD40R,1.8582X1.5055*%
%ADD41R,0.3000X1.1000*%
%ADD42R,2.3000X3.1000*%
G04:AMPARAMS|DCode=43|XSize=0.3mm|YSize=0.3mm|CornerRadius=0.0495mm|HoleSize=0mm|Usage=FLASHONLY|Rotation=90.000|XOffset=0mm|YOffset=0mm|HoleType=Round|Shape=RoundedRectangle|*
%AMROUNDEDRECTD43*
21,1,0.3000,0.2010,0,0,90.0*
21,1,0.2010,0.3000,0,0,90.0*
1,1,0.0990,0.1005,0.1005*
1,1,0.0990,0.1005,-0.1005*
1,1,0.0990,-0.1005,-0.1005*
1,1,0.0990,-0.1005,0.1005*
%
%ADD43ROUNDEDRECTD43*%
%ADD44R,0.8500X0.7500*%
%ADD45R,1.3500X0.4000*%
%ADD46R,1.9000X1.5000*%
%ADD47R,1.3500X0.8500*%
G04:AMPARAMS|DCode=48|XSize=1.35mm|YSize=0.85mm|CornerRadius=0mm|HoleSize=0mm|Usage=FLASHONLY|Rotation=315.000|XOffset=0mm|YOffset=0mm|HoleType=Round|Shape=Rectangle|*
%AMROTATEDRECTD48*
4,1,4,-0.7778,0.1768,-0.1768,0.7778,0.7778,-0.1768,0.1768,-0.7778,-0.7778,0.1768,0.0*
%
%ADD48ROTATEDRECTD48*%

%ADD49R,2.0300X1.5200*%
%ADD50R,1.6500X1.9000*%
%ADD51R,2.2000X3.5000*%
%ADD52R,2.2000X1.2000*%
%ADD53R,1.0500X1.3500*%
%ADD54R,1.0000X0.9000*%
%ADD55R,0.4500X0.5000*%
%ADD56R,0.7500X0.8500*%
D14*
X60250Y243750D02*
D03*
D15*
X80750Y250000D02*
D03*
Y266000D02*
D03*
X39750D02*
D03*
Y250000D02*
D03*
D16*
X414350Y543750D02*
D03*
Y538750D02*
D03*
Y533750D02*
D03*
Y528750D02*
D03*
Y523750D02*
D03*
Y518750D02*
D03*
Y513750D02*
D03*
Y508750D02*
D03*
X462650D02*
D03*
Y513750D02*
D03*
Y518750D02*
D03*
Y523750D02*
D03*
Y528750D02*
D03*
Y533750D02*
D03*
Y538750D02*
D03*
Y543750D02*
D03*
D17*
X421000Y502100D02*
D03*
X426000D02*
D03*
X431000D02*
D03*
X436000D02*
D03*
X441000D02*
D03*
X446000D02*
D03*
X451000D02*
D03*
X456000D02*
D03*
Y550400D02*
D03*
X451000D02*
D03*
X446000D02*
D03*
X441000D02*
D03*
X436000D02*
D03*
X431000D02*
D03*
X426000D02*
D03*
X421000D02*
D03*
D18*
X438500Y526250D02*
D03*
D19*
X51750Y285000D02*
D03*
X68250D02*
D03*
X1166750Y372250D02*
D03*
X1183250D02*
D03*
X233500Y427750D02*
D03*
X217000D02*
D03*
Y362250D02*
D03*
X233500D02*
D03*
X85250Y541000D02*
D03*
X68750D02*
D03*
X183750D02*
D03*
X200250D02*
D03*
X1217250D02*
D03*
X1200750D02*
D03*
X1315750D02*
D03*
X1332250D02*
D03*
X1166750Y437750D02*
D03*
X1183250D02*
D03*
D20*
X1150000Y687000D02*
D03*
D21*
X1127200Y757000D02*
D03*
X1172800D02*
D03*
D22*
X1065400Y737500D02*
D03*
D23*
X1075150Y744000D02*
D03*
Y737500D02*
D03*
Y731000D02*
D03*
X1055650D02*
D03*
Y737500D02*
D03*
Y744000D02*
D03*
D24*
X307000Y419000D02*
D03*
X289000D02*
D03*
X1089000Y381000D02*
D03*
X1107000D02*
D03*
X307000Y393000D02*
D03*
X289000D02*
D03*
X1089000Y407000D02*
D03*
X1107000D02*
D03*
D25*
X225000Y400000D02*
D03*
X1175000D02*
D03*
D26*
X209500Y390250D02*
D03*
Y396750D02*
D03*
Y403250D02*
D03*
Y409750D02*
D03*
X240500D02*
D03*
Y403250D02*
D03*
Y396750D02*
D03*
Y390250D02*
D03*
X1190500Y409750D02*
D03*
Y403250D02*
D03*
Y396750D02*
D03*
Y390250D02*
D03*
X1159500D02*
D03*
Y396750D02*
D03*
Y403250D02*
D03*
Y409750D02*
D03*
D27*
X461000Y780000D02*
D03*
D28*
X427250Y752500D02*
D03*
Y757500D02*
D03*
Y762500D02*
D03*
Y767500D02*
D03*
Y772500D02*
D03*
Y777500D02*
D03*
Y782500D02*
D03*
Y787500D02*
D03*
Y792500D02*
D03*
Y797500D02*
D03*
Y802500D02*
D03*
Y807500D02*
D03*
X494750D02*
D03*
Y802500D02*
D03*
Y797500D02*
D03*
Y792500D02*
D03*
Y787500D02*
D03*
Y782500D02*
D03*
Y777500D02*
D03*
Y772500D02*
D03*
Y767500D02*
D03*
Y762500D02*
D03*
Y757500D02*
D03*
Y752500D02*
D03*
D29*
X433500Y813750D02*
D03*
X438500D02*
D03*
X443500D02*
D03*
X448500D02*
D03*
X453500D02*
D03*
X458500D02*
D03*
X463500D02*
D03*
X468500D02*
D03*
X473500D02*
D03*
X478500D02*
D03*
X483500D02*
D03*
X488500D02*
D03*
Y746250D02*
D03*
X483500D02*
D03*
X478500D02*
D03*
X473500D02*
D03*
X468500D02*
D03*
X463500D02*
D03*
X458500D02*
D03*
X453500D02*
D03*
X448500D02*
D03*
X443500D02*
D03*
X438500D02*
D03*
X433500D02*
D03*
D30*
X523250Y711500D02*
D03*
X488250Y847500D02*
D03*
X521000Y792000D02*
D03*
X519000Y764000D02*
D03*
X550325Y737325D02*
D03*
X567175Y739875D02*
D03*
X386000Y720000D02*
D03*
X490000Y687750D02*
D03*
Y704000D02*
D03*
X1133000Y616000D02*
D03*
X1330000Y779000D02*
D03*
X927000Y875000D02*
D03*
X1021000Y696000D02*
D03*
X572000Y617000D02*
D03*
Y642000D02*
D03*
X331000Y393000D02*
D03*
X411250Y601250D02*
D03*
X332000Y419000D02*
D03*
X475000Y503000D02*
D03*
X1060000Y407000D02*
D03*
X458000Y487000D02*
D03*
X1060000Y381000D02*
D03*
D31*
X449000Y613750D02*
D03*
X427000D02*
D03*
X449000Y596750D02*
D03*
X427000D02*
D03*
D32*
X511750Y825900D02*
D03*
Y818100D02*
D03*
X520250Y825900D02*
D03*
Y818100D02*
D03*
X410000Y745100D02*
D03*
Y752900D02*
D03*
X418000Y745100D02*
D03*
Y752900D02*
D03*
X483250Y720100D02*
D03*
Y727900D02*
D03*
X475250Y720100D02*
D03*
Y727900D02*
D03*
X479000Y703900D02*
D03*
Y696100D02*
D03*
X460000Y699900D02*
D03*
Y692100D02*
D03*
X416000Y692100D02*
D03*
Y699900D02*
D03*
X463000Y604900D02*
D03*
Y597100D02*
D03*
X248500Y354350D02*
D03*
Y362150D02*
D03*
X248750Y396650D02*
D03*
Y388850D02*
D03*
X675000Y682900D02*
D03*
Y675100D02*
D03*
X1047000Y741400D02*
D03*
Y733600D02*
D03*
X1151000Y437850D02*
D03*
Y445650D02*
D03*
Y403350D02*
D03*
Y411150D02*
D03*
D33*
X561900Y818000D02*
D03*
X554100D02*
D03*
X477100Y546000D02*
D03*
X484900D02*
D03*
X399900Y516000D02*
D03*
X392100D02*
D03*
X399900Y524000D02*
D03*
X392100D02*
D03*
X399900Y508000D02*
D03*
X392100D02*
D03*
X435100Y487000D02*
D03*
X442900D02*
D03*
X221350Y441750D02*
D03*
X229150D02*
D03*
X1067900Y756000D02*
D03*
X1060100D02*
D03*
X1171100Y358000D02*
D03*
X1178900D02*
D03*
X426100Y823000D02*
D03*
X433900D02*
D03*
X426100Y831000D02*
D03*
X433900D02*
D03*
D34*
X403758Y566758D02*
D03*
X398242Y561242D02*
D03*
D35*
X478758D02*
D03*
X473242Y566758D02*
D03*
X398242Y490758D02*
D03*
X403758Y485242D02*
D03*
D36*
X984236Y850000D02*
D03*
X1013764D02*
D03*
X543236Y837000D02*
D03*
X572764D02*
D03*
X543236Y867500D02*
D03*
X572764D02*
D03*
D37*
X558000Y780000D02*
D03*
D38*
X538950Y809750D02*
D03*
X551650D02*
D03*
X564350D02*
D03*
X577050D02*
D03*
Y750250D02*
D03*
X564350D02*
D03*
X551650D02*
D03*
X538950D02*
D03*
D39*
X330000Y262750D02*
D03*
Y277250D02*
D03*
X550000Y262750D02*
D03*
Y277250D02*
D03*
X700000Y862750D02*
D03*
Y877250D02*
D03*
X1060000Y277250D02*
D03*
Y262750D02*
D03*
X830000Y277250D02*
D03*
Y262750D02*
D03*
D40*
X774000Y725764D02*
D03*
Y696236D02*
D03*
X1100000Y667236D02*
D03*
Y696764D02*
D03*
Y752764D02*
D03*
Y723236D02*
D03*
X1099916Y823236D02*
D03*
Y852764D02*
D03*
X1068281Y823033D02*
D03*
Y852561D02*
D03*
X803000Y696236D02*
D03*
Y725764D02*
D03*
D41*
X700000Y658000D02*
D03*
X705000D02*
D03*
X695000D02*
D03*
X690000D02*
D03*
X685000D02*
D03*
X680000D02*
D03*
X675000D02*
D03*
X670000D02*
D03*
X665000D02*
D03*
X660000D02*
D03*
X655000D02*
D03*
X650000D02*
D03*
X645000D02*
D03*
X640000D02*
D03*
X635000D02*
D03*
X630000D02*
D03*
X625000D02*
D03*
X710000D02*
D03*
X715000D02*
D03*
X720000D02*
D03*
X725000D02*
D03*
X730000D02*
D03*
X735000D02*
D03*
X740000D02*
D03*
X745000D02*
D03*
X750000D02*
D03*
X755000D02*
D03*
X760000D02*
D03*
X765000D02*
D03*
X770000D02*
D03*
X775000D02*
D03*
D42*
X605800Y641000D02*
D03*
X794200D02*
D03*
D43*
X426250Y873500D02*
D03*
X417750Y877000D02*
D03*
X426250Y880500D02*
D03*
D44*
X435000Y883250D02*
D03*
Y870750D02*
D03*
X343000Y745000D02*
D03*
Y757500D02*
D03*
X355000Y745000D02*
D03*
Y757500D02*
D03*
D45*
X394500Y887000D02*
D03*
Y880500D02*
D03*
Y874000D02*
D03*
Y867500D02*
D03*
Y861000D02*
D03*
D46*
X367500Y884000D02*
D03*
Y864000D02*
D03*
D47*
X476000Y602250D02*
D03*
Y585750D02*
D03*
X550000Y318250D02*
D03*
Y301750D02*
D03*
X595000Y788250D02*
D03*
Y771750D02*
D03*
X971000Y214250D02*
D03*
Y197750D02*
D03*
X461000Y214250D02*
D03*
Y197750D02*
D03*
X241000Y214250D02*
D03*
Y197750D02*
D03*
X741000Y214250D02*
D03*
Y197750D02*
D03*
X700000Y838250D02*
D03*
Y821750D02*
D03*
X1060000Y301750D02*
D03*
Y318250D02*
D03*
X330000Y301750D02*
D03*
Y318250D02*
D03*
X830000Y301750D02*
D03*
Y318250D02*
D03*
D48*
X485834Y490834D02*
D03*
X474166Y479166D02*
D03*
D49*
X1289000Y855200D02*
D03*
Y824800D02*
D03*
D50*
X1134000Y859000D02*
D03*
Y821000D02*
D03*
D51*
X968000Y800000D02*
D03*
D52*
X1030000Y823000D02*
D03*
Y800000D02*
D03*
Y777000D02*
D03*
D53*
X1006250Y756000D02*
D03*
X991750D02*
D03*
D54*
X428750Y703500D02*
D03*
X447250D02*
D03*
Y688500D02*
D03*
X428750D02*
D03*
D55*
X754000Y686250D02*
D03*
Y693750D02*
D03*
D56*
X1137250Y400000D02*
D03*
X1124750D02*
D03*
X258750D02*
D03*
X271250D02*
D03*
X1137250Y388000D02*
D03*
X1124750D02*
D03*
X258750Y412000D02*
D03*
X271250D02*
D03*
M02*
