G04*
G04 #@! TF.GenerationSoftware,Altium Limited,Altium Designer,24.5.2 (23)*
G04*
G04 Layer_Color=8388736*
%FSLAX44Y44*%
%MOMM*%
G71*
G04*
G04 #@! TF.SameCoordinates,4DB407A0-4691-4D8C-B920-06E893975E0B*
G04*
G04*
G04 #@! TF.FilePolarity,Negative*
G04*
G01*
G75*
%ADD36R,1.5055X1.8582*%
%ADD40R,1.8582X1.5055*%
%ADD57R,1.9032X0.7532*%
%ADD58R,1.1032X1.2032*%
%ADD59O,0.9000X0.4000*%
%ADD60O,0.4000X0.9000*%
%ADD61R,3.2500X3.2500*%
%ADD62R,0.9500X1.4500*%
%ADD63R,5.7532X6.5032*%
%ADD64R,1.1032X1.6532*%
%ADD65R,1.1100X1.8000*%
%ADD66R,0.6250X0.4500*%
%ADD67R,1.6500X1.6500*%
%ADD68R,1.6000X2.4000*%
%ADD69R,0.5000X0.4000*%
%ADD70R,5.7000X5.7000*%
%ADD71O,0.8500X0.3500*%
%ADD72O,0.3500X0.8500*%
%ADD73C,1.1000*%
%ADD74R,1.6032X1.4032*%
%ADD75R,0.6200X0.6600*%
%ADD76R,0.6600X0.6200*%
G04:AMPARAMS|DCode=77|XSize=0.62mm|YSize=0.66mm|CornerRadius=0mm|HoleSize=0mm|Usage=FLASHONLY|Rotation=315.000|XOffset=0mm|YOffset=0mm|HoleType=Round|Shape=Rectangle|*
%AMROTATEDRECTD77*
4,1,4,-0.4526,-0.0141,0.0141,0.4526,0.4526,0.0141,-0.0141,-0.4526,-0.4526,-0.0141,0.0*
%
%ADD77ROTATEDRECTD77*%

G04:AMPARAMS|DCode=78|XSize=0.62mm|YSize=0.66mm|CornerRadius=0mm|HoleSize=0mm|Usage=FLASHONLY|Rotation=45.000|XOffset=0mm|YOffset=0mm|HoleType=Round|Shape=Rectangle|*
%AMROTATEDRECTD78*
4,1,4,0.0141,-0.4526,-0.4526,0.0141,-0.0141,0.4526,0.4526,-0.0141,0.0141,-0.4526,0.0*
%
%ADD78ROTATEDRECTD78*%

%ADD79R,4.2032X3.6032*%
%ADD80R,0.6532X0.7532*%
%ADD81R,0.7500X0.7000*%
%ADD82R,0.5032X1.3032*%
%ADD83R,2.5032X3.3032*%
G04:AMPARAMS|DCode=84|XSize=0.5032mm|YSize=0.5032mm|CornerRadius=0.1511mm|HoleSize=0mm|Usage=FLASHONLY|Rotation=90.000|XOffset=0mm|YOffset=0mm|HoleType=Round|Shape=RoundedRectangle|*
%AMROUNDEDRECTD84*
21,1,0.5032,0.2010,0,0,90.0*
21,1,0.2010,0.5032,0,0,90.0*
1,1,0.3022,0.1005,0.1005*
1,1,0.3022,0.1005,-0.1005*
1,1,0.3022,-0.1005,-0.1005*
1,1,0.3022,-0.1005,0.1005*
%
%ADD84ROUNDEDRECTD84*%
%ADD85R,0.9500X0.8500*%
%ADD86R,1.4500X0.5000*%
%ADD87R,2.0000X1.6000*%
%ADD88R,1.4500X0.9500*%
G04:AMPARAMS|DCode=89|XSize=1.45mm|YSize=0.95mm|CornerRadius=0mm|HoleSize=0mm|Usage=FLASHONLY|Rotation=315.000|XOffset=0mm|YOffset=0mm|HoleType=Round|Shape=Rectangle|*
%AMROTATEDRECTD89*
4,1,4,-0.8485,0.1768,-0.1768,0.8485,0.8485,-0.1768,0.1768,-0.8485,-0.8485,0.1768,0.0*
%
%ADD89ROTATEDRECTD89*%

%ADD90R,2.2332X1.7232*%
%ADD91R,1.8532X2.1032*%
%ADD92R,2.4032X3.7032*%
%ADD93R,2.4032X1.4032*%
%ADD94R,1.1500X1.4500*%
%ADD95R,1.2032X1.1032*%
%ADD96R,0.5500X0.6000*%
%ADD97R,0.8500X0.9500*%
G04:AMPARAMS|DCode=98|XSize=2.6mm|YSize=4.7mm|CornerRadius=1.3mm|HoleSize=0mm|Usage=FLASHONLY|Rotation=0.000|XOffset=0mm|YOffset=0mm|HoleType=Round|Shape=RoundedRectangle|*
%AMROUNDEDRECTD98*
21,1,2.6000,2.1000,0,0,0.0*
21,1,0.0000,4.7000,0,0,0.0*
1,1,2.6000,0.0000,-1.0500*
1,1,2.6000,0.0000,-1.0500*
1,1,2.6000,0.0000,1.0500*
1,1,2.6000,0.0000,1.0500*
%
%ADD98ROUNDEDRECTD98*%
%ADD99C,1.5500*%
%ADD100R,1.5500X1.5500*%
%ADD101C,1.7272*%
G04:AMPARAMS|DCode=102|XSize=4.2032mm|YSize=2.0032mm|CornerRadius=0.5516mm|HoleSize=0mm|Usage=FLASHONLY|Rotation=90.000|XOffset=0mm|YOffset=0mm|HoleType=Round|Shape=RoundedRectangle|*
%AMROUNDEDRECTD102*
21,1,4.2032,0.9000,0,0,90.0*
21,1,3.1000,2.0032,0,0,90.0*
1,1,1.1032,0.4500,1.5500*
1,1,1.1032,0.4500,-1.5500*
1,1,1.1032,-0.4500,-1.5500*
1,1,1.1032,-0.4500,1.5500*
%
%ADD102ROUNDEDRECTD102*%
G04:AMPARAMS|DCode=103|XSize=4.2032mm|YSize=2.0032mm|CornerRadius=0.5516mm|HoleSize=0mm|Usage=FLASHONLY|Rotation=0.000|XOffset=0mm|YOffset=0mm|HoleType=Round|Shape=RoundedRectangle|*
%AMROUNDEDRECTD103*
21,1,4.2032,0.9000,0,0,0.0*
21,1,3.1000,2.0032,0,0,0.0*
1,1,1.1032,1.5500,-0.4500*
1,1,1.1032,-1.5500,-0.4500*
1,1,1.1032,-1.5500,0.4500*
1,1,1.1032,1.5500,0.4500*
%
%ADD103ROUNDEDRECTD103*%
%ADD104C,1.9032*%
%ADD105R,1.9032X1.9032*%
%ADD106C,2.2032*%
%ADD107R,2.2032X2.2032*%
%ADD108C,0.6000*%
%ADD109C,0.7032*%
%ADD110C,2.6000*%
%ADD111C,5.6000*%
G36*
X372251Y915502D02*
X372742Y915502D01*
X372743D01*
D01*
X372840Y915493D01*
X373806Y915301D01*
X373901Y915272D01*
X373901Y915272D01*
X374811Y914895D01*
X374897Y914849D01*
X375716Y914302D01*
X375716Y914302D01*
X375793Y914239D01*
X376489Y913543D01*
X376489Y913543D01*
X376552Y913466D01*
X377099Y912648D01*
X377099Y912647D01*
X377145Y912561D01*
X377522Y911651D01*
X377522Y911651D01*
X377551Y911556D01*
X377743Y910591D01*
X377743Y910591D01*
X377752Y910492D01*
Y910000D01*
X377752Y897000D01*
X377743Y896902D01*
X377714Y896808D01*
X377668Y896721D01*
X377605Y896645D01*
X377529Y896582D01*
X377442Y896536D01*
X377348Y896507D01*
X377250Y896498D01*
X358250D01*
X358152Y896507D01*
X358058Y896536D01*
X357971Y896582D01*
X357895Y896645D01*
X357832Y896721D01*
X357786Y896808D01*
X357757Y896902D01*
X357748Y897000D01*
Y910250D01*
Y910718D01*
X357757Y910816D01*
X357940Y911733D01*
X357968Y911828D01*
X358326Y912692D01*
X358373Y912779D01*
X358893Y913557D01*
X358955Y913633D01*
X359617Y914295D01*
X359693Y914357D01*
X360471Y914877D01*
X360558Y914923D01*
X360558Y914924D01*
X361422Y915282D01*
X361516Y915310D01*
X362434Y915493D01*
X362532Y915502D01*
X372250D01*
X372251Y915502D01*
D02*
G37*
G36*
X377098Y851493D02*
X377192Y851464D01*
X377279Y851418D01*
X377355Y851355D01*
X377418Y851279D01*
X377464Y851192D01*
X377493Y851098D01*
X377502Y851000D01*
Y837750D01*
Y837282D01*
X377493Y837184D01*
X377310Y836266D01*
X377282Y836172D01*
X376924Y835308D01*
X376877Y835221D01*
X376357Y834443D01*
X376295Y834367D01*
X375633Y833705D01*
X375557Y833643D01*
X374779Y833123D01*
X374692Y833076D01*
X374692Y833076D01*
X373828Y832718D01*
X373733Y832690D01*
X372816Y832507D01*
X372718Y832498D01*
X363000D01*
X362999Y832498D01*
X362508Y832498D01*
X362508D01*
D01*
X362410Y832507D01*
X361443Y832699D01*
X361349Y832728D01*
X361349Y832728D01*
X360439Y833105D01*
X360353Y833151D01*
X359534Y833698D01*
X359534Y833699D01*
X359457Y833761D01*
X358761Y834457D01*
X358761Y834457D01*
X358699Y834534D01*
X358151Y835352D01*
X358151Y835352D01*
X358105Y835439D01*
X357728Y836349D01*
X357728Y836349D01*
X357699Y836443D01*
X357507Y837410D01*
X357507Y837410D01*
X357498Y837507D01*
Y838000D01*
X357498Y851000D01*
X357507Y851098D01*
X357536Y851192D01*
X357582Y851279D01*
X357645Y851355D01*
X357721Y851418D01*
X357808Y851464D01*
X357902Y851493D01*
X358000Y851502D01*
X377000D01*
X377098Y851493D01*
D02*
G37*
D36*
X984236Y850000D02*
D03*
X1013764D02*
D03*
X543236Y837000D02*
D03*
X572764D02*
D03*
X543236Y867500D02*
D03*
X572764D02*
D03*
D40*
X774000Y725764D02*
D03*
Y696236D02*
D03*
X1100000Y667236D02*
D03*
Y696764D02*
D03*
Y752764D02*
D03*
Y723236D02*
D03*
X1099916Y823236D02*
D03*
Y852764D02*
D03*
X1068281Y823033D02*
D03*
Y852561D02*
D03*
X803000Y696236D02*
D03*
Y725764D02*
D03*
D57*
X60250Y243750D02*
D03*
D58*
X80750Y250000D02*
D03*
Y266000D02*
D03*
X39750D02*
D03*
Y250000D02*
D03*
D59*
X414350Y543750D02*
D03*
Y538750D02*
D03*
Y533750D02*
D03*
Y528750D02*
D03*
Y523750D02*
D03*
Y518750D02*
D03*
Y513750D02*
D03*
Y508750D02*
D03*
X462650D02*
D03*
Y513750D02*
D03*
Y518750D02*
D03*
Y523750D02*
D03*
Y528750D02*
D03*
Y533750D02*
D03*
Y538750D02*
D03*
Y543750D02*
D03*
D60*
X421000Y502100D02*
D03*
X426000D02*
D03*
X431000D02*
D03*
X436000D02*
D03*
X441000D02*
D03*
X446000D02*
D03*
X451000D02*
D03*
X456000D02*
D03*
Y550400D02*
D03*
X451000D02*
D03*
X446000D02*
D03*
X441000D02*
D03*
X436000D02*
D03*
X431000D02*
D03*
X426000D02*
D03*
X421000D02*
D03*
D61*
X438500Y526250D02*
D03*
D62*
X51750Y285000D02*
D03*
X68250D02*
D03*
X1166750Y372250D02*
D03*
X1183250D02*
D03*
X233500Y427750D02*
D03*
X217000D02*
D03*
Y362250D02*
D03*
X233500D02*
D03*
X85250Y541000D02*
D03*
X68750D02*
D03*
X183750D02*
D03*
X200250D02*
D03*
X1217250D02*
D03*
X1200750D02*
D03*
X1315750D02*
D03*
X1332250D02*
D03*
X1166750Y437750D02*
D03*
X1183250D02*
D03*
D63*
X1150000Y687000D02*
D03*
D64*
X1127200Y757000D02*
D03*
X1172800D02*
D03*
D65*
X1065400Y737500D02*
D03*
D66*
X1075150Y744000D02*
D03*
Y737500D02*
D03*
Y731000D02*
D03*
X1055650D02*
D03*
Y737500D02*
D03*
Y744000D02*
D03*
D67*
X307000Y419000D02*
D03*
X289000D02*
D03*
X1089000Y381000D02*
D03*
X1107000D02*
D03*
X307000Y393000D02*
D03*
X289000D02*
D03*
X1089000Y407000D02*
D03*
X1107000D02*
D03*
D68*
X225000Y400000D02*
D03*
X1175000D02*
D03*
D69*
X209500Y390250D02*
D03*
Y396750D02*
D03*
Y403250D02*
D03*
Y409750D02*
D03*
X240500D02*
D03*
Y403250D02*
D03*
Y396750D02*
D03*
Y390250D02*
D03*
X1190500Y409750D02*
D03*
Y403250D02*
D03*
Y396750D02*
D03*
Y390250D02*
D03*
X1159500D02*
D03*
Y396750D02*
D03*
Y403250D02*
D03*
Y409750D02*
D03*
D70*
X461000Y780000D02*
D03*
D71*
X427250Y752500D02*
D03*
Y757500D02*
D03*
Y762500D02*
D03*
Y767500D02*
D03*
Y772500D02*
D03*
Y777500D02*
D03*
Y782500D02*
D03*
Y787500D02*
D03*
Y792500D02*
D03*
Y797500D02*
D03*
Y802500D02*
D03*
Y807500D02*
D03*
X494750D02*
D03*
Y802500D02*
D03*
Y797500D02*
D03*
Y792500D02*
D03*
Y787500D02*
D03*
Y782500D02*
D03*
Y777500D02*
D03*
Y772500D02*
D03*
Y767500D02*
D03*
Y762500D02*
D03*
Y757500D02*
D03*
Y752500D02*
D03*
D72*
X433500Y813750D02*
D03*
X438500D02*
D03*
X443500D02*
D03*
X448500D02*
D03*
X453500D02*
D03*
X458500D02*
D03*
X463500D02*
D03*
X468500D02*
D03*
X473500D02*
D03*
X478500D02*
D03*
X483500D02*
D03*
X488500D02*
D03*
Y746250D02*
D03*
X483500D02*
D03*
X478500D02*
D03*
X473500D02*
D03*
X468500D02*
D03*
X463500D02*
D03*
X458500D02*
D03*
X453500D02*
D03*
X448500D02*
D03*
X443500D02*
D03*
X438500D02*
D03*
X433500D02*
D03*
D73*
X523250Y711500D02*
D03*
X488250Y847500D02*
D03*
X521000Y792000D02*
D03*
X519000Y764000D02*
D03*
X550325Y737325D02*
D03*
X567175Y739875D02*
D03*
X386000Y720000D02*
D03*
X490000Y687750D02*
D03*
Y704000D02*
D03*
X1133000Y616000D02*
D03*
X1330000Y779000D02*
D03*
X927000Y875000D02*
D03*
X1021000Y696000D02*
D03*
X572000Y617000D02*
D03*
Y642000D02*
D03*
X331000Y393000D02*
D03*
X411250Y601250D02*
D03*
X332000Y419000D02*
D03*
X475000Y503000D02*
D03*
X1060000Y407000D02*
D03*
X458000Y487000D02*
D03*
X1060000Y381000D02*
D03*
D74*
X449000Y613750D02*
D03*
X427000D02*
D03*
X449000Y596750D02*
D03*
X427000D02*
D03*
D75*
X511750Y825900D02*
D03*
Y818100D02*
D03*
X520250Y825900D02*
D03*
Y818100D02*
D03*
X410000Y745100D02*
D03*
Y752900D02*
D03*
X418000Y745100D02*
D03*
Y752900D02*
D03*
X483250Y720100D02*
D03*
Y727900D02*
D03*
X475250Y720100D02*
D03*
Y727900D02*
D03*
X479000Y703900D02*
D03*
Y696100D02*
D03*
X460000Y699900D02*
D03*
Y692100D02*
D03*
X416000Y692100D02*
D03*
Y699900D02*
D03*
X463000Y604900D02*
D03*
Y597100D02*
D03*
X248500Y354350D02*
D03*
Y362150D02*
D03*
X248750Y396650D02*
D03*
Y388850D02*
D03*
X675000Y682900D02*
D03*
Y675100D02*
D03*
X1047000Y741400D02*
D03*
Y733600D02*
D03*
X1151000Y437850D02*
D03*
Y445650D02*
D03*
Y403350D02*
D03*
Y411150D02*
D03*
D76*
X561900Y818000D02*
D03*
X554100D02*
D03*
X477100Y546000D02*
D03*
X484900D02*
D03*
X399900Y516000D02*
D03*
X392100D02*
D03*
X399900Y524000D02*
D03*
X392100D02*
D03*
X399900Y508000D02*
D03*
X392100D02*
D03*
X435100Y487000D02*
D03*
X442900D02*
D03*
X221350Y441750D02*
D03*
X229150D02*
D03*
X1067900Y756000D02*
D03*
X1060100D02*
D03*
X1171100Y358000D02*
D03*
X1178900D02*
D03*
X426100Y823000D02*
D03*
X433900D02*
D03*
X426100Y831000D02*
D03*
X433900D02*
D03*
D77*
X403758Y566758D02*
D03*
X398242Y561242D02*
D03*
D78*
X478758D02*
D03*
X473242Y566758D02*
D03*
X398242Y490758D02*
D03*
X403758Y485242D02*
D03*
D79*
X558000Y780000D02*
D03*
D80*
X538950Y809750D02*
D03*
X551650D02*
D03*
X564350D02*
D03*
X577050D02*
D03*
Y750250D02*
D03*
X564350D02*
D03*
X551650D02*
D03*
X538950D02*
D03*
D81*
X330000Y262750D02*
D03*
Y277250D02*
D03*
X550000Y262750D02*
D03*
Y277250D02*
D03*
X700000Y862750D02*
D03*
Y877250D02*
D03*
X1060000Y277250D02*
D03*
Y262750D02*
D03*
X830000Y277250D02*
D03*
Y262750D02*
D03*
D82*
X700000Y658000D02*
D03*
X705000D02*
D03*
X695000D02*
D03*
X690000D02*
D03*
X685000D02*
D03*
X680000D02*
D03*
X675000D02*
D03*
X670000D02*
D03*
X665000D02*
D03*
X660000D02*
D03*
X655000D02*
D03*
X650000D02*
D03*
X645000D02*
D03*
X640000D02*
D03*
X635000D02*
D03*
X630000D02*
D03*
X625000D02*
D03*
X710000D02*
D03*
X715000D02*
D03*
X720000D02*
D03*
X725000D02*
D03*
X730000D02*
D03*
X735000D02*
D03*
X740000D02*
D03*
X745000D02*
D03*
X750000D02*
D03*
X755000D02*
D03*
X760000D02*
D03*
X765000D02*
D03*
X770000D02*
D03*
X775000D02*
D03*
D83*
X605800Y641000D02*
D03*
X794200D02*
D03*
D84*
X426250Y873500D02*
D03*
X417750Y877000D02*
D03*
X426250Y880500D02*
D03*
D85*
X435000Y883250D02*
D03*
Y870750D02*
D03*
X343000Y745000D02*
D03*
Y757500D02*
D03*
X355000Y745000D02*
D03*
Y757500D02*
D03*
D86*
X394500Y887000D02*
D03*
Y880500D02*
D03*
Y874000D02*
D03*
Y867500D02*
D03*
Y861000D02*
D03*
D87*
X367500Y884000D02*
D03*
Y864000D02*
D03*
D88*
X476000Y602250D02*
D03*
Y585750D02*
D03*
X550000Y318250D02*
D03*
Y301750D02*
D03*
X595000Y788250D02*
D03*
Y771750D02*
D03*
X971000Y214250D02*
D03*
Y197750D02*
D03*
X461000Y214250D02*
D03*
Y197750D02*
D03*
X241000Y214250D02*
D03*
Y197750D02*
D03*
X741000Y214250D02*
D03*
Y197750D02*
D03*
X700000Y838250D02*
D03*
Y821750D02*
D03*
X1060000Y301750D02*
D03*
Y318250D02*
D03*
X330000Y301750D02*
D03*
Y318250D02*
D03*
X830000Y301750D02*
D03*
Y318250D02*
D03*
D89*
X485834Y490834D02*
D03*
X474166Y479166D02*
D03*
D90*
X1289000Y855200D02*
D03*
Y824800D02*
D03*
D91*
X1134000Y859000D02*
D03*
Y821000D02*
D03*
D92*
X968000Y800000D02*
D03*
D93*
X1030000Y823000D02*
D03*
Y800000D02*
D03*
Y777000D02*
D03*
D94*
X1006250Y756000D02*
D03*
X991750D02*
D03*
D95*
X428750Y703500D02*
D03*
X447250D02*
D03*
Y688500D02*
D03*
X428750D02*
D03*
D96*
X754000Y686250D02*
D03*
Y693750D02*
D03*
D97*
X1137250Y400000D02*
D03*
X1124750D02*
D03*
X258750D02*
D03*
X271250D02*
D03*
X1137250Y388000D02*
D03*
X1124750D02*
D03*
X258750Y412000D02*
D03*
X271250D02*
D03*
D98*
X190000Y635000D02*
D03*
X78000D02*
D03*
X1210000D02*
D03*
X1322000D02*
D03*
D99*
X159000Y560000D02*
D03*
X134000D02*
D03*
X159000Y705000D02*
D03*
X109000D02*
D03*
X394500Y849000D02*
D03*
Y899000D02*
D03*
X1241000Y705000D02*
D03*
X1291000D02*
D03*
X1266000Y560000D02*
D03*
X1291000D02*
D03*
D100*
X109000D02*
D03*
X1241000D02*
D03*
D101*
X150000Y387250D02*
D03*
Y412750D02*
D03*
X1250000Y387250D02*
D03*
Y412750D02*
D03*
X1240000Y143500D02*
D03*
X1189000D02*
D03*
X1214500D02*
D03*
D102*
X1170000Y851500D02*
D03*
D103*
X1218000Y879500D02*
D03*
Y821500D02*
D03*
D104*
X1289000Y879000D02*
D03*
D105*
Y903000D02*
D03*
D106*
X1085400Y190800D02*
D03*
X575400D02*
D03*
X355400D02*
D03*
X855400D02*
D03*
D107*
X1021900Y165400D02*
D03*
X511900D02*
D03*
X291900D02*
D03*
X791900D02*
D03*
D108*
X515750Y810250D02*
D03*
X625000Y672000D02*
D03*
X211500Y698500D02*
D03*
X390250Y815000D02*
D03*
X1063250Y361000D02*
D03*
X1022750D02*
D03*
X1103500Y425000D02*
D03*
X1063000D02*
D03*
X1160000Y422000D02*
D03*
X1151250D02*
D03*
X248750Y378750D02*
D03*
X669750Y789000D02*
D03*
X416500Y797500D02*
D03*
X360500Y772250D02*
D03*
X310500Y724500D02*
D03*
X603750Y450750D02*
D03*
Y475750D02*
D03*
X540500Y599250D02*
D03*
Y624000D02*
D03*
X523250Y667750D02*
D03*
X475000Y618500D02*
D03*
X493250Y735500D02*
D03*
X474250Y627895D02*
D03*
X460500Y564750D02*
D03*
X39750Y232250D02*
D03*
X272500Y767250D02*
D03*
X281000D02*
D03*
X443500Y731250D02*
D03*
X438250Y726000D02*
D03*
X201500Y403500D02*
D03*
Y396500D02*
D03*
X219356Y499553D02*
D03*
X251750Y499500D02*
D03*
X412500Y877000D02*
D03*
X479250Y688000D02*
D03*
X475250Y735250D02*
D03*
X431000Y559250D02*
D03*
X473500Y829250D02*
D03*
X478500Y822750D02*
D03*
X488500D02*
D03*
X436000Y584750D02*
D03*
X446000D02*
D03*
X451000Y578000D02*
D03*
X431000D02*
D03*
X441000Y577500D02*
D03*
X1199250Y403500D02*
D03*
Y396500D02*
D03*
X448750Y736750D02*
D03*
X607500Y772000D02*
D03*
X1068000Y875250D02*
D03*
X1100000D02*
D03*
X1134000D02*
D03*
X700000Y885500D02*
D03*
X1259500Y129500D02*
D03*
Y170000D02*
D03*
Y210500D02*
D03*
X1132500Y339500D02*
D03*
X1113750Y318500D02*
D03*
X1247250Y232750D02*
D03*
X1229500Y250250D02*
D03*
X1211750Y267750D02*
D03*
X1194000Y285250D02*
D03*
X1176250Y302750D02*
D03*
X1158500Y320250D02*
D03*
X1007750Y224250D02*
D03*
X990250Y242000D02*
D03*
X971500Y259750D02*
D03*
X954000Y277500D02*
D03*
X1172750Y197250D02*
D03*
X1190250Y179500D02*
D03*
X1151250Y210250D02*
D03*
X1110750D02*
D03*
X1029750D02*
D03*
X1070250D02*
D03*
X901250Y328000D02*
D03*
X860750D02*
D03*
X781250Y326000D02*
D03*
X748250Y342750D02*
D03*
X664500Y373250D02*
D03*
X587500D02*
D03*
X547000D02*
D03*
X471250Y375250D02*
D03*
X430750D02*
D03*
X349750D02*
D03*
X390250D02*
D03*
X309250D02*
D03*
X1214000Y209750D02*
D03*
X1196500Y227500D02*
D03*
X1162250Y250000D02*
D03*
X1121750D02*
D03*
X963000Y320750D02*
D03*
X768250Y375500D02*
D03*
X750750Y393250D02*
D03*
X714750Y412750D02*
D03*
X624750D02*
D03*
X584250D02*
D03*
X757500Y432750D02*
D03*
X775000Y415000D02*
D03*
X792500Y397250D02*
D03*
X810000Y379500D02*
D03*
X982250Y361000D02*
D03*
X901250Y363500D02*
D03*
X860750D02*
D03*
X665250Y495000D02*
D03*
X624750D02*
D03*
X584250D02*
D03*
X1022500Y425000D02*
D03*
X792000Y489000D02*
D03*
X756250Y524500D02*
D03*
X736750Y544000D02*
D03*
X860500Y425000D02*
D03*
X901000D02*
D03*
X941500D02*
D03*
X982000D02*
D03*
X584000Y561250D02*
D03*
X624500D02*
D03*
X665000D02*
D03*
X705500D02*
D03*
X491500Y454500D02*
D03*
X471250Y436750D02*
D03*
X430750D02*
D03*
X390250D02*
D03*
X349750D02*
D03*
X309250D02*
D03*
X533871Y681383D02*
D03*
X555000Y699000D02*
D03*
X632750Y642750D02*
D03*
X697750D02*
D03*
X748500Y720000D02*
D03*
X711750Y702895D02*
D03*
X700000Y804750D02*
D03*
X845250Y724750D02*
D03*
X755500Y625750D02*
D03*
X767750Y637000D02*
D03*
X754500Y605750D02*
D03*
X773750Y593500D02*
D03*
X753250Y566500D02*
D03*
X866250Y590000D02*
D03*
X882750Y564750D02*
D03*
X1006500Y592250D02*
D03*
X1006250Y551000D02*
D03*
X1083000Y494500D02*
D03*
X1113000Y510000D02*
D03*
X1154500Y503000D02*
D03*
X280500Y539000D02*
D03*
X575250Y450750D02*
D03*
Y475750D02*
D03*
X723250Y450750D02*
D03*
X708625Y475625D02*
D03*
X822750Y475750D02*
D03*
X837250Y450750D02*
D03*
X942250D02*
D03*
Y475750D02*
D03*
X1014750D02*
D03*
Y450750D02*
D03*
X1068500Y328000D02*
D03*
X927750Y301500D02*
D03*
X822750Y328000D02*
D03*
X550000Y335250D02*
D03*
X524750Y328000D02*
D03*
X430750Y320000D02*
D03*
X458000Y320750D02*
D03*
X103250Y310000D02*
D03*
X36500Y459000D02*
D03*
X217750Y507000D02*
D03*
X267250Y499500D02*
D03*
X234250Y505500D02*
D03*
X237750Y519000D02*
D03*
X265750D02*
D03*
X292000D02*
D03*
X311000Y532000D02*
D03*
X431000Y566500D02*
D03*
X503250Y559500D02*
D03*
X492750Y590500D02*
D03*
Y597750D02*
D03*
X523295Y602163D02*
D03*
Y622837D02*
D03*
X496163D02*
D03*
X486750Y672000D02*
D03*
X384500Y627250D02*
D03*
X384000Y599000D02*
D03*
X360000Y599250D02*
D03*
X339020Y619270D02*
D03*
X321500Y605000D02*
D03*
X474250Y649000D02*
D03*
X339020Y634730D02*
D03*
X349000Y687000D02*
D03*
Y728500D02*
D03*
X435500Y847750D02*
D03*
X462520Y867520D02*
D03*
X499000Y825750D02*
D03*
X478000Y842000D02*
D03*
X876750Y569750D02*
D03*
X871250Y596000D02*
D03*
X411000Y861000D02*
D03*
X400000Y827000D02*
D03*
X458000Y328000D02*
D03*
X532000D02*
D03*
X413000Y613750D02*
D03*
X463000Y589000D02*
D03*
X568000Y450750D02*
D03*
Y475750D02*
D03*
X558500Y450750D02*
D03*
Y475750D02*
D03*
X549250Y450750D02*
D03*
Y475750D02*
D03*
X509750Y620000D02*
D03*
X516000Y599000D02*
D03*
X509750Y592750D02*
D03*
X503250Y566750D02*
D03*
X503458Y626000D02*
D03*
X516000D02*
D03*
X352500Y534000D02*
D03*
X318750Y539000D02*
D03*
X292000D02*
D03*
X280500Y517250D02*
D03*
X251750D02*
D03*
X330000Y627000D02*
D03*
Y605000D02*
D03*
X375750Y626750D02*
D03*
X935000Y301500D02*
D03*
X1123250Y329000D02*
D03*
X760500Y566500D02*
D03*
Y600750D02*
D03*
Y631750D02*
D03*
X935000Y475750D02*
D03*
Y450750D02*
D03*
X830000Y475750D02*
D03*
X1006250Y450750D02*
D03*
Y475750D02*
D03*
X830000Y450750D02*
D03*
X103250Y318500D02*
D03*
X330000Y254000D02*
D03*
X774000Y743000D02*
D03*
X590000Y837000D02*
D03*
X240000Y378500D02*
D03*
X464000Y736000D02*
D03*
X1059000Y802000D02*
D03*
X1071000D02*
D03*
X1083000D02*
D03*
X1059000Y790000D02*
D03*
X1071000D02*
D03*
X1083000D02*
D03*
Y778000D02*
D03*
X1071000D02*
D03*
X1059000D02*
D03*
X826000Y696000D02*
D03*
X927000Y850000D02*
D03*
X915000D02*
D03*
X939000D02*
D03*
Y838000D02*
D03*
X915000D02*
D03*
X927000D02*
D03*
X1054000Y680000D02*
D03*
X1066000D02*
D03*
X915000Y790000D02*
D03*
X927000D02*
D03*
X939000D02*
D03*
Y802000D02*
D03*
X927000D02*
D03*
X915000D02*
D03*
X927000Y826000D02*
D03*
X915000D02*
D03*
X939000D02*
D03*
X915000Y814000D02*
D03*
X927000D02*
D03*
X939000D02*
D03*
X1033000Y726000D02*
D03*
X1021000D02*
D03*
X1009000D02*
D03*
X1033000Y738000D02*
D03*
X1009000D02*
D03*
X1021000D02*
D03*
X1009000Y714000D02*
D03*
X1021000D02*
D03*
X1033000D02*
D03*
X1078000Y692000D02*
D03*
X1066000D02*
D03*
X1054000D02*
D03*
X1066000Y716000D02*
D03*
X1054000D02*
D03*
X1078000D02*
D03*
X1054000Y704000D02*
D03*
X1066000D02*
D03*
X1078000D02*
D03*
X1169117Y628398D02*
D03*
X1157117D02*
D03*
X1145117D02*
D03*
X1133117D02*
D03*
X1121117D02*
D03*
X1109117D02*
D03*
X1097117D02*
D03*
X1169117Y640398D02*
D03*
X1157117D02*
D03*
X1145117D02*
D03*
X1133117D02*
D03*
X1121117D02*
D03*
X1097117D02*
D03*
X1109117D02*
D03*
X438000Y320000D02*
D03*
X1073000Y407000D02*
D03*
X529000Y515000D02*
D03*
X518000D02*
D03*
X473259Y514891D02*
D03*
X471494Y523373D02*
D03*
X700000Y679000D02*
D03*
Y702000D02*
D03*
X411642Y767450D02*
D03*
X516000Y774000D02*
D03*
X515959Y782242D02*
D03*
X509706Y787290D02*
D03*
X503458Y792404D02*
D03*
X1060000Y328000D02*
D03*
X830000D02*
D03*
X550000D02*
D03*
X28000Y459000D02*
D03*
X700000Y812000D02*
D03*
X376000Y650000D02*
D03*
X458517Y848869D02*
D03*
X529000Y780000D02*
D03*
X454000Y715000D02*
D03*
X464000Y727000D02*
D03*
X459000Y721000D02*
D03*
X433000D02*
D03*
X485000Y538000D02*
D03*
X396000Y532000D02*
D03*
X411000Y560000D02*
D03*
X477000Y538000D02*
D03*
X1052000Y756000D02*
D03*
X1306000Y541000D02*
D03*
X1227000D02*
D03*
X971000Y224000D02*
D03*
X1060000Y254000D02*
D03*
X830000D02*
D03*
X741000Y224000D02*
D03*
X550000Y254000D02*
D03*
X461000Y224000D02*
D03*
X241000D02*
D03*
X174000Y541000D02*
D03*
X95000D02*
D03*
X384000Y516000D02*
D03*
X427000Y487000D02*
D03*
X410000Y479000D02*
D03*
X485000Y555000D02*
D03*
X405000Y554000D02*
D03*
X463000Y613000D02*
D03*
X803000Y743000D02*
D03*
X754000Y702000D02*
D03*
X776000Y673000D02*
D03*
X745000D02*
D03*
X712000D02*
D03*
X686000D02*
D03*
X667000Y675000D02*
D03*
Y683000D02*
D03*
X343000Y736000D02*
D03*
X595000Y806000D02*
D03*
X590000Y867500D02*
D03*
X526000D02*
D03*
X442000Y827000D02*
D03*
X418000D02*
D03*
X418000Y716000D02*
D03*
X426000D02*
D03*
X461000Y709000D02*
D03*
X415000D02*
D03*
X468000Y705000D02*
D03*
Y697000D02*
D03*
X408000Y705000D02*
D03*
Y697000D02*
D03*
X468000Y689000D02*
D03*
X408000D02*
D03*
X415000Y684000D02*
D03*
X418000Y676000D02*
D03*
X426000D02*
D03*
X434000D02*
D03*
X442000D02*
D03*
X450000D02*
D03*
X458000D02*
D03*
X461000Y684000D02*
D03*
X479250Y712000D02*
D03*
X355000Y736000D02*
D03*
X414000Y737000D02*
D03*
X402000Y753000D02*
D03*
X1191000Y757000D02*
D03*
X1030000Y756000D02*
D03*
X962000Y850000D02*
D03*
D109*
X427500Y537250D02*
D03*
X438500D02*
D03*
X449500D02*
D03*
X427500Y526250D02*
D03*
X438500D02*
D03*
X449500D02*
D03*
X427500Y515250D02*
D03*
X438500D02*
D03*
X449500D02*
D03*
D110*
X512500Y270000D02*
D03*
X587500D02*
D03*
X662500Y870000D02*
D03*
X737500D02*
D03*
X1097500Y270000D02*
D03*
X1022500D02*
D03*
X867500D02*
D03*
X792500D02*
D03*
X292500D02*
D03*
X367500D02*
D03*
D111*
X700000Y350000D02*
D03*
X1350000Y870000D02*
D03*
Y50000D02*
D03*
X50000Y780000D02*
D03*
Y50000D02*
D03*
M02*
