M48
;Layer_Color=9474304
;FILE_FORMAT=4:4
METRIC,LZ
;TYPE=PLATED
T01F00S00C0.2000
T02F00S00C0.3000
T03F00S00C0.3300
T06F00S00C0.8500
T07F00S00C1.0000
T08F00S00C1.0160
T09F00S00C1.2000
T10F00S00C1.4986
T12F00S00C2.5000
T13F00S00C3.5000
;TYPE=NON_PLATED
T14F00S00C1.0000
T15F00S00C1.7018
T16F00S00C3.9878
%
T01
X004275Y0051525
X004385
Y0052625
Y0053725
X004275
Y0052625
X004495
Y0053725
Y0051525
T02
X0119025Y001795
X012595Y0017
Y001295
X000365Y00459
X00028
X001165Y00467
X0011675Y00445
X0014875Y00455
X001485Y00477
X00149Y00499
Y0052125
X0017125Y00511
X001715Y00489
X00171Y00467
X0017125Y00445
X0022075Y0044475
X0022575Y00451297
X0021475Y0043275
X00207Y00425
X002015Y004035
Y003965
X0019Y00388
X0024Y003785
X00256Y0038225
X0030925Y0037525
X0034975
X0039025
X0043075
X0047125
X00458Y00328
Y0032075
X00438Y0032
X0043075
Y0043675
X0039025
X0034975
X0030925
X002665
X0025875Y00451297
X00252282Y00444894
X00236Y00425
X0023425Y005055
X00225847
X0021775Y00507
X00219356Y00499553
X0025175Y004995
X0025875
X0026725
X0026575Y00519
X0025175Y0051725
X0023775Y00519
X002805Y0051725
X00292Y00519
Y00539
X002805
X00311Y00532
X0031875Y00539
X0031575Y0057325
Y0058175
X00367Y0056
X003525Y00534
X00396Y00532
X00384Y00516
X00405Y00554
X00411Y0056
X00431Y0055925
Y005665
X00431Y00578
X00441Y005775
X00451Y00578
X00446Y0058475
X00436
X00463Y00589
X00485Y00555
Y00538
X00477
X00471494Y00523373
X00473259Y00514891
X00427Y00487
X0041Y00479
X0047125Y0043675
X00461Y00224
X0033Y00254
X00241Y00224
X0010325Y0031
Y003185
X00117Y00489
X0011675Y00511
X00095Y00541
X00174
X0050325Y005595
Y0056675
X00518Y00515
X00529
X0054925Y0047575
X005585
X00568
X0057525
Y0045075
X00568
X005585
X0054925
X004915Y004545
X0058425Y00495
X0062475
X0066525
X00708625Y00475625
X0071575Y0047575
X00716Y0045075
X0072325
X0071475Y0041275
X0075075Y0039325
X0076825Y003755
X0081Y003795
X007925Y0039725
X00775Y00415
X007575Y0043275
X0083Y0045075
X0083725
X0083Y0047575
X0082275
X00792Y00489
X0075625Y005245
X0073675Y00544
X0075325Y005665
X007605
X007055Y0056125
X00665
X006245
X00584
X0058425Y0041275
X0062475
X005875Y0037325
X00547
X0055Y0033525
Y00328
X00532
X0052475
X0055Y00254
X00741Y00224
X0083Y00254
Y00328
X0082275
X0086075Y00328
Y003635
X008605Y00425
X0087675Y0056975
X0088275Y0056475
X0086625Y0059
X0078125Y00326
X0074825Y0034275
X006645Y0037325
X0090125Y003635
Y00328
X0092775Y003015
X00935
X00954Y002775
X009715Y0025975
X00971Y00224
X0100775Y0022425
X0099025Y00242
X0102975Y0021025
X0107025
X0111075
X0115125
X0117275Y0019725
X01214Y0020975
X011965Y002275
X0121175Y0026775
X012295Y0025025
X0124725Y0023275
X012595Y002105
X0116225Y0025
X0112175
X0106Y00254
Y00328
X010685
X0111375Y003185
X0112325Y00329
X011325Y003395
X01138Y00378
Y0041425
X011301Y004221
X0112225Y0042995
X0111375Y00445
X0111975Y00452
X01153
X01146266Y00444911
X0115875Y00422
X01175Y00423
X01191Y0042
X0119925Y004035
Y003965
X01175Y00381
X011585Y0032025
X0117625Y0030275
X01194Y0028525
X012Y00436
Y0045825
X0122775Y00467
Y00489
Y00511
X01227Y00541
X012Y0050225
X011545Y00503
X01146
X0112125Y0050825
X01113Y0051
Y00503
X01083
Y004945
X0101475Y0047575
X0100625
Y0045075
X0101475
X010225Y00425
X00982
X009415
X0094225Y0045075
X00935
Y0047575
X0094225
X00901Y00425
X0098225Y00361
X00963Y0032075
X01073Y00407
X012275Y00445
X01281
X0100625Y00551
Y005595
X01306Y00541
X0128225Y00511
Y00489
Y00467
X01284Y00741
X01191Y00757
X01083Y00778
Y0079
Y00802
X01071
X01059
Y0079
X01071
Y00778
X01059
X01052Y00756
X0103
X01033Y00738
Y00726
X01021
X01009
Y00738
X01021
Y00714
X01009
X01033
X01054Y00716
X01066
X01078
Y00704
Y00692
X01066
Y0068
X01054
Y00692
Y00704
X01066
X01097117Y00640398
Y00628398
X01109117
X01121117
X01133117
X01145117
X01157117
X01169117
Y00640398
X01157117
X01145117
X01133117
X01121117
X01109117
X010065Y0060075
Y0059225
X00939Y0079
X00927
X00915
Y00802
X00927
X00939
Y00814
Y00826
Y00838
Y0085
X00927
X00915
Y00838
X00927
Y00826
X00915
Y00814
X00927
X00962Y0085
X01068Y0087525
X011
X01134
X0084525Y00732
Y0072475
X00826Y00696
X00803Y00743
X00774
X007485Y0072
X007435Y00714
X00754Y00702
X00745Y00673
X00776
X0077375Y00632
X0076775Y00637
X007605Y0063175
X007555Y0062575
X007545Y0060575
X007605Y0060075
X0077375
Y005935
X0073325Y00632
X00726
X0069775Y0064275
X007Y00679
X00695Y00685
X00705
Y00696
X007Y00702
X00695Y00708
X0071175Y00702895
X00712Y00673
X00686
X00667Y00675
Y00683
X00627Y00672
X0063275Y0064275
X00572Y00642
X00523295Y00622837
X00516Y00626
X0050975Y0062
X00503458Y00626
X00496163Y00622837
X0049125Y00629
X0049275Y0059775
Y005905
X0050975Y0059275
X00516Y00599
X00523295Y00602163
X00533871Y00681383
X00555Y00699
X00494Y00672
X00516Y00774
X00515959Y00782242
X00509706Y0078729
X00503458Y00792404
X00504Y00816
X00499Y0082575
X004885Y0082275
X0052Y00804
X00529Y0078
X00526Y00837
Y00866
X0059
Y00837
X00595Y00806
X006075Y00772
X007Y0080475
Y00812
Y008855
X0086525Y0060075
X0087125Y00596
X0048025Y0061575
X00463Y00613
X0047425Y00649
X0048675Y00672
X0047925Y00688
X00468Y00689
Y00697
Y00705
X00461Y00709
X00454Y00715
X00459Y00721
X00464Y00727
Y00736
X0047525Y0073525
X0047925Y00712
X00461Y00684
X00458Y00676
X0045
X00442
X00434
X00426
X00418
X00415Y00684
X00408Y00689
Y00697
Y00705
X00415Y00709
X00418Y00716
X00426
X00433Y00721
X0043825Y00726
X004435Y0073125
X0044875Y0073675
X00414Y00737
X00388Y00736
X00402Y00753
X00411642Y0076745
X00418Y00827
X004
X00442
X004355Y0084775
X00458517Y00848869
X0046252Y0086752
X00478Y00842
X004735Y0082925
X004785Y0082275
X00411Y00861
X004125Y00877
X002805Y008115
Y00803
X00343Y00736
X00355
X00349Y007285
Y00687
X0033902Y0063473
Y0061927
X0033Y00627
Y00605
X003215Y00605
X0036Y0060775
Y0059925
X00384Y00599
Y006075
X0038425Y0061875
X003845Y0062725
X0037575Y0062675
X00376Y0065
X00413Y0061375
X00116Y00741
T03
X0021Y00476
X00222
X00243
X00255
X01104
X01116
X01137
X01149
T06
X003945Y00849
Y00899
T07
X0015Y0038725
Y0041275
X00159Y0056
X00134
X00109
X01241
X01266
X0125Y0041275
Y0038725
X01291Y0056
Y00705
X01241
X00159
X00109
T08
X01189Y001435
X012145
X0124
T09
X01289Y00879
Y00903
T10
X010219Y001654
X010854Y001908
X008554
X007919Y001654
X005754Y001908
X005119Y001654
X003554Y001908
X002919Y001654
T12
X002925Y0027
X003675
X005125
X005875
X007925
X008675
X010225
X010975
X007375Y0087
X006625
T13
X0135Y0005
X0005
X007Y0035
X0135Y0087
X0005Y0078
T14
X01022Y0008925
X01098
X00868
X00792
X00588
X00512
X00368
X00292
T15
X010092Y0014
X011108
X008808
X007792
X006008
X004992
X003808
X002792
T16
X0106Y0014
X0083
X0055
X0033
M30
